<svg xmlns="http://www.w3.org/2000/svg" width="319" height="316" viewBox="0 0 319 316">
  <g id="_5243320" data-name="5243320" transform="translate(0 0.066)">
    <g id="Floor" transform="translate(0 313.237)">
      <path id="Path_5587" data-name="Path 5587" d="M354.93,469.094c0,.1-71.416.194-159.493.194S35.93,469.2,35.93,469.094s71.4-.194,159.507-.194S354.93,468.975,354.93,469.094Z" transform="translate(-35.93 -468.9)" fill="#263238"/>
    </g>
    <g id="Screens" transform="translate(115.009 -0.066)">
      <rect id="Rectangle_2677" data-name="Rectangle 2677" width="142.877" height="132.23" rx="6.56" transform="translate(0.166 0.243)" fill="#fff"/>
      <path id="Path_5588" data-name="Path 5588" d="M328.443,180.437h.35a4.957,4.957,0,0,0,1.021-.194,4.865,4.865,0,0,0,2.98-2.585,5.915,5.915,0,0,0,.462-2.936c0-1.11,0-2.332,0-3.651v-9.112c0-13.71-.037-33.529-.067-58.057V52.834a4.716,4.716,0,0,0-3.055-4.128,7.019,7.019,0,0,0-2.749-.3H195.356a4.716,4.716,0,0,0-3.047,1.14,4.664,4.664,0,0,0-1.609,2.913,14.436,14.436,0,0,0-.052,1.714V176.011a4.842,4.842,0,0,0,.32,1.334,4.716,4.716,0,0,0,1.691,2.116,4.642,4.642,0,0,0,2.556.835H249.1l58.057.067h15.781l-15.781.037-58.057.06H195.207a5.044,5.044,0,0,1-4.552-3.159,5.29,5.29,0,0,1-.35-1.431c-.037-.507,0-.969,0-1.453V54.138a12.914,12.914,0,0,1,.06-1.766,4.97,4.97,0,0,1,1.7-3.114,5.126,5.126,0,0,1,3.293-1.267H327.34a7.272,7.272,0,0,1,2.869.328,5.052,5.052,0,0,1,3.271,4.418q0,5.588,0,11v40.093c0,24.513-.045,44.347-.06,58.057v12.763a5.96,5.96,0,0,1-.492,2.98,4.873,4.873,0,0,1-4.09,2.764Z" transform="translate(-190.288 -47.964)" fill="#263238"/>
      <path id="Path_5589" data-name="Path 5589" d="M203.307,59.744a2.466,2.466,0,1,1-.72-1.749A2.474,2.474,0,0,1,203.307,59.744Z" transform="translate(-192.346 -50.336)" fill="#263238"/>
      <circle id="Ellipse_503" data-name="Ellipse 503" cx="2.466" cy="2.466" r="2.466" transform="translate(13.227 6.941)" fill="#263238"/>
      <circle id="Ellipse_504" data-name="Ellipse 504" cx="2.466" cy="2.466" r="2.466" transform="translate(20.439 6.941)" fill="#263238"/>
      <path id="Path_5590" data-name="Path 5590" d="M333.387,69.934c0,.112-31.986.194-71.439.194s-71.439-.082-71.439-.194,31.979-.194,71.439-.194S333.387,69.822,333.387,69.934Z" transform="translate(-190.344 -53.515)" fill="#263238"/>
      <path id="Path_5591" data-name="Path 5591" d="M300.632,125.213s.052-.082.171-.231l.1-.127.1-.171a3.324,3.324,0,0,0,.216-.432c0-.082.074-.171.1-.268l.089-.313a2.646,2.646,0,0,0,.074-.35c0-.127.045-.253.052-.387a7.364,7.364,0,0,0-.089-1.855,16.393,16.393,0,0,0-1.7-4.791,37.748,37.748,0,0,0-3.658-5.685,58.174,58.174,0,0,0-5.447-6.125,66.92,66.92,0,0,0-7.16-6.1c-1.334-.983-2.742-1.937-4.225-2.831a40.7,40.7,0,0,0-4.7-2.466,22.151,22.151,0,0,0-5.216-1.639,9.194,9.194,0,0,0-2.787-.067,5.073,5.073,0,0,0-1.349.387,3.957,3.957,0,0,0-1.125.827,3.725,3.725,0,0,0-.7,1.214,5.146,5.146,0,0,0-.231,1.386,9.352,9.352,0,0,0,.38,2.764,22.1,22.1,0,0,0,2.235,5.007,40.11,40.11,0,0,0,2.98,4.389c1.058,1.371,2.168,2.667,3.293,3.882a66.312,66.312,0,0,0,6.885,6.415,57.747,57.747,0,0,0,6.706,4.716,37.766,37.766,0,0,0,6.065,2.98,16.787,16.787,0,0,0,4.955,1.147,7.88,7.88,0,0,0,1.848-.127,1.521,1.521,0,0,0,.373-.1,3.1,3.1,0,0,0,.343-.112l.3-.127.261-.134a2.69,2.69,0,0,0,.4-.268l.156-.112.119-.112c.134-.134.209-.194.209-.194l-.2.2-.119.112-.149.119a2.447,2.447,0,0,1-.41.268l-.246.164-.305.127a2.234,2.234,0,0,1-.335.112,3.167,3.167,0,0,1-.38.1,7.2,7.2,0,0,1-1.863.134,16.526,16.526,0,0,1-4.97-1.125,37.841,37.841,0,0,1-6.087-2.98,57.846,57.846,0,0,1-6.706-4.716,65.56,65.56,0,0,1-6.9-6.415c-1.125-1.214-2.235-2.511-3.3-3.882a41.512,41.512,0,0,1-2.98-4.4,22.146,22.146,0,0,1-2.235-5.029,9.293,9.293,0,0,1-.387-2.8,5.31,5.31,0,0,1,.238-1.408,4.016,4.016,0,0,1,.745-1.259,3.829,3.829,0,0,1,1.162-.849,5.312,5.312,0,0,1,1.378-.4,9.433,9.433,0,0,1,2.824.067A22.248,22.248,0,0,1,274.681,93a40.229,40.229,0,0,1,4.709,2.474c1.49.894,2.9,1.848,4.232,2.839a65.471,65.471,0,0,1,7.16,6.125,57.639,57.639,0,0,1,5.454,6.139,37.646,37.646,0,0,1,3.643,5.7,16.489,16.489,0,0,1,1.691,4.813,7.408,7.408,0,0,1,.074,1.87,2.885,2.885,0,0,1-.06.38,1.614,1.614,0,0,1-.074.35l-.089.32a2.226,2.226,0,0,1-.112.268,1.936,1.936,0,0,1-.224.432.936.936,0,0,1-.1.171l-.1.127Z" transform="translate(-208.843 -58.985)" fill="#ff725e"/>
      <path id="Path_5592" data-name="Path 5592" d="M305.759,111.866v-.44a.388.388,0,0,0-.037-.194,2.343,2.343,0,0,0-.127-.469.838.838,0,0,0-.1-.268l-.149-.3a1.622,1.622,0,0,0-.179-.305,2.69,2.69,0,0,0-.216-.32,6.943,6.943,0,0,0-1.3-1.326,16.548,16.548,0,0,0-4.471-2.444,37.483,37.483,0,0,0-6.512-1.811,57.759,57.759,0,0,0-8.189-.939,67.228,67.228,0,0,0-9.41.2c-1.647.156-3.331.387-5.037.708a39.707,39.707,0,0,0-5.149,1.289,21.609,21.609,0,0,0-4.992,2.235,9.1,9.1,0,0,0-2.123,1.8,5.037,5.037,0,0,0-.745,1.185,3.776,3.776,0,0,0-.3,1.371,3.965,3.965,0,0,0,.291,1.371,5.29,5.29,0,0,0,.745,1.185,9.342,9.342,0,0,0,2.131,1.811,22.07,22.07,0,0,0,4.992,2.235,42.284,42.284,0,0,0,5.148,1.289c1.706.32,3.39.544,5.037.7a66.2,66.2,0,0,0,9.41.209,60.051,60.051,0,0,0,8.2-.894,37.484,37.484,0,0,0,6.512-1.811,16.966,16.966,0,0,0,4.471-2.444,7.168,7.168,0,0,0,1.3-1.326,2.756,2.756,0,0,0,.216-.328,1.623,1.623,0,0,0,.179-.305l.149-.291c.037-.1.067-.186.1-.276a2.234,2.234,0,0,0,.127-.469.324.324,0,0,1,.037-.186v.194a2.278,2.278,0,0,1-.119.469.875.875,0,0,1-.1.276l-.142.3a2.753,2.753,0,0,1-.179.313,3.47,3.47,0,0,1-.216.32,6.988,6.988,0,0,1-1.3,1.341,16.489,16.489,0,0,1-4.47,2.466,37.316,37.316,0,0,1-6.519,1.833,58.863,58.863,0,0,1-8.2.954,66.208,66.208,0,0,1-9.418-.194c-1.654-.156-3.345-.38-5.052-.7a42.857,42.857,0,0,1-5.163-1.289,21.927,21.927,0,0,1-5.014-2.235,9.307,9.307,0,0,1-2.153-1.825,5.277,5.277,0,0,1-.745-1.214,3.435,3.435,0,0,1,0-2.831,5.543,5.543,0,0,1,.745-1.214,9.494,9.494,0,0,1,2.168-1.825,22.129,22.129,0,0,1,5.022-2.235,40.114,40.114,0,0,1,5.156-1.289c1.714-.32,3.4-.544,5.052-.7a66.252,66.252,0,0,1,9.358-.246,57.715,57.715,0,0,1,8.2.961,37.059,37.059,0,0,1,6.52,1.825,16.489,16.489,0,0,1,4.47,2.466,7.2,7.2,0,0,1,1.3,1.341,2.759,2.759,0,0,1,.216.328,2.236,2.236,0,0,1,.179.313l.142.291c.037.1.067.194.1.276a2.336,2.336,0,0,1,.119.477v.35A1.309,1.309,0,0,1,305.759,111.866Z" transform="translate(-207.212 -61.971)" fill="#ff725e"/>
      <path id="Path_5593" data-name="Path 5593" d="M299.685,87.389l-.246-.156-.134-.089a1.243,1.243,0,0,0-.171-.082,2.311,2.311,0,0,0-.447-.186,1.479,1.479,0,0,1-.276-.089l-.32-.067a2.635,2.635,0,0,0-.35-.052,3.282,3.282,0,0,0-.387,0,7.451,7.451,0,0,0-1.848.209,16.832,16.832,0,0,0-4.664,2.034,36.949,36.949,0,0,0-5.417,4.038,58.119,58.119,0,0,0-5.737,5.856,66.146,66.146,0,0,0-5.6,7.563c-.879,1.393-1.744,2.883-2.533,4.374a40.241,40.241,0,0,0-2.138,4.858,22.417,22.417,0,0,0-1.274,5.327,9.208,9.208,0,0,0,.127,2.787,5.3,5.3,0,0,0,.484,1.319,3.763,3.763,0,0,0,.9,1.073,3.859,3.859,0,0,0,1.259.6,5.15,5.15,0,0,0,1.393.142,9.276,9.276,0,0,0,2.734-.574,22.111,22.111,0,0,0,4.843-2.563,40.67,40.67,0,0,0,4.173-3.278c1.3-1.155,2.511-2.347,3.643-3.554a66.937,66.937,0,0,0,5.923-7.309,58.121,58.121,0,0,0,4.247-7.011,37.389,37.389,0,0,0,2.563-6.251,16.7,16.7,0,0,0,.8-5.029,6.927,6.927,0,0,0-.253-1.833,1.28,1.28,0,0,0-.119-.373,2.149,2.149,0,0,0-.134-.328l-.142-.291c-.052-.089-.112-.171-.156-.246a2.192,2.192,0,0,0-.3-.387l-.119-.149-.119-.1-.209-.194.216.186.119.1a1.207,1.207,0,0,1,.127.142,2.4,2.4,0,0,1,.3.387c.052.082.112.156.164.246l.142.3a1.876,1.876,0,0,1,.141.328c.037.119.089.238.119.373a6.909,6.909,0,0,1,.268,1.84,16.483,16.483,0,0,1-.782,5.044,38.045,38.045,0,0,1-2.548,6.274,58.23,58.23,0,0,1-4.247,7.026,65.48,65.48,0,0,1-5.923,7.324c-1.133,1.215-2.347,2.414-3.651,3.569a41.042,41.042,0,0,1-4.18,3.286,21.986,21.986,0,0,1-4.865,2.578,9.432,9.432,0,0,1-2.764.581,5.454,5.454,0,0,1-1.431-.142,4.038,4.038,0,0,1-1.3-.633,3.888,3.888,0,0,1-.931-1.1,5.439,5.439,0,0,1-.5-1.349,9.418,9.418,0,0,1-.119-2.816,22.063,22.063,0,0,1,1.282-5.357,40.367,40.367,0,0,1,2.138-4.865c.8-1.55,1.654-3.025,2.541-4.426a67.123,67.123,0,0,1,5.618-7.563,57.368,57.368,0,0,1,5.752-5.849,37.6,37.6,0,0,1,5.439-4.038,16.7,16.7,0,0,1,4.687-2.012,7.175,7.175,0,0,1,1.855-.209h.387a2.581,2.581,0,0,1,.358.052l.32.067.276.1a2.3,2.3,0,0,1,.447.194,1.251,1.251,0,0,1,.171.082l.134.1Z" transform="translate(-210.094 -57.812)" fill="#ff725e"/>
      <path id="Path_5594" data-name="Path 5594" d="M255.819,128.428a.909.909,0,1,1-.645-.268A.909.909,0,0,1,255.819,128.428Z" transform="translate(-206.597 -68.407)" fill="#ff725e"/>
      <path id="Path_5595" data-name="Path 5595" d="M324.713,90.319a.909.909,0,1,1-.269-.645A.916.916,0,0,1,324.713,90.319Z" transform="translate(-224.088 -58.529)" fill="#ff725e"/>
      <path id="Path_5596" data-name="Path 5596" d="M263.912,132.461a.231.231,0,1,1-.231-.231A.231.231,0,0,1,263.912,132.461Z" transform="translate(-208.938 -69.445)" fill="#ff725e"/>
      <path id="Path_5597" data-name="Path 5597" d="M270.542,98.2a.231.231,0,1,1-.231-.231A.231.231,0,0,1,270.542,98.2Z" transform="translate(-210.628 -60.711)" fill="#ff725e"/>
      <path id="Path_5598" data-name="Path 5598" d="M319.032,114.851a.231.231,0,1,1-.231-.231A.231.231,0,0,1,319.032,114.851Z" transform="translate(-222.989 -64.956)" fill="#ff725e"/>
      <path id="Path_5599" data-name="Path 5599" d="M323.352,100.371a.231.231,0,1,1-.231-.231A.231.231,0,0,1,323.352,100.371Z" transform="translate(-224.09 -61.264)" fill="#ff725e"/>
      <path id="Path_5600" data-name="Path 5600" d="M296.052,113.174h-2.861V97.595a6.654,6.654,0,1,0-13.307,0v15.58H277V97.595a9.515,9.515,0,0,1,19.03,0Z" transform="translate(-212.392 -58.19)" fill="#f07824"/>
      <g id="Group_56495" data-name="Group 56495" transform="translate(64.608 29.89)" opacity="0.3">
        <path id="Path_5601" data-name="Path 5601" d="M296.052,113.174h-2.861V97.595a6.654,6.654,0,1,0-13.307,0v15.58H277V97.595a9.515,9.515,0,0,1,19.03,0Z" transform="translate(-277 -88.08)"/>
      </g>
      <rect id="Rectangle_2678" data-name="Rectangle 2678" width="25.646" height="16.451" rx="2.25" transform="translate(61.322 48.055)" fill="#f07824"/>
      <g id="Group_56496" data-name="Group 56496" transform="translate(71.999 51.98)" opacity="0.3">
        <path id="Path_5602" data-name="Path 5602" d="M291.212,119.89a2.146,2.146,0,1,0-2.727,2.049v3.2h1.162v-3.2a2.131,2.131,0,0,0,1.565-2.049Z" transform="translate(-286.92 -117.728)"/>
      </g>
      <path id="Path_5603" data-name="Path 5603" d="M274.392,128.257c-.06,0-.112-2.742-.112-6.125s.052-6.132.112-6.132.1,2.742.1,6.132S274.444,128.257,274.392,128.257Z" transform="translate(-211.699 -65.307)" fill="#fafafa"/>
      <path id="Path_5604" data-name="Path 5604" d="M287.062,122.434a.422.422,0,0,1-.253-.142,2.593,2.593,0,0,1-.551-.559,2.98,2.98,0,0,1,1.065-4.508,2.548,2.548,0,0,1,.745-.261.79.79,0,0,1,.291,0,7.525,7.525,0,0,0-.961.4,2.98,2.98,0,0,0-1.021,4.292A6.43,6.43,0,0,0,287.062,122.434Z" transform="translate(-214.593 -65.55)" fill="#fafafa"/>
      <rect id="Rectangle_2679" data-name="Rectangle 2679" width="92.845" height="14.738" rx="7.369" transform="translate(26.318 78.611)" fill="#f5f5f5"/>
      <rect id="Rectangle_2680" data-name="Rectangle 2680" width="92.845" height="14.738" rx="7.369" transform="translate(26.996 98.825)" fill="#f5f5f5"/>
      <path id="Path_5605" data-name="Path 5605" d="M245.3,162.471V160.34h.887v2.1c0,.745.313,1.021.849,1.021s.849-.3.849-1.021v-2.1h.872v2.131a1.729,1.729,0,1,1-3.457,0Z" transform="translate(-204.311 -76.61)" fill="#263238"/>
      <path id="Path_5606" data-name="Path 5606" d="M250.65,164.165l.276-.611a2.011,2.011,0,0,0,1.021.283c.395,0,.536-.1.536-.268,0-.477-1.766,0-1.766-1.155,0-.559.5-.954,1.356-.954a2.392,2.392,0,0,1,1.125.261l-.283.6a1.647,1.647,0,0,0-.842-.216c-.38,0-.544.119-.544.268,0,.5,1.766,0,1.766,1.17,0,.544-.5.931-1.378.931a2.5,2.5,0,0,1-1.267-.313Z" transform="translate(-205.675 -76.896)" fill="#263238"/>
      <path id="Path_5607" data-name="Path 5607" d="M257.687,163.223h-2.235a.782.782,0,0,0,.842.589,1.006,1.006,0,0,0,.745-.283l.455.492a1.55,1.55,0,0,1-1.207.469A1.492,1.492,0,1,1,257.7,163C257.7,163.059,257.687,163.149,257.687,163.223Zm-2.235-.5h1.438a.745.745,0,0,0-1.438,0Z" transform="translate(-206.685 -76.908)" fill="#263238"/>
      <path id="Path_5608" data-name="Path 5608" d="M261.388,161.459v.79h-.194a.745.745,0,0,0-.745.82v1.378H259.6v-2.928h.812v.343a1.17,1.17,0,0,1,.976-.4Z" transform="translate(-207.957 -76.895)" fill="#263238"/>
      <path id="Path_5609" data-name="Path 5609" d="M265.635,162.761v1.676h-.849v-1.542c0-.477-.216-.693-.6-.693a.7.7,0,0,0-.7.79v1.445h-.849v-2.928h.812v.358a1.3,1.3,0,0,1,.969-.387,1.147,1.147,0,0,1,1.214,1.282Z" transform="translate(-208.732 -76.9)" fill="#263238"/>
      <path id="Path_5610" data-name="Path 5610" d="M270.217,162.774v1.669h-.8v-.335a.961.961,0,0,1-.894.41c-.685,0-1.1-.38-1.1-.887s.365-.879,1.259-.879h.656c0-.358-.216-.574-.678-.574a1.408,1.408,0,0,0-.842.276l-.306-.6a2.236,2.236,0,0,1,1.267-.358C269.7,161.47,270.217,161.872,270.217,162.774Zm-.849.745v-.3h-.581c-.4,0-.522.149-.522.343s.179.358.477.358a.626.626,0,0,0,.6-.4Z" transform="translate(-209.953 -76.906)" fill="#263238"/>
      <path id="Path_5611" data-name="Path 5611" d="M277.147,162.761v1.676H276.3v-1.542c0-.477-.209-.693-.551-.693a.66.66,0,0,0-.648.745v1.49h-.812v-1.542c0-.477-.2-.693-.559-.693s-.641.246-.641.745v1.49H272.2v-2.928h.812v.358a1.177,1.177,0,0,1,.916-.387,1.11,1.11,0,0,1,.969.484,1.3,1.3,0,0,1,1.058-.484,1.133,1.133,0,0,1,1.192,1.282Z" transform="translate(-211.169 -76.9)" fill="#263238"/>
      <path id="Path_5612" data-name="Path 5612" d="M282.685,163.223h-2.235a.745.745,0,0,0,.835.589,1.013,1.013,0,0,0,.745-.283l.447.492a1.535,1.535,0,0,1-1.207.469,1.492,1.492,0,1,1,1.386-1.49A.326.326,0,0,1,282.685,163.223Zm-2.235-.5h1.445a.7.7,0,0,0-.745-.6.686.686,0,0,0-.693.6Z" transform="translate(-213.055 -76.908)" fill="#263238"/>
      <path id="Path_5613" data-name="Path 5613" d="M289.5,162.637c0,.976-.447,1.535-1.118,1.535a.745.745,0,0,1-.745-.477,1.036,1.036,0,0,1-.931.477,1.386,1.386,0,0,1,0-2.757,1.028,1.028,0,0,1,.834.365v-.32h.745v1.758c0,.261.112.35.261.35s.4-.291.4-.916a1.855,1.855,0,0,0-2.027-1.87,1.974,1.974,0,0,0,0,3.949,2.548,2.548,0,0,0,1.073-.238l.171.5a2.883,2.883,0,0,1-1.244.261,2.5,2.5,0,1,1,0-4.985,2.384,2.384,0,0,1,2.578,2.369Zm-1.945.156a.671.671,0,0,0-.686-.745.745.745,0,1,0,0,1.49.671.671,0,0,0,.686-.745Z" transform="translate(-214.25 -76.59)" fill="#263238"/>
      <path id="Path_5614" data-name="Path 5614" d="M297.037,162.761v1.676h-.849v-1.542c0-.477-.209-.693-.551-.693a.66.66,0,0,0-.648.745v1.49h-.849v-1.542c0-.477-.2-.693-.559-.693s-.641.246-.641.745v1.49h-.849v-2.928h.812v.358a1.177,1.177,0,0,1,.916-.387,1.11,1.11,0,0,1,.969.484,1.289,1.289,0,0,1,1.051-.484,1.132,1.132,0,0,1,1.2,1.282Z" transform="translate(-216.239 -76.9)" fill="#263238"/>
      <path id="Path_5615" data-name="Path 5615" d="M302.279,162.774v1.669h-.79v-.335a.961.961,0,0,1-.894.41c-.685,0-1.1-.38-1.1-.887s.365-.879,1.259-.879h.671c0-.358-.216-.574-.671-.574a1.371,1.371,0,0,0-.842.276l-.305-.6a2.235,2.235,0,0,1,1.259-.358C301.765,161.47,302.279,161.872,302.279,162.774Zm-.849.745v-.3h-.581c-.395,0-.522.149-.522.343s.179.358.477.358a.626.626,0,0,0,.626-.4Z" transform="translate(-218.128 -76.906)" fill="#263238"/>
      <path id="Path_5616" data-name="Path 5616" d="M304.13,160.176a.484.484,0,0,1,.529-.477.477.477,0,1,1-.529.477Zm.1.879h.842v2.928h-.842Z" transform="translate(-219.308 -76.447)" fill="#263238"/>
      <path id="Path_5617" data-name="Path 5617" d="M306.47,160h.849v4.038h-.849Z" transform="translate(-219.904 -76.524)" fill="#263238"/>
      <path id="Path_5618" data-name="Path 5618" d="M308.39,164.619a.529.529,0,1,1,.529.529A.529.529,0,0,1,308.39,164.619Z" transform="translate(-220.394 -77.566)" fill="#263238"/>
      <path id="Path_5619" data-name="Path 5619" d="M310.24,162.978a1.49,1.49,0,0,1,1.632-1.49,1.334,1.334,0,0,1,1.311.745l-.656.35a.782.782,0,1,0-.663,1.222.745.745,0,0,0,.663-.4l.656.358a1.349,1.349,0,0,1-1.311.745,1.49,1.49,0,0,1-1.632-1.527Z" transform="translate(-220.865 -76.901)" fill="#263238"/>
      <path id="Path_5620" data-name="Path 5620" d="M314.509,162.9a1.609,1.609,0,1,1,1.609,1.49,1.49,1.49,0,0,1-1.609-1.49Zm2.354,0a.745.745,0,1,0-.193.571A.745.745,0,0,0,316.863,162.9Z" transform="translate(-221.953 -76.822)" fill="#263238"/>
      <path id="Path_5621" data-name="Path 5621" d="M324.537,162.761v1.676h-.849v-1.542c0-.477-.216-.693-.559-.693a.66.66,0,0,0-.648.745v1.49h-.849v-1.542c0-.477-.2-.693-.551-.693s-.641.246-.641.745v1.49h-.849v-2.928h.8v.358a1.192,1.192,0,0,1,.924-.387,1.088,1.088,0,0,1,.961.484,1.311,1.311,0,0,1,1.058-.484,1.133,1.133,0,0,1,1.2,1.282Z" transform="translate(-223.249 -76.9)" fill="#263238"/>
      <path id="Path_5622" data-name="Path 5622" d="M259.275,189.744l1.378.745-.618,1.036-1.393-.82v1.535H257.45v-1.55l-1.349.849-.611-1.036,1.386-.745-1.386-.745.611-1.036,1.393.835V187.27h1.192v1.542l1.393-.835.618,1.036Z" transform="translate(-206.909 -83.475)" fill="#263238"/>
      <path id="Path_5623" data-name="Path 5623" d="M266.98,189.744l1.378.745-.618,1.051-1.393-.82v1.535h-1.185V190.7l-1.371.834-.611-1.036,1.378-.745-1.378-.745.611-1.036,1.393.835V187.27h1.185v1.542l1.393-.835.618,1.036Z" transform="translate(-208.869 -83.475)" fill="#263238"/>
      <path id="Path_5624" data-name="Path 5624" d="M274.7,189.744l1.378.745-.633,1.051-1.386-.82v1.535H272.87V190.7l-1.356.834-.6-1.036,1.378-.745-1.378-.745.6-1.036,1.393.835V187.27H274.1v1.542l1.386-.835.626,1.036Z" transform="translate(-210.84 -83.475)" fill="#263238"/>
      <path id="Path_5625" data-name="Path 5625" d="M282.4,189.744l1.378.745-.618,1.036-1.393-.82v1.535H280.57v-1.55l-1.349.849-.611-1.036,1.386-.745-1.386-.745.611-1.036,1.393.835V187.27h1.192v1.542l1.393-.835.618,1.036Z" transform="translate(-212.803 -83.475)" fill="#263238"/>
      <path id="Path_5626" data-name="Path 5626" d="M290.1,189.734l1.378.745-.618,1.036-1.393-.82v1.535h-1.155v-1.55l-1.386.849-.611-1.036,1.378-.745L286.32,189l.611-1.036,1.386.8V187.23H289.5v1.542l1.393-.835.618,1.036Z" transform="translate(-214.768 -83.465)" fill="#263238"/>
      <path id="Path_5627" data-name="Path 5627" d="M297.815,189.744l1.378.745-.618,1.036-1.393-.82v1.535H295.99v-1.55l-1.356.849-.6-1.036,1.378-.745-1.378-.745.6-1.036,1.393.835V187.27h1.192v1.542l1.393-.835.618,1.036Z" transform="translate(-216.733 -83.475)" fill="#263238"/>
      <path id="Path_5628" data-name="Path 5628" d="M305.515,189.744l1.378.745-.618,1.036-1.393-.82v1.535H303.69v-1.55l-1.349.849-.611-1.036,1.386-.745-1.386-.745.611-1.036,1.393.835V187.27h1.177v1.542l1.393-.835.618,1.036Z" transform="translate(-218.696 -83.475)" fill="#263238"/>
      <path id="Path_5629" data-name="Path 5629" d="M313.225,189.744l1.378.745-.618,1.036-1.393-.82v1.535h-1.185v-1.55l-1.356.849-.611-1.036,1.378-.745-1.378-.745.611-1.036,1.393.835V187.27h1.185v1.542l1.393-.835.618,1.036Z" transform="translate(-220.662 -83.475)" fill="#263238"/>
      <rect id="Rectangle_2681" data-name="Rectangle 2681" width="120.54" height="66.983" rx="6.38" transform="translate(39.566 147.352)" fill="#fff"/>
      <path id="Path_5630" data-name="Path 5630" d="M359.125,312.637a5.807,5.807,0,0,0,.931-.112,4.828,4.828,0,0,0,2.392-1.3,4.724,4.724,0,0,0,1.08-1.7,5,5,0,0,0,.268-1.14v-7.451c0-9.291-.037-22.718-.06-39.311v-9.664a7.879,7.879,0,0,0-.343-3.263,4.6,4.6,0,0,0-3.807-2.861c-.551-.037-1.162,0-1.743,0H248.1a4.56,4.56,0,0,0-3.83,2.071,4.508,4.508,0,0,0-.745,2.116c-.037.745,0,1.565,0,2.34v55.755a4.687,4.687,0,0,0,.522,1.922,4.635,4.635,0,0,0,3.085,2.317,9.373,9.373,0,0,0,2,.1H305.4l39.311.06,10.685.037h0l-10.685.037-39.311.06H249.136a9.867,9.867,0,0,1-2.079-.112,4.955,4.955,0,0,1-3.323-2.5,4.895,4.895,0,0,1-.574-2.071V250.012a4.954,4.954,0,0,1,.745-2.295,5.074,5.074,0,0,1,1.788-1.654,5.156,5.156,0,0,1,2.369-.6H359.579a4.9,4.9,0,0,1,1.714.507,4.955,4.955,0,0,1,2.347,2.548,4.732,4.732,0,0,1,.343,1.7v11.34c0,16.593-.052,30.019-.067,39.311v7.458a5.006,5.006,0,0,1-.283,1.162,4.745,4.745,0,0,1-1.11,1.721,4.806,4.806,0,0,1-2.444,1.289,4.471,4.471,0,0,1-.7.075Z" transform="translate(-203.766 -98.309)" fill="#263238"/>
      <path id="Path_5631" data-name="Path 5631" d="M298.567,276.246v.834H295.08v-4.47h3.4v.834h-2.362v.946H298.2v.812h-2.086v1.043Z" transform="translate(-217.001 -105.23)" fill="#263238"/>
      <path id="Path_5632" data-name="Path 5632" d="M305.01,272.57v4.47h-.857l-2.235-2.734v2.734H300.89v-4.47h.827l2.235,2.734V272.57Z" transform="translate(-218.482 -105.22)" fill="#263238"/>
      <path id="Path_5633" data-name="Path 5633" d="M308.615,273.419H307.17v-.849H311.1v.849h-1.445v3.651h-1.036Z" transform="translate(-220.083 -105.22)" fill="#263238"/>
      <path id="Path_5634" data-name="Path 5634" d="M316.677,276.246v.834H313.19v-4.47H316.6v.834h-2.369v.946h2.094v.812h-2.094v1.043Z" transform="translate(-221.618 -105.23)" fill="#263238"/>
      <path id="Path_5635" data-name="Path 5635" d="M321.861,277.081l-.872-1.252h-.954v1.252H319v-4.47h1.952c1.2,0,1.952.618,1.952,1.632a1.49,1.49,0,0,1-.924,1.423l1.006,1.445Zm-.976-3.651h-.849v1.565h.849c.633,0,.954-.291.954-.782S321.518,273.43,320.885,273.43Z" transform="translate(-223.099 -105.23)" fill="#263238"/>
      <path id="Path_5636" data-name="Path 5636" d="M327.4,274.792a2.481,2.481,0,0,1,4.3-1.535l-.671.618a1.49,1.49,0,0,0-1.133-.529,1.445,1.445,0,0,0,0,2.883,1.43,1.43,0,0,0,1.133-.529l.671.618a2.474,2.474,0,0,1-4.3-1.527Z" transform="translate(-225.24 -105.192)" fill="#263238"/>
      <path id="Path_5637" data-name="Path 5637" d="M333.609,274.7a2.466,2.466,0,1,1,2.459,2.332,2.325,2.325,0,0,1-2.459-2.332Zm3.867,0a1.408,1.408,0,1,0-1.408,1.438,1.378,1.378,0,0,0,1.408-1.438Z" transform="translate(-226.822 -105.1)" fill="#263238"/>
      <path id="Path_5638" data-name="Path 5638" d="M341.275,272.57H343.3a2.235,2.235,0,1,1,0,4.47H341.26Zm1.989,3.643a1.393,1.393,0,1,0,0-2.787h-.946v2.787Z" transform="translate(-228.773 -105.22)" fill="#263238"/>
      <path id="Path_5639" data-name="Path 5639" d="M351.9,276.246v.834H348.41v-4.47h3.42v.834h-2.384v.946h2.094v.812h-2.094v1.043Z" transform="translate(-230.596 -105.23)" fill="#263238"/>
      <rect id="Rectangle_2682" data-name="Rectangle 2682" width="16.831" height="22.926" rx="3.95" transform="translate(50.585 179.048)" fill="#ebebeb"/>
      <rect id="Rectangle_2683" data-name="Rectangle 2683" width="16.831" height="22.926" rx="3.95" transform="translate(71.604 179.048)" fill="#ebebeb"/>
      <rect id="Rectangle_2684" data-name="Rectangle 2684" width="16.831" height="22.926" rx="3.95" transform="translate(92.623 179.048)" fill="#ebebeb"/>
      <rect id="Rectangle_2685" data-name="Rectangle 2685" width="16.831" height="22.926" rx="3.95" transform="translate(113.634 179.048)" fill="#ebebeb"/>
      <rect id="Rectangle_2686" data-name="Rectangle 2686" width="16.831" height="22.926" rx="3.95" transform="translate(134.653 179.048)" fill="#ebebeb"/>
      <path id="Path_5640" data-name="Path 5640" d="M272.149,303.822a2.723,2.723,0,0,1-2.98,2.7c-2.354,0-3.6-1.691-3.6-4.47,0-3.025,1.617-4.59,3.979-4.59a3.934,3.934,0,0,1,2.034.462l-.268.522a3.354,3.354,0,0,0-1.766-.41c-2,0-3.323,1.319-3.323,3.919a7.7,7.7,0,0,0,.074,1.073,2.809,2.809,0,0,1,2.854-1.84C270.942,301.184,272.149,302.227,272.149,303.822Zm-.656,0c0-1.274-.916-2.109-2.429-2.109a2.235,2.235,0,0,0-2.481,2.138,2.264,2.264,0,0,0,2.556,2.094,2.123,2.123,0,0,0,2.354-2.123Z" transform="translate(-209.478 -111.563)" fill="#ed512d"/>
      <path id="Path_5641" data-name="Path 5641" d="M299.692,304.017h-1.878V306.5h-.641v-2.481h-5.1v-.469l4.858-6h.745l-4.769,5.894h4.3v-2.183h.626v2.183h1.878Z" transform="translate(-216.234 -111.588)" fill="#ed512d"/>
      <path id="Path_5642" data-name="Path 5642" d="M328.721,311.2a39.363,39.363,0,0,1-7.8,0A39.359,39.359,0,0,1,328.721,311.2Z" transform="translate(-223.588 -115.019)" fill="#ed512d"/>
      <circle id="Ellipse_505" data-name="Ellipse 505" cx="1.825" cy="1.825" r="1.825" transform="translate(45.392 152.21)" fill="#263238"/>
      <path id="Path_5643" data-name="Path 5643" d="M261.921,254.075a1.825,1.825,0,1,1-1.825-1.825A1.825,1.825,0,0,1,261.921,254.075Z" transform="translate(-207.618 -100.04)" fill="#263238"/>
      <circle id="Ellipse_506" data-name="Ellipse 506" cx="1.825" cy="1.825" r="1.825" transform="translate(55.816 152.21)" fill="#263238"/>
      <path id="Path_5644" data-name="Path 5644" d="M364.175,261.534c0,.1-26.994.194-60.277.194s-60.277-.089-60.277-.194,26.979-.194,60.277-.194S364.175,261.422,364.175,261.534Z" transform="translate(-203.883 -102.357)" fill="#263238"/>
    </g>
    <g id="Message" transform="translate(78.63 64.804)">
      <path id="Path_5645" data-name="Path 5645" d="M202.81,135.35H144.768a3.018,3.018,0,0,0-3.018,3.025v26.436a2.98,2.98,0,0,0,3.018,3.018h24.349l5.171,6.639,4.314-6.639H202.81a3.018,3.018,0,0,0,3.018-3.018V138.375a3.025,3.025,0,0,0-3.018-3.025Z" transform="translate(-141.535 -135.187)" fill="#fff"/>
      <path id="Path_5646" data-name="Path 5646" d="M202.736,135.294h.283a3.145,3.145,0,0,1,.827.186,2.98,2.98,0,0,1,1.147.745,3.025,3.025,0,0,1,.8,1.788c.06,2.876.045,7.063.067,12.368v13.71a7.178,7.178,0,0,1-.06,1.311,3.2,3.2,0,0,1-.551,1.252,3.167,3.167,0,0,1-2.407,1.3H178.491l.149-.075c-1.356,2.079-2.816,4.336-4.307,6.631l-.142.216-.164-.2-5.171-6.631.149.075H144.314a3.226,3.226,0,0,1-2.764-2.489,5.715,5.715,0,0,1-.082-1.267V138.319a3.167,3.167,0,0,1,.216-1.147,3.234,3.234,0,0,1,1.49-1.7,3.159,3.159,0,0,1,1.1-.328,11.016,11.016,0,0,1,1.1,0h28.783l20.862.06,5.67.037h0l-5.67.037-20.862.06H144.366a2.764,2.764,0,0,0-.969.3,2.839,2.839,0,0,0-1.349,1.49,2.793,2.793,0,0,0-.194,1.021v25.9a5.125,5.125,0,0,0,.067,1.185,2.839,2.839,0,0,0,2.436,2.183c.38.037.82,0,1.229,0h23.545l.06.075,5.171,6.631h-.305l4.314-6.631.052-.082h24.439a2.809,2.809,0,0,0,2.183-1.162,2.779,2.779,0,0,0,.507-1.133,7.033,7.033,0,0,0,.06-1.259v-13.71c0-5.29,0-9.477.037-12.361a2.98,2.98,0,0,0-.745-1.676,3.017,3.017,0,0,0-1.11-.782A3.725,3.725,0,0,0,202.736,135.294Z" transform="translate(-141.462 -135.131)" fill="#263238"/>
      <path id="Path_5647" data-name="Path 5647" d="M169.576,144.766v.976h-.633v-.984L167.87,143h.678l.745,1.222.745-1.222h.626Z" transform="translate(-148.194 -137.137)" fill="#263238"/>
      <path id="Path_5648" data-name="Path 5648" d="M171.579,144.3a1.49,1.49,0,1,1,1.49,1.423,1.423,1.423,0,0,1-1.49-1.423Zm2.369,0a.864.864,0,1,0-.864.872.842.842,0,0,0,.864-.872Z" transform="translate(-149.139 -137.071)" fill="#263238"/>
      <path id="Path_5649" data-name="Path 5649" d="M176.25,144.527V143h.641v1.49c0,.522.231.745.611.745s.618-.216.618-.745V143h.633v1.542a1.252,1.252,0,0,1-2.5,0Z" transform="translate(-150.33 -137.137)" fill="#263238"/>
      <path id="Path_5650" data-name="Path 5650" d="M182.218,145.742l-.529-.745H181.1v.745h-.641V143h1.192c.745,0,1.2.38,1.2,1a.894.894,0,0,1-.566.872l.618.887Zm-.6-2.235H181.1v.984h.522c.387,0,.581-.186.581-.484s-.194-.507-.6-.507Z" transform="translate(-151.403 -137.137)" fill="#263238"/>
      <path id="Path_5651" data-name="Path 5651" d="M185.62,144.324a1.49,1.49,0,0,1,2.638-.939l-.41.38a.879.879,0,1,0,0,1.118l.41.373a1.49,1.49,0,0,1-2.638-.931Z" transform="translate(-152.718 -137.098)" fill="#263238"/>
      <path id="Path_5652" data-name="Path 5652" d="M189.429,144.3a1.49,1.49,0,1,1,1.49,1.423,1.423,1.423,0,0,1-1.49-1.423Zm2.369,0a.864.864,0,1,0-.864.879.842.842,0,0,0,.864-.879Z" transform="translate(-153.689 -137.071)" fill="#263238"/>
      <path id="Path_5653" data-name="Path 5653" d="M194.13,143h1.259a1.386,1.386,0,1,1,0,2.757H194.13Zm1.222,2.235a.857.857,0,1,0,0-1.714h-.574v1.714Z" transform="translate(-154.888 -137.135)" fill="#263238"/>
      <path id="Path_5654" data-name="Path 5654" d="M200.648,145.235v.514H198.51V143H200.6v.507h-1.453v.6h1.282v.5h-1.282v.626Z" transform="translate(-156.004 -137.137)" fill="#263238"/>
      <rect id="Rectangle_2687" data-name="Rectangle 2687" width="51.999" height="15.155" rx="3.55" transform="translate(6.25 11.51)" fill="#f5f5f5"/>
      <path id="Path_5655" data-name="Path 5655" d="M162.157,160.217a2.235,2.235,0,0,1-2.444,2.235c-1.922,0-2.943-1.386-2.943-3.681,0-2.489,1.319-3.763,3.264-3.763a3.263,3.263,0,0,1,1.661.373l-.216.432a2.749,2.749,0,0,0-1.445-.335c-1.647,0-2.727,1.08-2.727,3.211a5.83,5.83,0,0,0,.06.879,2.3,2.3,0,0,1,2.34-1.49A2.116,2.116,0,0,1,162.157,160.217Zm-.536,0c0-1.051-.745-1.729-1.989-1.729a1.848,1.848,0,0,0-2.034,1.751,1.879,1.879,0,0,0,2.1,1.721,1.736,1.736,0,0,0,1.952-1.743Z" transform="translate(-145.364 -140.198)" fill="#ed512d"/>
      <path id="Path_5656" data-name="Path 5656" d="M174.974,160.345h-1.535v2.034h-.529v-2.034h-4.18v-.387l3.986-4.918h.6l-3.912,4.828h3.524V158.08h.514v1.788h1.535Z" transform="translate(-148.413 -140.206)" fill="#ed512d"/>
      <path id="Path_5657" data-name="Path 5657" d="M186.286,160.3c0,1.222-.879,2.124-2.571,2.124a3.517,3.517,0,0,1-2.585-.991l.268-.41a3.137,3.137,0,0,0,2.317.9c1.319,0,2.027-.626,2.027-1.624s-.671-1.624-2.138-1.624h-.462v-.387l2.168-2.779H181.4V155H186v.373l-2.235,2.824C185.5,158.263,186.286,159.105,186.286,160.3Z" transform="translate(-151.574 -140.196)" fill="#ed512d"/>
      <path id="Path_5658" data-name="Path 5658" d="M198.2,155v.373l-3.152,6.967h-.589l3.122-6.862h-4.12v1.408h-.522V155Z" transform="translate(-154.584 -140.196)" fill="#ed512d"/>
      <path id="Path_5659" data-name="Path 5659" d="M205,158.725c0-2.295,1.185-3.725,2.869-3.725s2.876,1.423,2.876,3.725-1.185,3.725-2.876,3.725S205,160.961,205,158.725Zm5.216,0c0-2.042-.954-3.226-2.34-3.226s-2.34,1.185-2.34,3.226.954,3.226,2.34,3.226S210.216,160.737,210.216,158.725Z" transform="translate(-157.659 -140.196)" fill="#ed512d"/>
    </g>
    <g id="Plant" transform="translate(231.818 183.383)">
      <path id="Path_5660" data-name="Path 5660" d="M419.4,409.9c9.753-4.143,21.049-12.286,26.078-22.278A55.6,55.6,0,0,0,419.4,409.9" transform="translate(-365.501 -318.327)" fill="#263238"/>
      <path id="Path_5661" data-name="Path 5661" d="M422.19,389.091c9.753-4.135,21.049-12.279,26.078-22.271a55.517,55.517,0,0,0-26.078,22.271" transform="translate(-366.212 -313.025)" fill="#263238"/>
      <path id="Path_5662" data-name="Path 5662" d="M426,368.861c9.761-4.143,21.049-12.286,26.078-22.271A55.538,55.538,0,0,0,426,368.861" transform="translate(-367.183 -307.868)" fill="#263238"/>
      <path id="Path_5663" data-name="Path 5663" d="M430.72,346.511c9.2-5.439,19.462-15.125,23.306-25.691a57.372,57.372,0,0,0-23.284,25.691" transform="translate(-368.386 -301.299)" fill="#263238"/>
      <path id="Path_5664" data-name="Path 5664" d="M435.8,327.754c6.706-8.77,12.957-21.823,12.875-33.134A61.618,61.618,0,0,0,435.8,327.754" transform="translate(-369.681 -294.62)" fill="#263238"/>
      <path id="Path_5665" data-name="Path 5665" d="M428.559,334.6c-1.356-11.862-5.961-26.771-13.8-35.667a72.474,72.474,0,0,0,13.8,35.667" transform="translate(-364.318 -295.719)" fill="#263238"/>
      <path id="Path_5666" data-name="Path 5666" d="M423.126,351.918c-2.384-12.227-8.419-27.352-17.316-35.928a75.253,75.253,0,0,0,17.316,35.928" transform="translate(-362.036 -300.068)" fill="#263238"/>
      <path id="Path_5667" data-name="Path 5667" d="M418.279,373.148C415.9,360.9,409.852,345.8,401,337.22a75.253,75.253,0,0,0,17.316,35.928" transform="translate(-360.81 -305.479)" fill="#263238"/>
      <path id="Path_5668" data-name="Path 5668" d="M414.366,399.218c-2.392-12.227-8.427-27.352-17.316-35.928a75.253,75.253,0,0,0,17.316,35.928" transform="translate(-359.803 -312.125)" fill="#263238"/>
      <path id="Path_5669" data-name="Path 5669" d="M431.607,336a.535.535,0,0,0-.075.186c-.052.142-.112.32-.186.544-.164.514-.395,1.222-.678,2.116-.589,1.84-1.378,4.515-2.31,7.838s-1.96,7.294-3.018,11.728-2.1,9.343-3.085,14.514-1.751,10.133-2.4,14.648-1.11,8.6-1.445,12.026-.574,6.214-.693,8.144c-.06.939-.1,1.676-.142,2.235v.581a.641.641,0,0,0,0,.194.611.611,0,0,0,.037-.194,2.164,2.164,0,0,1,.06-.574c.052-.536.127-1.274.216-2.235.164-1.915.44-4.694.812-8.121s.887-7.5,1.527-12,1.49-9.455,2.429-14.626,2.027-10.066,3.047-14.507,2.034-8.412,2.936-11.743,1.647-6.013,2.191-7.861l.611-2.138c.06-.224.1-.41.149-.559A.744.744,0,0,0,431.607,336Z" transform="translate(-365.034 -305.168)" fill="#263238"/>
      <g id="Group_56497" data-name="Group 56497" transform="translate(66.119 33.134)" opacity="0.5">
        <path id="Path_5670" data-name="Path 5670" d="M435.8,339.09" transform="translate(-435.8 -339.09)"/>
      </g>
      <path id="Path_5671" data-name="Path 5671" d="M412.861,415.8c4.135-8.658,7.145-20.862,5.119-30.347a53.818,53.818,0,0,0-5.119,30.347" transform="translate(-363.73 -317.774)" fill="#455a64"/>
      <path id="Path_5672" data-name="Path 5672" d="M403.65,400.747c4.135-8.665,7.145-20.862,5.111-30.347a53.743,53.743,0,0,0-5.111,30.347" transform="translate(-361.381 -313.938)" fill="#455a64"/>
      <path id="Path_5673" data-name="Path 5673" d="M395.37,385.437c4.135-8.665,7.145-20.862,5.111-30.347a53.742,53.742,0,0,0-5.111,30.347" transform="translate(-359.271 -310.035)" fill="#455a64"/>
      <path id="Path_5674" data-name="Path 5674" d="M386.817,368.769c3.077-9.165,4.62-21.667,1.49-30.809a54.175,54.175,0,0,0-1.49,30.809" transform="translate(-356.798 -305.668)" fill="#455a64"/>
      <path id="Path_5675" data-name="Path 5675" d="M378.842,355.807c-.305-9.753-3.174-21.973-9.232-29.178a52.9,52.9,0,0,0,9.232,29.178" transform="translate(-352.808 -302.78)" fill="#455a64"/>
      <path id="Path_5676" data-name="Path 5676" d="M374.948,367.363c-7.175-6.765-18.083-13.493-27.888-14.373a54.011,54.011,0,0,0,27.888,14.373" transform="translate(-347.06 -309.499)" fill="#455a64"/>
      <path id="Path_5677" data-name="Path 5677" d="M380.627,381.826c-8.039-6.378-19.991-12.353-30.318-12.376a56.314,56.314,0,0,0,30.318,12.376" transform="translate(-347.888 -313.695)" fill="#455a64"/>
      <path id="Path_5678" data-name="Path 5678" d="M388.73,398.436c-8.039-6.37-19.983-12.353-30.31-12.376a56.314,56.314,0,0,0,30.31,12.376" transform="translate(-349.956 -317.93)" fill="#455a64"/>
      <path id="Path_5679" data-name="Path 5679" d="M400.037,417.553C392,411.175,380.047,405.2,369.72,405.17a56.269,56.269,0,0,0,30.317,12.383" transform="translate(-352.836 -322.801)" fill="#455a64"/>
      <path id="Path_5680" data-name="Path 5680" d="M380.78,363.42a.455.455,0,0,0,.045.156l.164.462.671,1.751c.589,1.49,1.49,3.725,2.63,6.393,2.295,5.357,5.7,12.666,9.925,20.52,2.116,3.912,4.24,7.592,6.221,10.893s3.867,6.236,5.484,8.665,2.98,4.374,3.9,5.7l1.1,1.49.291.387c.067.089.1.134.112.127a1.3,1.3,0,0,0-.082-.149l-.261-.41c-.261-.38-.6-.9-1.043-1.557-.924-1.349-2.235-3.316-3.807-5.759s-3.427-5.394-5.409-8.7-4.076-6.989-6.192-10.9c-4.225-7.779-7.63-15.081-10.007-20.445-1.177-2.667-2.109-4.836-2.734-6.341l-.745-1.729-.2-.447a.685.685,0,0,0-.067-.112Z" transform="translate(-355.656 -312.158)" fill="#263238"/>
      <path id="Path_5681" data-name="Path 5681" d="M350.65,379.56h41.1v7.92h-4.225l-3.554,22.591H358.563L354.9,387.48H350.65Z" transform="translate(-321.204 -280.486)" fill="#f07824"/>
      <path id="Path_5682" data-name="Path 5682" d="M386.58,437.934c0-.1,9.135-.194,20.4-.194s20.4.089,20.4.194-9.127.186-20.4.186S386.58,438.038,386.58,437.934Z" transform="translate(-357.134 -331.104)" fill="#263238"/>
    </g>
    <g id="Character" transform="translate(5.871 50.029)">
      <path id="Path_5683" data-name="Path 5683" d="M31.552,410.257H24.884L22.41,380.23h7.853Z" transform="translate(-11.584 -147.302)" fill="#263238"/>
      <path id="Path_5684" data-name="Path 5684" d="M112.27,410.257h6.676l2.474-30.027h-7.861Z" transform="translate(-34.491 -147.302)" fill="#263238"/>
      <path id="Path_5685" data-name="Path 5685" d="M136.358,411.664l-85.863,2.012-2.608-55.457a9.515,9.515,0,0,1,9.507-9.969h73.16a9.522,9.522,0,0,1,9.5,10.178Z" transform="translate(-44.846 -174.936)" fill="#f07824"/>
      <path id="Path_5686" data-name="Path 5686" d="M140.765,361.3h-.946l-2.7.045h-9.954c-8.4,0-20.013-.075-32.828.223-12.823.425-24.446.35-32.843.224-4.2-.067-7.607-.149-9.954-.224l-2.7-.089h-.7a.936.936,0,0,1-.238,0h3.643l9.954.1c8.4.06,20.013.089,32.836-.343,12.823-.291,24.431-.156,32.836-.1l9.954.082,2.7.037h.708Z" transform="translate(-44.85 -178.199)" fill="#263238"/>
      <path id="Path_5687" data-name="Path 5687" d="M86.43,349.392a19.87,19.87,0,0,0-5.573,1.676A19.6,19.6,0,0,0,76.23,354.6a5.141,5.141,0,0,1,1.065-1.386,12.882,12.882,0,0,1,7.391-3.77,4.976,4.976,0,0,1,1.743-.052Z" transform="translate(-52.074 -175.214)" fill="#263238"/>
      <path id="Path_5688" data-name="Path 5688" d="M133.027,214.08l10.491,19.171,15.349-8.6,7.451,2.466s-18.806,20.43-21.868,21.5-8.859,1.237-12.167-2.913c-2.98-3.778-11.8-23.6-11.8-23.6Z" transform="translate(-63.354 -140.734)" fill="#ffbe9d"/>
      <path id="Path_5689" data-name="Path 5689" d="M186.691,197.123a1.244,1.244,0,0,0-1.133-.447l-7.294.984a2.235,2.235,0,0,0-1.557,1.013L161.5,222.031l1.162.648,8.092-.253,16.168-25.012Z" transform="translate(-73.811 -136.295)" fill="#263238"/>
      <path id="Path_5690" data-name="Path 5690" d="M188.326,201.076a.522.522,0,1,0,.052-.626A.462.462,0,0,0,188.326,201.076Z" transform="translate(-80.625 -137.216)" fill="#fff"/>
      <path id="Path_5691" data-name="Path 5691" d="M187.4,197.67a8.941,8.941,0,0,1-1.416.276l-3.874.6-2.675.387a1.527,1.527,0,0,0-1.133.671l-.864,1.341c-1.2,1.84-2.5,3.86-3.874,5.961-2.764,4.232-5.283,8.054-7.13,10.811l-2.2,3.293a9.463,9.463,0,0,1-.857,1.162,8.01,8.01,0,0,1,.745-1.252l2.086-3.323c1.781-2.8,4.254-6.646,7.019-10.878,1.386-2.109,2.7-4.12,3.9-5.961.305-.454.6-.9.887-1.341a1.893,1.893,0,0,1,1.393-.8l2.69-.343,3.9-.462a8.9,8.9,0,0,1,1.4-.142Z" transform="translate(-74.29 -136.551)" fill="#455a64"/>
      <path id="Path_5692" data-name="Path 5692" d="M179.7,208.837s-.648-.112-1.006,1.669-1.49,6.892-1.49,6.892l-3.412-1.811-4.277.559s-.931.857-.246,1.326a15,15,0,0,0,3.383.946l1.989,2.869-5.715-2.757s-1.907.5-1.349,1.661S171.99,225,171.99,225l-2.861-.216-3.383-2.071s-1.043.052-.656.939,3.934,4.105,3.934,4.105l4.292,2.086s2.347-.186,2.571-.879a8.2,8.2,0,0,0,.283-1.669s1.244-.335,1.49-.939a3.726,3.726,0,0,0,.082-1.557s1.952.343,2.2-.745a12.353,12.353,0,0,0-.164-4.068c-.194-.842.834-8.628.745-8.859S180.931,208.323,179.7,208.837Z" transform="translate(-74.704 -139.38)" fill="#ffbe9d"/>
      <path id="Path_5693" data-name="Path 5693" d="M177.235,235.287a2.437,2.437,0,0,1-1.118.343,7.548,7.548,0,0,1-5.417-1.289c-.589-.425-.879-.745-.842-.812a12.942,12.942,0,0,0,3.524,1.55A17.493,17.493,0,0,0,177.235,235.287Z" transform="translate(-75.941 -145.691)" fill="#eb996e"/>
      <path id="Path_5694" data-name="Path 5694" d="M177.4,233c-.067.1-.834-.3-1.647-.969s-1.349-1.334-1.267-1.416.745.425,1.55,1.08S177.468,232.9,177.4,233Z" transform="translate(-77.12 -144.948)" fill="#eb996e"/>
      <path id="Path_5695" data-name="Path 5695" d="M180.5,228c-.067.1-.827-.291-1.587-1s-1.207-1.423-1.118-1.49.685.5,1.416,1.177S180.568,227.892,180.5,228Z" transform="translate(-77.962 -143.646)" fill="#eb996e"/>
      <path id="Path_5696" data-name="Path 5696" d="M183.764,223.725c-.119.052-.551-.745-1.229-1.632s-1.341-1.49-1.267-1.609.894.4,1.609,1.341a3.368,3.368,0,0,1,.887,1.9Z" transform="translate(-78.849 -142.363)" fill="#eb996e"/>
      <path id="Path_5697" data-name="Path 5697" d="M187.7,409.023a1.49,1.49,0,0,0,0-.708,4.708,4.708,0,0,0-.745-1.8,2.867,2.867,0,0,0-.425-.514.8.8,0,0,0-.8-.179.566.566,0,0,0-.35.35.745.745,0,0,0,0,.484,4.939,4.939,0,0,0,.373.745c.276.469.507.931.864,1.49a1.006,1.006,0,0,0,.946.425,2.132,2.132,0,0,0,.916-.4,7.948,7.948,0,0,0,1.341-1.244,7.841,7.841,0,0,0,.536-.693,2.309,2.309,0,0,0,.395-.79.745.745,0,0,0-.4-.864.9.9,0,0,0-.857.194,5.215,5.215,0,0,0-.894,1.013,6.855,6.855,0,0,0-.887,1.714,1.655,1.655,0,0,0-.149.685,13.6,13.6,0,0,1,1.274-2.235,5.5,5.5,0,0,1,.864-.909c.171-.119.38-.2.507-.134a.373.373,0,0,1,.164.44,2.043,2.043,0,0,1-.35.641c-.156.224-.328.44-.507.656a8.4,8.4,0,0,1-1.282,1.17,1.7,1.7,0,0,1-.745.328.6.6,0,0,1-.574-.268c-.291-.425-.574-.954-.849-1.393-.127-.231-.283-.454-.358-.641a.3.3,0,0,1,.112-.395c.32-.127.641.238.857.544A6.705,6.705,0,0,1,187.7,409.023Z" transform="translate(-79.887 -189.477)" fill="#263238"/>
      <path id="Path_5698" data-name="Path 5698" d="M119.878,359.2l-9.09,19.7-14.678-6.78,9.41-24.387Z" transform="translate(-30.371 -139.018)" fill="#ffbe9d"/>
      <path id="Path_5699" data-name="Path 5699" d="M145.463,432.978l-5.312,10.133s13.6,14.06,12.324,17.2L120.51,444.988l8.777-20.318Z" transform="translate(-63.362 -194.417)" fill="#455a64"/>
      <path id="Path_5700" data-name="Path 5700" d="M133.978,441.195a1.49,1.49,0,0,0-1.617,1.058,1.386,1.386,0,0,0,1.036,1.609,1.527,1.527,0,0,0,1.706-1.125,1.446,1.446,0,0,0-1.267-1.557" transform="translate(-66.377 -198.626)" fill="#e0e0e0"/>
      <g id="Group_56498" data-name="Group 56498" transform="translate(57.178 248.023)" opacity="0.6">
        <path id="Path_5701" data-name="Path 5701" d="M120.55,451.068l1.326-2.548,30.154,15.647s1.125,1.3.484,2.235Z" transform="translate(-120.55 -448.52)" fill="#fff"/>
      </g>
      <path id="Path_5702" data-name="Path 5702" d="M146.424,449.319c-.075.156-.894-.149-1.9,0s-1.736.6-1.848.462.551-.916,1.773-1.058S146.528,449.192,146.424,449.319Z" transform="translate(-69.009 -200.543)" fill="#263238"/>
      <path id="Path_5703" data-name="Path 5703" d="M150.221,453.46c0,.171-.842.112-1.684.514s-1.334,1.036-1.49.954.171-1.013,1.237-1.49S150.288,453.311,150.221,453.46Z" transform="translate(-70.118 -201.689)" fill="#263238"/>
      <path id="Path_5704" data-name="Path 5704" d="M151.271,459.42c-.156,0,0-.916.812-1.58s1.706-.656,1.706-.492-.663.4-1.326.954S151.435,459.479,151.271,459.42Z" transform="translate(-71.19 -202.724)" fill="#263238"/>
      <path id="Path_5705" data-name="Path 5705" d="M148.595,443.743c-.134.112-.745-.447-1.654-.812s-1.736-.417-1.751-.589.909-.41,1.974,0S148.729,443.654,148.595,443.743Z" transform="translate(-69.653 -198.864)" fill="#263238"/>
      <path id="Path_5706" data-name="Path 5706" d="M131.554,399.077l23.969-59.972s-.544-10.237-2.429-13.464-58.973-22.084-58.973-22.084-14.537-3.5-24.238,0S52.918,319.2,54.237,325.91s7.026,11.675,7.026,11.675l41.985,1.252,22.882,8.345-15.408,44.161Z" transform="translate(-46.429 -163.147)" fill="#263238"/>
      <path id="Path_5707" data-name="Path 5707" d="M144.6,327.911l.544,21.7L128.985,350,126.66,323.97Z" transform="translate(-38.159 -132.961)" fill="#ffbe9d"/>
      <path id="Path_5708" data-name="Path 5708" d="M182.46,403.693l-.3,11.437s18.4,6.609,18.627,10l-35.444.358-1.1-22.107Z" transform="translate(-74.512 -188.99)" fill="#455a64"/>
      <path id="Path_5709" data-name="Path 5709" d="M173.214,417.227a1.445,1.445,0,0,0-.984,1.662,1.393,1.393,0,0,0,1.639.991,1.527,1.527,0,0,0,1.028-1.766,1.438,1.438,0,0,0-1.818-.842" transform="translate(-76.539 -192.511)" fill="#e0e0e0"/>
      <g id="Group_56499" data-name="Group 56499" transform="translate(90.856 233.621)" opacity="0.6">
        <path id="Path_5710" data-name="Path 5710" d="M165.75,432.066l.067-2.876,33.961.745s1.58.671,1.416,1.788Z" transform="translate(-165.75 -429.19)" fill="#fff"/>
      </g>
      <path id="Path_5711" data-name="Path 5711" d="M187.962,418.849c0,.171-.872.261-1.714.827s-1.3,1.3-1.453,1.229.089-1.073,1.125-1.736S188,418.692,187.962,418.849Z" transform="translate(-79.738 -192.895)" fill="#263238"/>
      <path id="Path_5712" data-name="Path 5712" d="M193.274,420.885c.045.171-.708.469-1.289,1.207s-.745,1.49-.909,1.49-.3-.984.447-1.893S193.267,420.722,193.274,420.885Z" transform="translate(-81.318 -193.434)" fill="#263238"/>
      <path id="Path_5713" data-name="Path 5713" d="M196.925,425.833c-.156.037-.4-.827,0-1.781s1.244-1.334,1.319-1.192-.425.656-.745,1.438S197.067,425.811,196.925,425.833Z" transform="translate(-82.786 -193.949)" fill="#263238"/>
      <path id="Path_5714" data-name="Path 5714" d="M187.32,413.092c-.067.156-.864-.074-1.84,0s-1.736.395-1.833.246.633-.745,1.788-.842S187.41,412.951,187.32,413.092Z" transform="translate(-79.455 -191.311)" fill="#263238"/>
      <path id="Path_5715" data-name="Path 5715" d="M157.142,296.392s9.686-.745,10.759,9.731,2.131,59.517,2.131,59.517l-22.576,1.885-3.5-50.092L107.87,302.084S150.683,295.051,157.142,296.392Z" transform="translate(-60.14 -161.674)" fill="#263238"/>
      <path id="Path_5716" data-name="Path 5716" d="M102.274,277.43s5.871,16.474,4.754,18.307-16.22,9.388-16.22,9.388L53,319.646A31.659,31.659,0,0,1,49.12,304c0-9.47,13.151-26.555,13.151-26.555Z" transform="translate(-45.164 -156.883)" fill="#263238"/>
      <path id="Path_5717" data-name="Path 5717" d="M105.42,303a.977.977,0,0,0,.179.1l.536.246,2.094.931,7.861,3.427,27.128,11.675-.127-.171c.343,4.947.745,10.29,1.1,15.818.924,12.927,1.773,24.841,2.444,34.274v.171h.171l16.481-1.445,4.538-.425,1.185-.119.4-.06a2.444,2.444,0,0,0-.41,0l-1.185.075-4.545.335-16.5,1.3.186.156c-.648-9.425-1.49-21.347-2.354-34.274-.387-5.529-.745-10.871-1.118-15.818v-.119l-.112-.052-27.188-11.549-7.905-3.308-2.116-.872-.551-.216A1.348,1.348,0,0,0,105.42,303Z" transform="translate(-59.515 -163.401)" fill="#455a64"/>
      <path id="Path_5718" data-name="Path 5718" d="M65.07,303.671a5.217,5.217,0,0,0,1.065-.283l2.846-.924a62.816,62.816,0,0,1,9.522-2.407,28.053,28.053,0,0,1,9.753.127c2.459.514,3.874,1.214,3.9,1.133a4.382,4.382,0,0,0-.984-.5,17.622,17.622,0,0,0-2.854-.924,26.347,26.347,0,0,0-9.895-.253,53.588,53.588,0,0,0-9.559,2.541c-1.192.425-2.146.79-2.809,1.051a6.583,6.583,0,0,0-.991.44Z" transform="translate(-49.23 -162.456)" fill="#455a64"/>
      <path id="Path_5719" data-name="Path 5719" d="M72.24,293.413a27.181,27.181,0,0,1,3.308,0c1.021.067,2.235.223,3.576.38s2.824.343,4.359.633a20.118,20.118,0,0,1,7.406,2.749,24.117,24.117,0,0,1,2.571,2.064,3.085,3.085,0,0,0-.551-.708,11.4,11.4,0,0,0-1.855-1.609,18.992,18.992,0,0,0-7.5-2.913c-1.55-.291-3.04-.462-4.389-.6s-2.571-.261-3.606-.291a14.114,14.114,0,0,0-2.444.1A3.152,3.152,0,0,0,72.24,293.413Z" transform="translate(-51.057 -160.878)" fill="#455a64"/>
      <path id="Path_5720" data-name="Path 5720" d="M87.338,115.819c-4.344-.745-8.2.931-11.839,3.383a22.427,22.427,0,0,0-8.822,23.94,17.256,17.256,0,0,0,8.494,10.565c5.655,2.869,12.89,1.87,17.957-1.96a21.83,21.83,0,0,0,8.2-16.5,21.026,21.026,0,0,0-3.293-12.465,15.96,15.96,0,0,0-10.67-6.967" transform="translate(-49.458 -115.64)" fill="#263238"/>
      <path id="Path_5721" data-name="Path 5721" d="M77.85,130.693c.641-1.669.387-3.524.641-5.29.559-3.882,3.725-7,7.3-8.509,3.368-1.408,7.451-1.1,11.534.209a15.483,15.483,0,0,1,7.25,4.724,12.167,12.167,0,0,1,2.235,10.953l-19.864-2.891a22.289,22.289,0,0,1-6.028,3.964,4.135,4.135,0,0,1-2.071.328,1.848,1.848,0,0,1-1.542-1.274A3.941,3.941,0,0,1,77.85,130.693Z" transform="translate(-52.338 -115.724)" fill="#263238"/>
      <path id="Path_5722" data-name="Path 5722" d="M97.791,124.845l-17.346,3.681a3.241,3.241,0,0,0-3.025,3.137l.209,37.545a11.705,11.705,0,0,0,2.444,7.078l1.654,2.131a8.565,8.565,0,0,0,14.3-1.065,4.083,4.083,0,0,0,.4-.984c.052-.335.142-.559.156-.842l.335-3.666c.164-3.338.194-6.706.194-6.706s7.1-.894,8.941-10.044c.9-4.545.961-12.063.812-18.21C106.709,131.395,103.319,124.48,97.791,124.845Z" transform="translate(-52.378 -117.983)" fill="#ffbe9d"/>
      <path id="Path_5723" data-name="Path 5723" d="M112.562,150.147a1.177,1.177,0,0,1-1.185,1.14,1.125,1.125,0,0,1-1.177-1.11,1.192,1.192,0,0,1,1.185-1.147,1.133,1.133,0,0,1,1.177,1.118Z" transform="translate(-60.734 -124.152)" fill="#263238"/>
      <path id="Path_5724" data-name="Path 5724" d="M112.928,145.765c-.156.149-1.021-.544-2.295-.589s-2.235.551-2.354.387.089-.343.507-.618a3.219,3.219,0,0,1,1.9-.507,3.092,3.092,0,0,1,1.811.663C112.876,145.422,113,145.705,112.928,145.765Z" transform="translate(-60.236 -122.981)" fill="#263238"/>
      <path id="Path_5725" data-name="Path 5725" d="M97.284,149.76a1.177,1.177,0,0,1-1.185,1.147,1.125,1.125,0,0,1-1.17-1.11,1.177,1.177,0,0,1,1.177-1.147,1.133,1.133,0,0,1,1.177,1.11Z" transform="translate(-56.841 -124.055)" fill="#263238"/>
      <path id="Path_5726" data-name="Path 5726" d="M96.738,145.353c-.156.149-1.021-.551-2.295-.6s-2.235.551-2.354.395.089-.343.514-.626a3.286,3.286,0,0,1,1.893-.507,3.144,3.144,0,0,1,1.818.671C96.686,145,96.812,145.286,96.738,145.353Z" transform="translate(-56.109 -122.874)" fill="#263238"/>
      <path id="Path_5727" data-name="Path 5727" d="M103.386,155.142a9.284,9.284,0,0,1,2.079-.291c.328,0,.633-.075.7-.291a1.684,1.684,0,0,0-.179-.969c-.276-.8-.566-1.632-.864-2.511a42.693,42.693,0,0,1-1.907-6.542,42.427,42.427,0,0,1,2.429,6.378c.283.879.559,1.714.82,2.518a1.855,1.855,0,0,1,.119,1.282.834.834,0,0,1-.551.454,2.533,2.533,0,0,1-.551.052A7.92,7.92,0,0,1,103.386,155.142Z" transform="translate(-58.949 -123.007)" fill="#263238"/>
      <path id="Path_5728" data-name="Path 5728" d="M99.677,177.713a23.388,23.388,0,0,1-12.2-3.763s2.846,6.49,12.093,5.961Z" transform="translate(-54.942 -130.505)" fill="#eb996e"/>
      <path id="Path_5729" data-name="Path 5729" d="M101.26,162.531a2.28,2.28,0,0,0-2.019-.924,2.086,2.086,0,0,0-1.49.745,1.326,1.326,0,0,0-.164,1.49,1.542,1.542,0,0,0,1.647.484,4.716,4.716,0,0,0,1.662-.909,1.341,1.341,0,0,0,.38-.358.432.432,0,0,0,0-.477" transform="translate(-57.479 -127.356)" fill="#eb996e"/>
      <path id="Path_5730" data-name="Path 5730" d="M98.307,159.76c.209,0,.156,1.371,1.3,2.4s2.615.931,2.623,1.125c0,.082-.343.253-.961.246a3.435,3.435,0,0,1-2.191-.864,2.98,2.98,0,0,1-1-1.982C98.017,160.08,98.21,159.745,98.307,159.76Z" transform="translate(-57.64 -126.887)" fill="#263238"/>
      <path id="Path_5731" data-name="Path 5731" d="M96.251,140.39c-.134.343-1.4.127-2.9.246s-2.712.484-2.9.164c-.082-.149.134-.469.633-.782a4.813,4.813,0,0,1,2.176-.663,4.754,4.754,0,0,1,2.235.35C96.072,139.943,96.311,140.226,96.251,140.39Z" transform="translate(-55.696 -121.681)" fill="#263238"/>
      <path id="Path_5732" data-name="Path 5732" d="M112.843,138.269c-.231.283-1.1-.052-2.146-.112s-1.952.119-2.146-.186c-.089-.149.067-.432.462-.693a3.143,3.143,0,0,1,3.465.238C112.836,137.83,112.948,138.135,112.843,138.269Z" transform="translate(-60.307 -121.051)" fill="#263238"/>
      <path id="Path_5733" data-name="Path 5733" d="M73.39,128.023c1.8-5.283,9.686-12.48,15.215-11.981l8.792,5.506a8.568,8.568,0,0,1-5.961,6.445c-1.587.447-3.48.544-4.471,1.878s-.462,3.383-1.378,4.783c-1.274,1.952-4.634,1.788-5.6,3.9-.417.924-.231,2.042-.671,2.98-.581,1.222-3.725,2.72-5.014,2.287s-1.244-2.63-1.639-3.792a6.035,6.035,0,0,1-.1-4.083C73.2,133.335,72.533,130.541,73.39,128.023Z" transform="translate(-51.06 -115.736)" fill="#263238"/>
      <path id="Path_5734" data-name="Path 5734" d="M77.843,153.981c0-.685-.745-2.332-1.378-2.466-1.8-.35-5.059-.328-5.268,4.262-.283,6.274,6.072,5.26,6.095,5.081S77.754,156.35,77.843,153.981Z" transform="translate(-50.789 -124.752)" fill="#ffbe9d"/>
      <path id="Path_5735" data-name="Path 5735" d="M76.077,159.086a2.15,2.15,0,0,1-.305.142,1.088,1.088,0,0,1-.812,0,2.721,2.721,0,0,1-1.147-2.481,3.725,3.725,0,0,1,.38-1.557,1.267,1.267,0,0,1,.864-.8.544.544,0,0,1,.626.328c.075.179,0,.305.067.313s.134-.1.1-.358a.656.656,0,0,0-.224-.4.82.82,0,0,0-.6-.194,1.55,1.55,0,0,0-1.185.924,3.726,3.726,0,0,0-.455,1.729,2.854,2.854,0,0,0,1.49,2.787,1.185,1.185,0,0,0,1.006-.119A1.112,1.112,0,0,0,76.077,159.086Z" transform="translate(-51.348 -125.438)" fill="#eb996e"/>
      <path id="Path_5736" data-name="Path 5736" d="M67.6,128.685h0c0-1.967-2.429-3.249-4.344-3.725a8.2,8.2,0,0,0-5.655,1.08,3.985,3.985,0,0,0-2.235,2.466c-.216,1.125.857,2.466,1.93,2.064a3.725,3.725,0,1,0,3.6,6.356,8.3,8.3,0,0,1-3.263,4.471A9.321,9.321,0,0,0,67.6,128.685Z" transform="translate(-46.592 -117.986)" fill="#263238"/>
      <path id="Path_5737" data-name="Path 5737" d="M66.056,139.3a5.588,5.588,0,0,1-.238-1.885,13.814,13.814,0,0,1,2.891-8.568,5.379,5.379,0,0,1,1.326-1.356,17.146,17.146,0,0,0-3.979,11.81Z" transform="translate(-49.419 -118.661)" fill="#ff725e"/>
      <path id="Path_5738" data-name="Path 5738" d="M103.54,120.876c.574,2.556,4.47,5.827,6.162,7.816,3.249,3.792,3.889,5.052,3.86,13.538,1.535-2.928,2.712-5.8,2.593-9.1a13.7,13.7,0,0,0-3.636-9,10.64,10.64,0,0,0-8.941-3.249" transform="translate(-59.036 -116.957)" fill="#263238"/>
      <path id="Path_5739" data-name="Path 5739" d="M114.921,206.785s-6.765-11.273-8.643-13.553a15.043,15.043,0,0,0-5.536-4.061,11.608,11.608,0,0,0-2.63-.782l-9.731-2.153s0,6.639-6.967,7.048S68.606,184,68.606,184s-11.243,1.743-13.926,3.129-6.914,3.137-9.239,14.753L43.81,213.267l19.372,1.788,1.855,28.79,9.6,6.706s26.637,6.922,28.313,7.376,2.235-42.857,2.235-42.857S112.089,210.667,114.921,206.785Z" transform="translate(-43.81 -133.066)" fill="#263238"/>
      <path id="Path_5740" data-name="Path 5740" d="M122.13,208.08a4.166,4.166,0,0,1,.38.834c.216.544.5,1.341.812,2.34a45.539,45.539,0,0,1,1.982,16.183c-.06,1.043-.142,1.885-.231,2.466a4.2,4.2,0,0,1-.156.894,3.881,3.881,0,0,1,0-.909c.037-.581.082-1.423.1-2.466a56.038,56.038,0,0,0-.373-8.121,55.432,55.432,0,0,0-1.594-7.965c-.276-1.006-.522-1.818-.7-2.369a4.344,4.344,0,0,1-.224-.887Z" transform="translate(-63.775 -139.205)" fill="#455a64"/>
      <path id="Path_5741" data-name="Path 5741" d="M102.383,259.221l-36.509-7.943L64.19,225.2l-16.22-1.49s.6,17.822,1.222,23.1c.9,7.622,5.4,18.024,8.039,20.117s46.754,1.14,46.754,1.14Z" transform="translate(-44.87 -143.189)" fill="#ffbe9d"/>
      <path id="Path_5742" data-name="Path 5742" d="M141.606,273.244a1.4,1.4,0,0,1-1.356.79,1.493,1.493,0,0,1-.35-.067c-.812-.261-.745-1.907-.745-1.907l-3.86-.626s-5.029,3.241-6.818,5.387-6.348.41-6.348.41l-1.58-8.241,7.116-6.43s-.432.38.06-.82,2.72-.745,2.72-.745c.35-.6,1.811-.8,1.811-.8l6.244.745a4.269,4.269,0,0,1,3.122,1.967l2.645,4.18s1.393,2.98,1.17,3.725a1.252,1.252,0,0,1-1.49.82s-.305,1.982-.827,2.049a4.314,4.314,0,0,1-1.542-.373Z" transform="translate(-63.372 -152.489)" fill="#ffbe9d"/>
      <path id="Path_5743" data-name="Path 5743" d="M131,269.685c0,.067.834,0,2.168.045a18.963,18.963,0,0,1,5.089.954,17.887,17.887,0,0,1,2.63,1.125c.745.425,1.535.745,1.781,1.319a.745.745,0,0,1-.067.745,1.036,1.036,0,0,1-.469.395,1.492,1.492,0,0,1-.551.082.661.661,0,0,0,.6.067,1.1,1.1,0,0,0,.6-.417,1,1,0,0,0,.149-.976,2.041,2.041,0,0,0-.745-.879c-.343-.216-.7-.447-1.1-.663a16.791,16.791,0,0,0-2.675-1.177,16.265,16.265,0,0,0-5.216-.857,7.041,7.041,0,0,0-2.2.238Z" transform="translate(-66.036 -154.846)" fill="#eb996e"/>
      <path id="Path_5744" data-name="Path 5744" d="M130.4,275.022c0,.119,2.548,0,5.67.194s5.625.566,5.648.447a6.154,6.154,0,0,0-1.624-.395,35.466,35.466,0,0,0-4-.447,36.239,36.239,0,0,0-4.031,0,6.087,6.087,0,0,0-1.662.2Z" transform="translate(-65.883 -156.204)" fill="#eb996e"/>
      <path id="Path_5745" data-name="Path 5745" d="M144.926,274.279a2.676,2.676,0,0,0,.082-.663,14.753,14.753,0,0,0,0-1.833,7.543,7.543,0,0,0-.171-1.267,3.8,3.8,0,0,0-.611-1.356,8.567,8.567,0,0,0-2.34-2.392,11.757,11.757,0,0,0-2.98-1.49,11,11,0,0,0-2.7-.41h-1.818a2.041,2.041,0,0,0-.671.067,21.427,21.427,0,0,0,2.474.209,11.648,11.648,0,0,1,2.608.477,12.556,12.556,0,0,1,2.869,1.49,8.733,8.733,0,0,1,2.235,2.28,4.761,4.761,0,0,1,.812,2.444C144.881,273.318,144.844,274.279,144.926,274.279Z" transform="translate(-66.73 -153.68)" fill="#eb996e"/>
      <path id="Path_5746" data-name="Path 5746" d="M136.67,262.272c0,.06.931.089,2.421.261s3.725.32,5.044,2.3a21.116,21.116,0,0,1,3.144,4.9,13.063,13.063,0,0,1,.6,2.34,1.684,1.684,0,0,0,0-.663,6.483,6.483,0,0,0-.365-1.773,18.328,18.328,0,0,0-3.107-5.044,6.705,6.705,0,0,0-1.207-1.229,4.232,4.232,0,0,0-1.49-.685,13.034,13.034,0,0,0-2.645-.425A10.113,10.113,0,0,0,136.67,262.272Z" transform="translate(-67.482 -152.998)" fill="#eb996e"/>
      <path id="Path_5747" data-name="Path 5747" d="M129.933,275.435a2.728,2.728,0,0,0,.373-.283l1.043-.842a42.859,42.859,0,0,1,4.105-2.824h-.089l3.86.656-.134-.164a4.053,4.053,0,0,0,.075.946,1.766,1.766,0,0,0,.44.931.961.961,0,0,0,.507.238,1.491,1.491,0,0,0,.544,0,1.55,1.55,0,0,0,.961-.536,1.265,1.265,0,0,0,.171-.224l.037-.067h0l-.224.082h0l.119.045c.164.067.328.127.5.179s.343.1.529.134a1.74,1.74,0,0,0,.291,0,.744.744,0,0,0,.358-.067,1.162,1.162,0,0,0,.373-.514,3.479,3.479,0,0,0,.194-.529,8.944,8.944,0,0,0,.246-1.1l-.224.156a1.49,1.49,0,0,0,1.438-.492,1.185,1.185,0,0,0,.268-.745,3.966,3.966,0,0,0-.134-.745,22.19,22.19,0,0,0-1.065-2.779h0l-1.408-2.235-.894-1.408a7.332,7.332,0,0,0-.976-1.371,4.194,4.194,0,0,0-1.4-.931,5.341,5.341,0,0,0-1.594-.328l-5.879-.663H132.3a5.3,5.3,0,0,0-1.036.276,1.736,1.736,0,0,0-.894.626l.216-.067a2.138,2.138,0,0,0-2,.112,2.5,2.5,0,0,0-.991,1.58l.045-.082-4.9,4.411-1.319,1.214a2.848,2.848,0,0,0-.44.447,3.612,3.612,0,0,0,.492-.387l1.378-1.155,4.985-4.307h.037v-.052a2.235,2.235,0,0,1,.872-1.378,1.848,1.848,0,0,1,1.691-.067l.134.052.082-.119a1.49,1.49,0,0,1,.745-.477,5.055,5.055,0,0,1,.961-.246H132.3l5.879.693a5.155,5.155,0,0,1,1.49.313,3.726,3.726,0,0,1,1.267.842,7.154,7.154,0,0,1,.924,1.3l.894,1.416c.484.745.961,1.49,1.408,2.235h0a20.31,20.31,0,0,1,1.051,2.712,3.144,3.144,0,0,1,.127.663.8.8,0,0,1-.186.529,1.073,1.073,0,0,1-1.051.35h-.2v.186a9.372,9.372,0,0,1-.231,1.051,1.9,1.9,0,0,1-.4.835.5.5,0,0,1-.156,0h-.238a2,2,0,0,1-.484-.119l-.477-.164-.112-.045h0l-.231.082h0v.045a1.09,1.09,0,0,1-.127.179,1.229,1.229,0,0,1-.745.425,1.019,1.019,0,0,1-.425,0,.655.655,0,0,1-.358-.149,2.414,2.414,0,0,1-.417-1.617v-.142h-.134l-3.874-.6H135.4a37.53,37.53,0,0,0-4.061,2.936c-.447.38-.782.685-1.006.894A2.188,2.188,0,0,0,129.933,275.435Z" transform="translate(-63.479 -152.43)" fill="#eb996e"/>
      <path id="Path_5748" data-name="Path 5748" d="M184.039,245.54,136,245.935c-1.565,0-3.047.745-3.286,2.287L127.5,283.241H102.721a1.445,1.445,0,0,0,0,2.883h79.038l5.4-36.956a3.159,3.159,0,0,0-3.122-3.629Z" transform="translate(-58.485 -148.754)" fill="#e0e0e0"/>
      <path id="Path_5749" data-name="Path 5749" d="M183.933,245.539a2.661,2.661,0,0,1,.745.074,3.182,3.182,0,0,1,2.429,2.749,8.426,8.426,0,0,1-.179,1.974l-.693,4.88c-1.058,7.339-2.578,17.919-4.471,30.928v.127h-.127l-76.677.045H102.9a1.975,1.975,0,0,1-1.088-.209,1.632,1.632,0,0,1,0-2.861,1.959,1.959,0,0,1,1.08-.2h24.476l-.186.164c1.885-12.54,3.651-24.238,5.216-34.736a2.727,2.727,0,0,1,.894-1.825,3.584,3.584,0,0,1,1.833-.812,15.546,15.546,0,0,1,1.937-.067h1.885l7.235-.045,12.853-.082,18.3-.1h4.9l-4.9.067-18.3.2-12.853.134-7.235.067H137.06a17.429,17.429,0,0,0-1.885.067,3.241,3.241,0,0,0-1.676.745,2.369,2.369,0,0,0-.782,1.639c-1.565,10.5-3.308,22.2-5.216,34.736v.164H102.913a1.58,1.58,0,0,0-.894.149,1.267,1.267,0,0,0-.574,1.49,1.3,1.3,0,0,0,.566.663,1.661,1.661,0,0,0,.9.156h2.064l76.677.045L181.5,286c1.93-13,3.494-23.574,4.582-30.913.276-1.825.522-3.457.745-4.865a8.891,8.891,0,0,0,.2-1.945,3.122,3.122,0,0,0-2.332-2.72A7.443,7.443,0,0,0,183.933,245.539Z" transform="translate(-58.379 -148.753)" fill="#263238"/>
      <circle id="Ellipse_507" data-name="Ellipse 507" cx="3.01" cy="3.01" r="3.01" transform="translate(96.488 113.625)" fill="#fff"/>
      <path id="Path_5750" data-name="Path 5750" d="M139,285.932c.067,0,1.594-8.9,3.412-19.909s3.241-19.946,3.174-19.953-1.6,8.9-3.42,19.909S138.94,285.925,139,285.932Z" transform="translate(-68.075 -148.889)" fill="#263238"/>
    </g>
  </g>
</svg>
