<svg xmlns="http://www.w3.org/2000/svg" width="19" height="19" viewBox="0 0 19 19">
  <g id="XMLID_75_" transform="translate(0 0)">
    <g id="XMLID_724_">
      <path id="XMLID_816_" d="M18.221.5a1.558,1.558,0,0,0-2.128.571L13.97,4.752H9.392a.372.372,0,0,0,0,.743h4.15L12,8.166H3.34a.372.372,0,0,0,0,.743h8.233L10.716,10.4H3.34a.372.372,0,0,0,0,.743h7.222l-.16,1.486H3.34a.372.372,0,0,0,0,.743h6.982l-.02.183a.371.371,0,0,0,.588.34l2.37-1.733a.371.371,0,0,0,.1-.114l2.892-5.015v7.2a1.511,1.511,0,0,1-1.508,1.51h-8.6a.371.371,0,0,0-.321.186l-1.3,2.25-1.3-2.25a.371.371,0,0,0-.321-.186H2.25A1.511,1.511,0,0,1,.742,14.23V7A1.511,1.511,0,0,1,2.25,5.495h3.8a.372.372,0,0,0,0-.743H2.25A2.254,2.254,0,0,0,0,7V14.23a2.254,2.254,0,0,0,2.25,2.253h.443L4.206,19.1a.371.371,0,0,0,.643,0L6.36,16.483h8.386A2.254,2.254,0,0,0,17,14.23V7a2.259,2.259,0,0,0-.2-.922l1.992-3.453A1.562,1.562,0,0,0,18.221.5Zm-.371.643a.818.818,0,0,1,.3,1.115l-.212.368-1.412-.816.212-.368A.816.816,0,0,1,17.85,1.143ZM11.294,11.277l1.068.617-1.232.9Zm1.611.073-1.412-.816,4.661-8.081,1.412.816Z" transform="translate(0 -0.29)" fill="#373636"/>
      <path id="XMLID_819_" d="M198.469,121.146a.389.389,0,1,0-.275-.114A.394.394,0,0,0,198.469,121.146Z" transform="translate(-190.744 -115.915)" fill="#373636"/>
    </g>
  </g>
</svg>
