<svg xmlns="http://www.w3.org/2000/svg" width="18.455" height="16.465" viewBox="0 0 18.455 16.465">
  <g id="house_1_" data-name="house (1)" transform="translate(0 -25.018)">
    <g id="Group_56105" data-name="Group 56105" transform="translate(0 25.018)">
      <g id="Group_56104" data-name="Group 56104" transform="translate(0 0)">
        <path id="Path_66" data-name="Path 66" d="M18.315,32.636,14.91,29.728c0-.02.008-.04.012-.064v-3.8a.424.424,0,0,0-.41-.418h-1.9a.414.414,0,0,0-.4.418v1.575L9.488,25.113a.4.4,0,0,0-.517,0L.144,32.632a.4.4,0,1,0,.509.613l.008-.008,8.568-7.3L12.3,28.554l1.834,1.559L17.8,33.24a.4.4,0,0,0,.561-.044A.4.4,0,0,0,18.315,32.636Zm-4.193-3.58-1.114-.939V26.243h1.114Z" transform="translate(0 -25.018)" fill="#f07824"/>
      </g>
    </g>
    <g id="Group_56107" data-name="Group 56107" transform="translate(1.759 27.301)">
      <g id="Group_56106" data-name="Group 56106" transform="translate(0 0)">
        <path id="Path_67" data-name="Path 67" d="M59.01,88.556,57.893,87.6l-5.955-5.088a.4.4,0,0,0-.517,0L45.466,87.6l-1.118.955a.4.4,0,0,0-.044.561.387.387,0,0,0,.549.048l0,0,.5-.43V96.19a.42.42,0,0,0,.41.41H57.59a.417.417,0,0,0,.41-.41V88.731l.5.43a.4.4,0,0,0,.255.1.4.4,0,0,0,.3-.139A.393.393,0,0,0,59.01,88.556ZM53.27,95.8H50.088V91.5H53.27Zm.8,0V91.118a.4.4,0,0,0-.382-.41h-4.01a.4.4,0,0,0-.382.41V95.8H46.15V88.051l5.529-4.71,5.529,4.71V95.8Z" transform="translate(-44.208 -82.418)" fill="#f07824"/>
      </g>
    </g>
  </g>
</svg>
