<svg id="icon_categories" xmlns="http://www.w3.org/2000/svg" width="24" height="23.999" viewBox="0 0 24 23.999">
  <path id="Path_43562" data-name="Path 43562" d="M871.567,51.156c0,.623,0,1.245,0,1.868a3.693,3.693,0,0,0,3.7,3.693q1.854.005,3.709,0a3.694,3.694,0,0,0,3.687-3.682q.007-1.868,0-3.736a3.7,3.7,0,0,0-3.69-3.68q-1.854-.006-3.709,0a3.7,3.7,0,0,0-3.7,3.7C871.565,49.929,871.567,50.542,871.567,51.156Zm9.237.008h.007c0,.6.009,1.191,0,1.786a1.781,1.781,0,0,1-1.722,1.891c-1.314.058-2.634.055-3.949,0a1.708,1.708,0,0,1-1.7-1.707c-.053-1.305-.052-2.616,0-3.922a1.714,1.714,0,0,1,1.717-1.716c1.306-.048,2.616-.049,3.922,0a1.742,1.742,0,0,1,1.718,1.747C880.835,49.882,880.8,50.524,880.8,51.164Z" transform="translate(-858.669 -45.616)" fill="#9099a7"/>
  <path id="Path_43563" data-name="Path 43563" d="M1112.1,280.557c0-.614,0-1.227,0-1.841a3.688,3.688,0,0,0-3.7-3.69q-1.854,0-3.709,0a3.694,3.694,0,0,0-3.687,3.682q-.007,1.854,0,3.709a3.7,3.7,0,0,0,3.72,3.707q1.828.005,3.655,0a3.693,3.693,0,0,0,3.724-3.727C1112.1,281.785,1112.1,281.171,1112.1,280.557Zm-1.869,0h.019c0,.6.006,1.209,0,1.813a1.792,1.792,0,0,1-1.741,1.876c-1.306.049-2.617.047-3.923,0a1.711,1.711,0,0,1-1.705-1.7c-.049-1.315-.051-2.635,0-3.95a1.774,1.774,0,0,1,1.838-1.719q1.84-.022,3.681,0a1.778,1.778,0,0,1,1.82,1.651C1110.284,279.2,1110.234,279.883,1110.234,280.559Z" transform="translate(-1101 -262.129)" fill="#9099a7"/>
  <path id="Path_43564" data-name="Path 43564" d="M1112.1,51.149c0-.623,0-1.245,0-1.868a3.694,3.694,0,0,0-3.673-3.667q-1.868-.007-3.736,0A3.7,3.7,0,0,0,1101,49.295q-.008,1.868,0,3.736a3.7,3.7,0,0,0,3.69,3.68q1.868.006,3.736,0a3.691,3.691,0,0,0,3.672-3.667C1112.1,52.412,1112.1,51.78,1112.1,51.149Zm-1.862-.015h.012c0,.614.008,1.227,0,1.84a1.837,1.837,0,0,1-1.86,1.882q-1.84.028-3.681,0a1.773,1.773,0,0,1-1.829-1.729c-.05-1.306-.047-2.617,0-3.923a1.71,1.71,0,0,1,1.692-1.712c1.324-.051,2.653-.05,3.977,0a1.721,1.721,0,0,1,1.682,1.667C1110.282,49.814,1110.239,50.476,1110.239,51.134Z" transform="translate(-1100.999 -45.61)" fill="#9099a7"/>
  <path id="Path_43565" data-name="Path 43565" d="M877.119,275.044c-.623,0-1.245,0-1.868,0a3.691,3.691,0,0,0-3.683,3.684q-.006,1.868,0,3.736a3.7,3.7,0,0,0,3.665,3.678q1.882.009,3.763,0a3.7,3.7,0,0,0,3.67-3.673q.007-1.868,0-3.736a3.693,3.693,0,0,0-3.679-3.688C878.365,275.042,877.742,275.044,877.119,275.044Zm3.693,5.531c0,.6.007,1.209,0,1.813a1.786,1.786,0,0,1-1.737,1.878c-1.306.049-2.617.049-3.923,0a1.773,1.773,0,0,1-1.728-1.831q-.028-1.84,0-3.681a1.827,1.827,0,0,1,1.857-1.856q1.84-.024,3.681,0a1.833,1.833,0,0,1,1.85,1.89C880.821,279.384,880.813,279.98,880.813,280.575Z" transform="translate(-858.67 -262.148)" fill="#9099a7"/>
</svg>
