<svg xmlns="http://www.w3.org/2000/svg" width="24" height="22.081" viewBox="0 0 24 22.081">
  <path id="icon_home" d="M72.594,165.4v.416c0,3.463.012,6.925-.012,10.387a1.036,1.036,0,0,0,.933,1.006c.111.007.223.006.335.006q8.362,0,16.724,0a3.134,3.134,0,0,0,.6-.04c.586-.116.688-.25.688-.839q0-5.27,0-10.54v-.425c.353.256.645.468.937.678.464.333.824.3,1.138-.1a.87.87,0,0,0-.114-1.273q-1.524-1.287-3.052-2.569-3.939-3.312-7.878-6.625a1.007,1.007,0,0,0-1.517-.009q-5.471,4.566-10.944,9.129a.581.581,0,0,0-.264.567,1.809,1.809,0,0,1,0,.213c.007.255-.072.531.242.688a.98.98,0,0,0,1.013.017c.33-.2.656-.406.984-.608A1.838,1.838,0,0,1,72.594,165.4Zm17.561,10.082H74.606c-.006-.109-.016-.2-.016-.287q0-5.65,0-11.3a.5.5,0,0,1,.211-.434q2.651-2.193,5.292-4.4,1.086-.9,2.177-1.806c.075.053.135.09.19.135l3.485,2.857c1.3,1.068,2.6,2.144,3.918,3.194a.69.69,0,0,1,.3.619q-.014,5.5-.006,11Z" transform="translate(-70.165 -155.137)" fill="#9099a7"/>
</svg>
