<svg xmlns="http://www.w3.org/2000/svg" width="23.495" height="24.308" viewBox="0 0 23.495 24.308">
  <path id="icon_profile" d="M794.683-258.8a7.066,7.066,0,0,0,2.3-6.064,6.876,6.876,0,0,0-2.242-4.529,7.112,7.112,0,0,0-9.941.222,7.173,7.173,0,0,0,.213,10.343c-.6.357-1.233.681-1.811,1.079A11.667,11.667,0,0,0,778.6-251.4a7.805,7.805,0,0,0-.328,3.531.823.823,0,0,0,.783.565.711.711,0,0,0,.726-.565c.064-.46.066-.929.12-1.391a10.11,10.11,0,0,1,2.36-5.439,9.617,9.617,0,0,1,4.22-2.93.656.656,0,0,1,.449.02,7.1,7.1,0,0,0,6.143-.008.6.6,0,0,1,.418-.017,9.67,9.67,0,0,1,6.018,6.59,10.9,10.9,0,0,1,.431,2.937.74.74,0,0,0,.726.8.746.746,0,0,0,.72-.817,12.22,12.22,0,0,0-3.247-8.237,10.692,10.692,0,0,0-2.835-2.126C795.1-258.586,794.9-258.684,794.683-258.8Zm.813-5.334a5.7,5.7,0,0,1-5.672,5.707,5.7,5.7,0,0,1-5.669-5.651,5.71,5.71,0,0,1,5.674-5.709A5.707,5.707,0,0,1,795.5-264.13Z" transform="translate(-778.036 271.458)" fill="#9099a7" stroke="#9099a7" stroke-width="0.3"/>
</svg>
