<svg id="icon_notification" xmlns="http://www.w3.org/2000/svg" width="21.501" height="24" viewBox="0 0 21.501 24">
  <g id="Group_7928" data-name="Group 7928">
    <g id="Group_7927" data-name="Group 7927">
      <path id="Path_43560" data-name="Path 43560" d="M32.135,19.618c2.549-1.152,2.646-6.1,2.648-6.22V10.081A7.719,7.719,0,0,1,39.5,2.975a2.984,2.984,0,0,1,5.967,0,7.72,7.72,0,0,1,4.72,7.106V13.4c0,.125.1,5.069,2.648,6.221a.677.677,0,0,1-.278,1.294H46.1a3.8,3.8,0,0,1-1,1.957,3.568,3.568,0,0,1-5.213,0,3.8,3.8,0,0,1-1-1.957H32.414a.677.677,0,0,1-.279-1.293Zm3.358-2.368a7.507,7.507,0,0,1-1.186,2.308H50.667a7.507,7.507,0,0,1-1.185-2.308Zm6.994-15.9a1.634,1.634,0,0,0-1.567,1.18,7.734,7.734,0,0,1,3.134,0A1.634,1.634,0,0,0,42.488,1.354ZM48.839,13.4V10.08a6.351,6.351,0,1,0-12.7,0v3.327A14.131,14.131,0,0,1,35.85,15.9H49.125A14.141,14.141,0,0,1,48.839,13.4Zm-6.351,9.245a2.373,2.373,0,0,0,2.223-1.735H40.265A2.373,2.373,0,0,0,42.488,22.647Z" transform="translate(-31.737)" fill="#9099a7"/>
      <path id="Path_43561" data-name="Path 43561" d="M172.021,119.235a5.284,5.284,0,0,1,5.278,5.278.676.676,0,1,1-1.353,0,3.93,3.93,0,0,0-3.925-3.925.676.676,0,1,1,0-1.353Z" transform="translate(-161.27 -114.558)" fill="#9099a7"/>
    </g>
  </g>
</svg>
