<svg xmlns="http://www.w3.org/2000/svg" width="22.102" height="21.317" viewBox="0 0 22.102 21.317">
  <g id="icon_cart" transform="translate(0)">
    <path id="icon_cart-2" data-name="icon_cart" d="M1099.65,385.151c3.043,0,6.085.006,9.128,0,1.732,0,2.117-.379,1.912-2.1-.52-4.377-1.1-8.747-1.652-13.119-.062-.486-.108-.974-.19-1.456-.218-1.278-.527-1.55-1.8-1.569-.981-.015-1.966.04-2.943-.031a1.166,1.166,0,0,1-.824-.566,3.727,3.727,0,0,0-3.537-2.465,3.786,3.786,0,0,0-3.55,2.471,1.136,1.136,0,0,1-.809.56c-1.108.066-2.223.028-3.335.03a1.411,1.411,0,0,0-1.57,1.39c-.6,4.992-1.213,9.982-1.8,14.975-.166,1.406.239,1.869,1.653,1.878C1093.434,385.166,1096.542,385.151,1099.65,385.151Zm9.524-1.63h-18.982c.62-5.06,1.229-10.035,1.845-15.061,4.957,0,9.8.006,14.637-.008.613,0,.644.351.7.814.36,2.883.752,5.762,1.12,8.644C1108.729,379.753,1108.941,381.6,1109.173,383.521Zm-7.4-16.7h-4.032a2.031,2.031,0,0,1,1.981-1.4A2.177,2.177,0,0,1,1101.777,366.818Z" transform="translate(-1088.638 -363.839)" fill="#9099a7"/>
  </g>
</svg>
