<svg id="information" xmlns="http://www.w3.org/2000/svg" width="19" height="19" viewBox="0 0 19 19">
  <g id="Group_56291" data-name="Group 56291">
    <g id="Group_56290" data-name="Group 56290">
      <path id="Path_1785" data-name="Path 1785" d="M9.5,0A9.5,9.5,0,1,0,19,9.5,9.495,9.495,0,0,0,9.5,0Zm0,17.516A8.016,8.016,0,1,1,17.516,9.5,8.011,8.011,0,0,1,9.5,17.516Z" fill="#373636"/>
    </g>
  </g>
  <g id="Group_56293" data-name="Group 56293" transform="translate(8.73 7.81)">
    <g id="Group_56292" data-name="Group 56292">
      <path id="Path_1786" data-name="Path 1786" d="M236.77,214.33a.77.77,0,0,0-.77.77v4.955a.77.77,0,1,0,1.539,0V215.1A.769.769,0,0,0,236.77,214.33Z" transform="translate(-236 -214.33)" fill="#373636"/>
    </g>
  </g>
  <g id="Group_56295" data-name="Group 56295" transform="translate(8.461 5.019)">
    <g id="Group_56294" data-name="Group 56294">
      <circle id="Ellipse_324" data-name="Ellipse 324" cx="1.039" cy="1.039" r="1.039" fill="#373636"/>
    </g>
  </g>
</svg>
