<svg xmlns="http://www.w3.org/2000/svg" width="11.412" height="11.412" viewBox="0 0 11.412 11.412">
  <path id="price" d="M1.022,6.83,2.5,8.306V9.568L.391,7.46a1.339,1.339,0,0,1,0-1.89L5.95,0h5.463V5.014a2.843,2.843,0,0,0-.37-.221,3.459,3.459,0,0,0-.522-.207V.892H6.32L1.022,6.2a.447.447,0,0,0,0,.63ZM8.2,2.764a.446.446,0,1,0,.446-.446A.446.446,0,0,0,8.2,2.764Zm3.207,3.923h0v3.388a1.19,1.19,0,0,1-.769,1.029,3.336,3.336,0,0,1-1.46.308,3.336,3.336,0,0,1-1.46-.308,1.885,1.885,0,0,1-.323-.2,1.885,1.885,0,0,1-.323.2,3.336,3.336,0,0,1-1.46.308,3.336,3.336,0,0,1-1.46-.308,1.19,1.19,0,0,1-.769-1.029V8.337h0c0-.007,0-.015,0-.022a1.19,1.19,0,0,1,.769-1.029,3.336,3.336,0,0,1,1.46-.308,3.358,3.358,0,0,1,1.337.261V6.687h0c0-.022,0-.044,0-.067a1.19,1.19,0,0,1,.769-1.029,3.336,3.336,0,0,1,1.46-.308,3.336,3.336,0,0,1,1.46.308,1.19,1.19,0,0,1,.769,1.029C11.413,6.643,11.412,6.665,11.411,6.687ZM7.847,6.62c0,.015.048.118.276.232a2.474,2.474,0,0,0,1.062.214,2.474,2.474,0,0,0,1.062-.214c.228-.114.276-.216.276-.232s-.048-.118-.276-.232a2.474,2.474,0,0,0-1.062-.214,2.474,2.474,0,0,0-1.062.214C7.895,6.5,7.847,6.6,7.847,6.62ZM4.281,8.314c0,.015.048.118.276.232a2.474,2.474,0,0,0,1.062.214,2.568,2.568,0,0,0,1.067-.206c.22-.106.27-.2.27-.218s-.067-.135-.281-.246a2.388,2.388,0,0,0-1.056-.222,2.474,2.474,0,0,0-1.062.214C4.329,8.2,4.281,8.3,4.281,8.314Zm2.675,1.761V9.41a3.484,3.484,0,0,1-1.337.241A3.448,3.448,0,0,1,4.281,9.4v.675c0,.015.048.118.276.232a2.474,2.474,0,0,0,1.062.214,2.474,2.474,0,0,0,1.062-.214C6.907,10.193,6.955,10.091,6.955,10.075Zm3.566,0V9.4a3.68,3.68,0,0,1-2.675,0v.675c0,.015.048.118.276.232a2.474,2.474,0,0,0,1.062.214,2.474,2.474,0,0,0,1.062-.214C10.474,10.193,10.522,10.091,10.522,10.075Zm0-1.761V7.706a3.68,3.68,0,0,1-2.675,0v.608c0,.015.048.118.276.232a2.474,2.474,0,0,0,1.062.214,2.474,2.474,0,0,0,1.062-.214C10.474,8.432,10.522,8.33,10.522,8.314Zm0,0" transform="translate(-0.001 0)" fill="#f07824"/>
</svg>
