<svg xmlns="http://www.w3.org/2000/svg" width="13.46" height="19.414" viewBox="0 0 13.46 19.414">
  <g id="shopping" transform="translate(-78.515)">
    <path id="Path_5332" data-name="Path 5332" d="M82.666,13.5h5.043a.284.284,0,1,0,0-.569H82.666a.284.284,0,1,0,0,.569Zm.891-6.524h3.376a.577.577,0,0,0,.555-.412L88.2,4.232a.581.581,0,0,0-.555-.749h-.252l-.515-1.289a.772.772,0,0,0-.721-.488H84.337a.773.773,0,0,0-.721.488L83.1,3.483h-.252a.581.581,0,0,0-.556.749L83,6.567A.577.577,0,0,0,83.557,6.979Zm-.718-2.922c.009-.012,1.547,0,1.558,0a.284.284,0,1,0,0-.569h-.684l.431-1.077a.207.207,0,0,1,.193-.131h1.816a.207.207,0,0,1,.193.131l.431,1.077H85.724a.284.284,0,1,0,0,.569c.01,0,1.92-.005,1.927,0S86.944,6.39,86.944,6.4s-3.4,0-3.4,0-.715-2.334-.707-2.345ZM82.666,16.34a.284.284,0,0,0,0,.569h5.043a.284.284,0,0,0,0-.569Zm7.6-.853a.284.284,0,0,0-.284-.284H82.666a.284.284,0,1,0,0,.569h7.318A.284.284,0,0,0,90.268,15.487Zm1.422-3.038a.284.284,0,0,0,.284-.284V1.422A1.424,1.424,0,0,0,90.553,0H79.937a1.424,1.424,0,0,0-1.422,1.422v16.57a1.424,1.424,0,0,0,1.422,1.422H90.553a1.424,1.424,0,0,0,1.422-1.422v-4.5a.284.284,0,0,0-.569,0v4.5a.854.854,0,0,1-.853.853H79.937a.854.854,0,0,1-.853-.853V1.422a.854.854,0,0,1,.853-.853H90.553a.854.854,0,0,1,.853.853V12.164a.284.284,0,0,0,.284.284ZM81.541,13.721l-.422,0c.1-.13.217-.3.367-.513a1.271,1.271,0,0,0,.25-.538,1.055,1.055,0,0,0,.012-.109.769.769,0,0,0-1.522-.149.284.284,0,0,0,.558.11.2.2,0,0,1,.4.025c.007.1-.045.173-.159.335-.3.427-.477.66-.573.786-.167.219-.247.5.043.6.037.012.788.021,1.057.018a.284.284,0,0,0-.007-.569ZM89.984,11.8H82.666a.284.284,0,1,0,0,.569h7.318a.284.284,0,1,0,0-.569ZM81.025,15.2a.77.77,0,0,0-.754.62.284.284,0,0,0,.558.11.2.2,0,1,1,.2.239.284.284,0,0,0,0,.569.2.2,0,1,1-.2.228.2.2,0,0,1,0-.028.284.284,0,0,0-.569,0,.768.768,0,0,0,1.537,0,.765.765,0,0,0-.172-.484.768.768,0,0,0-.6-1.253Zm0-4.336a.284.284,0,0,0,.284-.284V8.69a.284.284,0,0,0-.284-.284h-.4a.284.284,0,0,0,0,.569h.12v1.607A.284.284,0,0,0,81.025,10.867Zm1.64-.754h5.043a.284.284,0,1,0,0-.569H82.666a.284.284,0,1,0,0,.569Zm7.318-1.706H82.666a.284.284,0,0,0,0,.569h7.318a.284.284,0,0,0,0-.569Z" fill="#373636"/>
  </g>
</svg>
