<svg xmlns="http://www.w3.org/2000/svg" width="19" height="23" viewBox="0 0 19 23">
  <g id="user_1_" data-name="user (1)" transform="translate(0)">
    <path id="Path_1705" data-name="Path 1705" d="M92.438,11.187A5.144,5.144,0,0,0,96.26,9.548a5.508,5.508,0,0,0,1.584-3.955A5.509,5.509,0,0,0,96.26,1.639a5.278,5.278,0,0,0-7.645,0,5.508,5.508,0,0,0-1.584,3.955,5.508,5.508,0,0,0,1.584,3.955A5.146,5.146,0,0,0,92.438,11.187ZM89.546,2.6a3.993,3.993,0,0,1,5.784,0,4.115,4.115,0,0,1,1.2,2.992,4.115,4.115,0,0,1-1.2,2.992,3.993,3.993,0,0,1-5.784,0,4.114,4.114,0,0,1-1.2-2.992,4.115,4.115,0,0,1,1.2-2.992Zm0,0" transform="translate(-83.084 0)" fill="#373636"/>
    <path id="Path_1706" data-name="Path 1706" d="M18.954,253.956a14.074,14.074,0,0,0-.185-1.467,11.752,11.752,0,0,0-.354-1.475,7.362,7.362,0,0,0-.595-1.376,5.177,5.177,0,0,0-.9-1.192,3.945,3.945,0,0,0-1.288-.825,4.376,4.376,0,0,0-1.645-.3,1.652,1.652,0,0,0-.891.386c-.267.178-.58.383-.929.611a5.272,5.272,0,0,1-1.2.54,4.581,4.581,0,0,1-2.939,0,5.256,5.256,0,0,1-1.2-.54c-.346-.225-.658-.431-.93-.611a1.65,1.65,0,0,0-.891-.386,4.371,4.371,0,0,0-1.645.3,3.942,3.942,0,0,0-1.289.825,5.177,5.177,0,0,0-.9,1.192,7.375,7.375,0,0,0-.595,1.376,11.779,11.779,0,0,0-.354,1.475,13.979,13.979,0,0,0-.185,1.468c-.03.443-.046.9-.046,1.371a3.9,3.9,0,0,0,1.123,2.917,4,4,0,0,0,2.894,1.076H14.983a4,4,0,0,0,2.894-1.076A3.9,3.9,0,0,0,19,255.327c0-.468-.016-.929-.046-1.372Zm-2,3.3a2.691,2.691,0,0,1-1.974.7H4.017a2.691,2.691,0,0,1-1.974-.7,2.545,2.545,0,0,1-.709-1.932c0-.435.014-.865.042-1.277a12.607,12.607,0,0,1,.167-1.322,10.389,10.389,0,0,1,.311-1.3,6,6,0,0,1,.484-1.119A3.838,3.838,0,0,1,3,249.429a2.616,2.616,0,0,1,.857-.543,3.019,3.019,0,0,1,1.051-.207c.047.025.13.074.265.163.274.182.591.39.94.618a6.55,6.55,0,0,0,1.508.687,5.889,5.889,0,0,0,3.76,0,6.559,6.559,0,0,0,1.509-.688c.358-.233.665-.435.939-.618.135-.089.218-.138.265-.163a3.021,3.021,0,0,1,1.051.207,2.62,2.62,0,0,1,.857.543,3.828,3.828,0,0,1,.659.881,5.983,5.983,0,0,1,.484,1.118,10.363,10.363,0,0,1,.311,1.3,12.714,12.714,0,0,1,.167,1.322h0c.028.411.043.84.043,1.277a2.545,2.545,0,0,1-.709,1.931Zm0,0" transform="translate(0 -236.321)" fill="#373636"/>
  </g>
</svg>
