<svg id="_3710871" data-name="3710871" xmlns="http://www.w3.org/2000/svg" width="211.361" height="319.613" viewBox="0 0 211.361 319.613">
  <g id="OBJECT" transform="translate(0 0)">
    <path id="Path_5087" data-name="Path 5087" d="M171.461,454.643c2.141-2.555,5.72-3.586,9.044-3.31s5.988,1.757,8.9,3.382c2.54,1.415,3.411,3.724,6.453,4.776l2.548.726a17.417,17.417,0,0,1-1.967.871c-6.888.936-13.878.6-20.825.276-1.909-.094-4.145-.377-5.081-2.047C169.7,457.859,170.365,455.943,171.461,454.643Z" transform="translate(-19.171 -142.088)" fill="#172f35"/>
    <ellipse id="Ellipse_484" data-name="Ellipse 484" cx="35.349" cy="35.349" rx="35.349" ry="35.349" transform="translate(29.867 84.798) rotate(-103.01)" fill="#ed512d"/>
    <ellipse id="Ellipse_485" data-name="Ellipse 485" cx="32.126" cy="32.126" rx="32.126" ry="32.126" transform="translate(32.681 81.171) rotate(-103.59)" fill="#f8f4d9"/>
    <path id="Path_5088" data-name="Path 5088" d="M296.28,82.856a31.636,31.636,0,0,1-1.06-3.716h3.143V56.827a32.217,32.217,0,0,1,3.724-5.408v27.72h44.1V64.992H307.85V46.12a31.6,31.6,0,0,1,3.724-2.315V61.3h25.122V41.7a32.557,32.557,0,0,1,3.716,1.5V61.276h9.494v11.9h8.775a33.006,33.006,0,0,1-.319,3.724h-8.456V94.266a32.772,32.772,0,0,1-3.724,3.368V82.856Z" transform="translate(-270.222 -29.798)" fill="#ffc088"/>
    <path id="Path_5089" data-name="Path 5089" d="M320.61,93.581,334.372,79.02l13.755,14.561h-4.2V107.8h-19.1V93.581Z" transform="translate(-278.097 -40.029)" fill="#f07824"/>
    <path id="Path_5090" data-name="Path 5090" d="M330.488,54.522c0,3.629,6.533,9.915,6.533,9.915s6.533-6.286,6.533-9.915a6.562,6.562,0,1,0-13.123,0Z" transform="translate(-280.651 -31.514)" fill="#ed512d"/>
    <path id="Path_5091" data-name="Path 5091" d="M338.269,58.549a3.1,3.1,0,1,1,3.1-3.1A3.1,3.1,0,0,1,338.269,58.549Z" transform="translate(-281.907 -32.718)" fill="#ffc088"/>
    <path id="Path_5092" data-name="Path 5092" d="M151.856,144.139c-.791-.537-1.582-1.343-1.452-2.294.167-1.183,1.6-1.677,2.78-1.873a70.662,70.662,0,0,1,24.33.69,211.721,211.721,0,0,1,23.626,6.279c1.336.414,2.9,1.125,3.02,2.526a2.352,2.352,0,0,1-1.219,2.047,6.2,6.2,0,0,1-2.4.682,61.444,61.444,0,0,1-15-.312A192.4,192.4,0,0,1,158.57,146.8,21.535,21.535,0,0,1,151.856,144.139Z" transform="translate(-10.577 -56.531)" fill="#172f35"/>
    <path id="Path_5093" data-name="Path 5093" d="M275.42,189.492c.406-6.656,1.278-13.377.16-19.954l12.383-1.35q1.383,6.533,3.274,12.927c.3-.624.6-1.256.878-1.894,1.684-3.912,2.751-8.057,4.275-12.035s3.586-7.883,6.823-10.641c1.19-1.016,2.736-1.9,4.253-1.5a4.849,4.849,0,0,1,2.352,1.764,21.406,21.406,0,0,1,3.629,7.513,25.975,25.975,0,0,1,.769,13.276c-2.011,8.42-9.378,14.343-13.748,21.819-1.2,2.04-2.388,3.557-3.513,5.64-1.982,3.84-1.778,4.609-2.853,6.322-2.047,3.266-7.033,4.174-10.793,3.353-3.426-.726-3.811-2.468-5.328-5.633C275.123,203.087,275.028,196.141,275.42,189.492Z" transform="translate(-211.814 -60.844)" fill="#a6bebd"/>
    <path id="Path_5094" data-name="Path 5094" d="M291.894,177.279a.377.377,0,0,1,.726-.2,125.072,125.072,0,0,1,4.921,30.544,17.107,17.107,0,0,1-.726,6.671c-.094.254-.2.5-.3.726a5.241,5.241,0,0,0-.6,2.315,1.742,1.742,0,0,0,.885,1.35.893.893,0,0,0,.494.116,4.208,4.208,0,0,1-.421-1.553,1.953,1.953,0,0,1,1.067-1.909,2.345,2.345,0,0,1,.726-.16.843.843,0,0,0,.4-.065c1.074-.276,1.452-1.728,1.713-3.063,1.045-5.335,3.789-10.06,6.431-14.626l2.228-3.847a7.6,7.6,0,0,0,.131.965.435.435,0,0,0,.073.181l-1.786,3.078c-2.62,4.508-5.32,9.182-6.351,14.394-.232,1.2-.631,3.23-2.25,3.629a3,3,0,0,1-.5.08,2.261,2.261,0,0,0-.537.109,1.256,1.256,0,0,0-.617,1.2,4.5,4.5,0,0,0,.523,1.648.363.363,0,0,1-.145.472,1.394,1.394,0,0,1-.726.21,1.684,1.684,0,0,1-.784-.2,2.49,2.49,0,0,1-1.277-1.96,5.807,5.807,0,0,1,.661-2.657c.1-.24.2-.479.3-.726a17.291,17.291,0,0,0,.661-6.387,124.048,124.048,0,0,0-4.907-30.326Z" transform="translate(-218.75 -66.836)" fill="#e8e8e8"/>
    <path id="Path_5095" data-name="Path 5095" d="M293.735,200.877a124.972,124.972,0,0,1-2.112-31.937c-1.524,4.232-3.056,8.514-3.47,12.985A27.067,27.067,0,0,0,293.735,200.877Z" transform="translate(-200.071 -64.681)" fill="#172f35"/>
    <path id="Path_5096" data-name="Path 5096" d="M323.148,176.522a7.781,7.781,0,0,1-3.949,1.328,10.307,10.307,0,0,1-5.037-1.19,4.007,4.007,0,0,1-2.221-2.1,4.515,4.515,0,0,1,0-2.134c.189-1.1.378-2.178.559-3.3a2.221,2.221,0,0,1,.377-1.052,2.04,2.04,0,0,1,1.372-.581,18.307,18.307,0,0,1,6.162.181,4.313,4.313,0,0,1,3.245,1.953A4.979,4.979,0,0,1,324,171.39l.189,2.9a2.715,2.715,0,0,1-.065,1.082A2.425,2.425,0,0,1,323.148,176.522Z" transform="translate(-247.798 -64.235)" fill="#172f35"/>
    <path id="Path_5097" data-name="Path 5097" d="M322.353,147.864a.813.813,0,0,1-.6-.058l-3.818-1.343a35.246,35.246,0,0,1,5.183-6.533q-.2,3.571-.406,7.142C322.709,147.37,322.643,147.747,322.353,147.864Z" transform="translate(-251.155 -56.728)" fill="#ffc088"/>
    <rect id="Rectangle_2590" data-name="Rectangle 2590" width="13.312" height="24.418" rx="1.61" transform="translate(71.307 76.357)" fill="#a6bebd"/>
    <path id="Path_5098" data-name="Path 5098" d="M313.071,156.287c-.3.588-1.089.69-1.749.726a71.39,71.39,0,0,1-7.571-.406,1.452,1.452,0,0,1-.784-.232,1.386,1.386,0,0,1-.392-.82,39.711,39.711,0,0,1-.726-13.225l10.089-.965a1.524,1.524,0,0,1,1.241.24,1.553,1.553,0,0,1,.3,1.169l-.261,12.688a1.909,1.909,0,0,1-.152.827Z" transform="translate(-229.671 -57.109)" fill="#172f35"/>
    <path id="Path_5099" data-name="Path 5099" d="M301.514,160.62c.036-3.419.094-9.233.123-12.4,0-1.64,1.285-2.381,2.707-2.751,1.278-.334,14.873-3.143,14.865-3.172a2.584,2.584,0,0,1-.588,1.96,7.84,7.84,0,0,1-1.575,1.4,9.493,9.493,0,0,1,1.793,1.524,3.194,3.194,0,0,1,.813,2.178,1.924,1.924,0,0,1-1.328,1.764,3.97,3.97,0,0,1,1.016,2.011c.058.762-.515,1.619-1.278,1.553a9.838,9.838,0,0,1,.436,2.824,6.359,6.359,0,0,0-3.629,4.6,1.357,1.357,0,0,1-1.111-.726.138.138,0,0,0-.036-.094,21.438,21.438,0,0,0-3.288,3.3,15.969,15.969,0,0,1-8.935-1.14C301.5,162.479,301.507,161.542,301.514,160.62Z" transform="translate(-235.752 -57.378)" fill="#ffc088"/>
    <path id="Path_5100" data-name="Path 5100" d="M223.686,154.438c4.718,5.139,6.438,12.383,6.874,19.351.632,10.162-1.082,20.324-3.4,30.217-1.7,7.258-3.753,14.568-7.258,21.18s-8.572,12.572-15.177,16.092c-10.039,5.357-22.24,4.478-33.389,2.025s-22.044-6.344-33.389-6.583c-3.854-.087-8.384-.044-10.67-3.143-1.561-2.112-1.452-4.979-1.3-7.6q.907-13.958,2.294-27.844c.907-9.117,1.989-18.27,4.682-27.023s7.106-17.159,13.842-23.365a27.865,27.865,0,0,1,11.512-6.678c4.515-1.19,9.284-.871,13.929-.428q15.069,1.452,29.934,4.312C210.011,146.446,218.279,148.558,223.686,154.438Z" transform="translate(-19.331 -56.813)" fill="#f07824"/>
    <path id="Path_5101" data-name="Path 5101" d="M205.005,104.9l-2.178,26.385a5.9,5.9,0,0,1-6.685,5.422l-64.063-9.284a5.952,5.952,0,0,1-5.03-6.417l2.018-24.389a5.9,5.9,0,0,1,6.533-5.437l64.209,7.258A5.959,5.959,0,0,1,205.005,104.9Z" transform="translate(5.513 -43.352)" fill="#172f35"/>
    <path id="Path_5102" data-name="Path 5102" d="M208.117,106.259l-2.09,25.1a5.691,5.691,0,0,1-6.467,5.154l-61.937-8.834a5.676,5.676,0,0,1-4.863-6.1l1.953-23.227a5.683,5.683,0,0,1,6.293-5.168l62.082,6.925A5.683,5.683,0,0,1,208.117,106.259Z" transform="translate(-1.744 -43.904)" fill="#a6bebd"/>
    <path id="Path_5103" data-name="Path 5103" d="M199.065,152.745a199.389,199.389,0,0,1,42.39,7.121A1.227,1.227,0,0,1,242,161.9a23.391,23.391,0,0,0-2.272,2.78c-8.427,11.991-8.224,28-8.659,42.012-.356,11.519.051,23.046.472,34.565.058,1.51,0,3.288-1.2,4.2a4.747,4.747,0,0,1-3,.588,355.279,355.279,0,0,1-59.142-6.888c-1.016-26.8,1.278-50.555,9.625-70.465,1.118-2.657,8.892-12.891,11.345-14.408C192.053,152.5,195.675,152.549,199.065,152.745Z" transform="translate(-61.531 -60.215)" fill="#172f35"/>
    <path id="Path_5104" data-name="Path 5104" d="M139.988,172.3a37.431,37.431,0,0,1,5.081-8.877,14.067,14.067,0,0,1,7.832-5.284c5.473-1.176,11.214,2.243,13.973,7.113-3.462-3.005-8.6-3.629-12.964-2.221a20.545,20.545,0,0,0-10.5,8.478,45.612,45.612,0,0,0-5.371,12.6c-5.741,20.091-5.495,41.373-3.825,62.212C131.024,221.378,130.85,195.719,139.988,172.3Z" transform="translate(39.892 -61.657)" fill="#ffc088"/>
    <rect id="Rectangle_2591" data-name="Rectangle 2591" width="54.62" height="11.614" transform="translate(93.7 166.181)" fill="#172f35"/>
    <path id="Path_5105" data-name="Path 5105" d="M204.751,152.931a6.264,6.264,0,0,1,1.321-2.795c1.517-1.561,4.014-1.263,6.177-1.517,3.992-.465,7.425-3.179,9.7-6.533,7.868,3.593,17.036,4.282,24.084-1.386a28.079,28.079,0,0,0,2.323,1.938,43.4,43.4,0,0,0,13.994,6.533c1.728.508,3.571,1.016,4.805,2.33,2.178,2.3,1.561,5.959.922,9.059a144.893,144.893,0,0,0,.472,60.652,5.916,5.916,0,0,1-4.747,7.084,136.365,136.365,0,0,1-60.013-2.453C209.817,202.179,198.334,176.542,204.751,152.931Z" transform="translate(-113.098 -56.939)" fill="#a6bebd"/>
    <path id="Path_5106" data-name="Path 5106" d="M232.91,177.4a34.4,34.4,0,0,0,13.523,1.51v-5.284q-6.729-.552-13.4-1.735Z" transform="translate(-112.746 -65.49)" fill="#fff"/>
    <path id="Path_5107" data-name="Path 5107" d="M261.835,147.527c-3.44,3.673-3.535,9.262-3.448,14.3q.6,36.561-.465,73.122l-6.533-.559q.769-34.34,1.553-68.673c.138-6.221.29-12.521,1.967-18.516Z" transform="translate(-141.562 -58.721)" fill="#172f35"/>
    <path id="Path_5108" data-name="Path 5108" d="M257.725,205.033c.6-12.55,1.219-25.535.247-38.4-.53-7.041.849-12.579,2.41-18.306.247.058.494.1.726.145-1.553,5.683-2.9,11.164-2.4,18.11.98,12.906.356,25.906-.247,38.47-.189,4.043-.392,8.224-.537,12.339a90.212,90.212,0,0,0,.377,15.831.377.377,0,0,1-.319.421h-.051a.377.377,0,0,1-.37-.319,94.062,94.062,0,0,1-.385-15.969C257.333,213.264,257.493,209.062,257.725,205.033Z" transform="translate(-144.921 -59.031)" fill="#a6bebd"/>
    <path id="Path_5109" data-name="Path 5109" d="M259.94,141.284A25.608,25.608,0,0,1,231,143.033a8.188,8.188,0,0,0,2.374-3.411,24.955,24.955,0,0,0,11.977,2.388,14.493,14.493,0,0,0,10.59-5.56A12.151,12.151,0,0,0,259.94,141.284Z" transform="translate(-124.866 -55.774)" fill="#172f35"/>
    <path id="Path_5110" data-name="Path 5110" d="M238.877,347.76h7.694c9.755,0,17.667,16.39,17.667,36.6s-7.912,36.6-17.667,36.6h-7.694c-9.763,0-17.667-16.39-17.667-36.6S229.114,347.76,238.877,347.76Z" transform="translate(-122.059 -113.705)" fill="#172f35"/>
    <ellipse id="Ellipse_486" data-name="Ellipse 486" cx="8.238" cy="25.797" rx="8.238" ry="25.797" transform="translate(119.917 244.863)" fill="#a6bebd"/>
    <ellipse id="Ellipse_487" data-name="Ellipse 487" cx="6.903" cy="21.601" rx="6.903" ry="21.601" transform="translate(123.118 243.934)" fill="#172f35"/>
    <path id="Path_5111" data-name="Path 5111" d="M238.5,295.695a46.215,46.215,0,0,1,63.04-8.935c3.433,2.446,6.6,5.466,8.275,9.327,2.461,5.669,1.365,12.173.225,18.241q-4.515,24.076-9.044,48.138a12.607,12.607,0,0,1-1.858,5.328c-1.452,2.011-3.97,2.954-6.366,3.629-17.812,5.081-36.822,1.452-54.976-2.279-3.665-.726-7.7-1.735-9.792-4.834a13.569,13.569,0,0,1-1.8-5.807,110.919,110.919,0,0,1,0-30.928C227.784,316.171,231.334,304.731,238.5,295.695Z" transform="translate(-171.952 -94.629)" fill="#172f35"/>
    <path id="Path_5112" data-name="Path 5112" d="M194.014,321.722c2.613-6.533,6.395-14.691,13.66-16.695,6.126-1.691,12.789,1.517,16.847,6.409s5.981,11.171,7.469,17.348a89.526,89.526,0,0,1-2.548,50.352c-14.691,1.633-26.551,2.526-41.961,1.88-.936-.036-1-16.832-.973-18.451a127.023,127.023,0,0,1,1.742-18.618,107.6,107.6,0,0,1,5.582-21.775C193.89,322.02,193.948,321.875,194.014,321.722Z" transform="translate(-67.077 -101.865)" fill="#f07824"/>
    <path id="Path_5113" data-name="Path 5113" d="M220.838,332.292c-3.252,8.086-3.172,17.21-1.336,25.731s5.335,16.586,8.812,24.577c.581,1.343,1.662,2.94,3.07,2.562,1.052-.283,1.452-1.51,1.749-2.57,1.989-7.9,3.992-15.838,4.7-23.953s.065-16.484-3.063-24.011c-1.016-2.439-2.366-4.87-4.566-6.337s-5.422-1.669-7.338.145Z" transform="translate(-93.75 -108.05)" fill="#172f35"/>
    <path id="Path_5114" data-name="Path 5114" d="M290.049,402.509c6.17-.682,12.942-1.662,17.043-6.329.791,2.548-.334,5.4-2.214,7.3a18.212,18.212,0,0,1-6.91,3.927c-18.2,6.663-38.318,5.284-57.451,2.221-.944-2.751,2.178.849,1.219-1.9C258.605,412.671,272.578,404.44,290.049,402.509Z" transform="translate(-179.052 -126.979)" fill="#f46b29"/>
    <path id="Path_5115" data-name="Path 5115" d="M203.752,414.4c-9.436,6.729-21.5,9.6-32.562,6.2C181.388,415.774,192.515,413.074,203.752,414.4Z" transform="translate(-25.265 -131.882)" fill="#172f35"/>
    <path id="Path_5116" data-name="Path 5116" d="M179.934,429.63l-1.524-16.092A94.557,94.557,0,0,0,198.6,412.29a118.738,118.738,0,0,0,2.083,14.756Z" transform="translate(-27.441 -131.396)" fill="#fff"/>
    <path id="Path_5117" data-name="Path 5117" d="M314.8,301.714a120.063,120.063,0,0,0,7.984-31.291c1.6-12.659,1.764-25.456,1.923-38.216a78.334,78.334,0,0,1,29.034,2.388c-6.438,23.859-14.227,48.632-28.221,70.16C321.913,303.928,318.342,302.832,314.8,301.714Z" transform="translate(-279.495 -81.908)" fill="#ffc088"/>
    <path id="Path_5118" data-name="Path 5118" d="M179.2,424.933a9.792,9.792,0,0,0-5.966,3.179c-2.54,3.034-2.4,7.447-1.894,11.374s1.183,8.137-.61,11.672c9.066,0,18.146.377,27.161,1.234.936-6.395.552-13.232-2.642-18.872S185.569,423.844,179.2,424.933Z" transform="translate(-19.51 -134.813)" fill="#0c4e5f"/>
    <path id="Path_5119" data-name="Path 5119" d="M198.014,423.977a3.79,3.79,0,0,1,2.954,1.452,4.2,4.2,0,0,1,.494,1.735,28.308,28.308,0,0,1-1.336,12.666,2.461,2.461,0,0,1-1.1,1.553,2.67,2.67,0,0,1-1.27.109,20.26,20.26,0,0,0-8.434,1.314,60.242,60.242,0,0,0-.443-12.681,4.983,4.983,0,0,1,.276-3.353,4.006,4.006,0,0,1,1.539-1.3,12.63,12.63,0,0,1,7.317-1.5Z" transform="translate(-35.917 -134.583)" fill="#f46b29"/>
    <path id="Path_5120" data-name="Path 5120" d="M179.072,438.047a2.9,2.9,0,0,0-2.424-1.314,2.642,2.642,0,0,0-1.757,1.517,22.247,22.247,0,0,0-1.357,4.667,6.676,6.676,0,0,1-2.41,4.116,20.672,20.672,0,0,0,8.58,4.166,4.878,4.878,0,0,0,1.858.131,1.894,1.894,0,0,0,1.452-1.074,2.838,2.838,0,0,0,0-1.539C182.3,444.95,181.518,441,179.072,438.047Z" transform="translate(-4.585 -138.092)" fill="#a6bebd"/>
    <path id="Path_5121" data-name="Path 5121" d="M168.795,452.57c.131-2.9.827-5.988,3.085-7.781,2.649-2.112,6.6-1.655,9.632-.138a67.909,67.909,0,0,1,6.533,4.246,13.612,13.612,0,0,0,7.215,2.613,3.865,3.865,0,0,1,2.4.4,3.393,3.393,0,0,1,.857,2.555,4.832,4.832,0,0,1-.631,3,4.409,4.409,0,0,1-3.02,1.19c-7.055.726-14.183.29-21.275-.174a6.118,6.118,0,0,1-3-.726C168.969,456.715,168.708,454.486,168.795,452.57Z" transform="translate(-18.276 -139.913)" fill="#ffc088"/>
    <path id="Path_5122" data-name="Path 5122" d="M234.844,95.832a28.1,28.1,0,0,0,3.963,23.6,10.024,10.024,0,0,0,3.738,3.513c2.9,1.357,6.293.269,9.3-.827,3.39-1.234,6.9-2.555,9.371-5.175a17.3,17.3,0,0,0,4.028-9.189c.668-4,.552-8.325-1.524-11.8-2.591-4.355-7.825-6.533-12.862-6.779s-10,1.147-14.858,2.533Z" transform="translate(-132.565 -42.804)" fill="#172f35"/>
    <path id="Path_5123" data-name="Path 5123" d="M235.91,139.175c.377-.479.726-.973,1.067-1.452,2.272-3.52,3.455-7.607,4.609-11.614l12.666.189a21.529,21.529,0,0,0,5.081,9.03C252.866,140.293,243.822,140.808,235.91,139.175Z" transform="translate(-127.824 -52.939)" fill="#ffc088"/>
    <path id="Path_5124" data-name="Path 5124" d="M234.742,104.535l.087-.45c.247-1.111.726-2.432.189-3.535-.886-1.728-.726-2.141.4-5.705l1.241-2.773a15.948,15.948,0,0,1,11.5-4.653,30.732,30.732,0,0,1,12.339,2.9c1.3.559,2.715,1.307,3.15,2.649a5.233,5.233,0,0,1,0,2.4c-.515,3.157-1.14,6.293-1.764,9.436a27.03,27.03,0,0,1-2.178,7.382c-1.517,2.9-4.007,5.139-6.453,7.317a13.123,13.123,0,0,1-3.223,2.33,8.158,8.158,0,0,1-7.309-.675,14.887,14.887,0,0,1-5.081-5.545,25.521,25.521,0,0,1-2.9-7.6,8.964,8.964,0,0,1,.007-3.477Z" transform="translate(-131.214 -42.332)" fill="#ffc088"/>
    <path id="Path_5125" data-name="Path 5125" d="M254.534,105.668a7.026,7.026,0,0,0-5.712-2.178,1.946,1.946,0,0,0-.472-.886,7.752,7.752,0,0,1,6.656,2.657,1.6,1.6,0,0,0-.472.406Z" transform="translate(-132.526 -46.485)" fill="#0c4e5f"/>
    <path id="Path_5126" data-name="Path 5126" d="M253.87,110.484a1.132,1.132,0,0,0,.66-.08.856.856,0,0,0,.356-.494,1.931,1.931,0,0,0,.036-1.2,1.553,1.553,0,0,0-.726-.922,1.111,1.111,0,0,0-1.132,0,1.72,1.72,0,0,0-.6,1.285,1.51,1.51,0,0,0,.044.675,1.016,1.016,0,0,0,.566.544A2.519,2.519,0,0,0,253.87,110.484Z" transform="translate(-135.492 -47.875)" fill="#0c4e5f"/>
    <path id="Path_5127" data-name="Path 5127" d="M253.747,109.207a.646.646,0,0,1,.624-.377c.276.051.414.363.457.639a1.118,1.118,0,0,1,0,.581.624.624,0,0,1-.385.421.639.639,0,0,1-.726-.37A1,1,0,0,1,253.747,109.207Z" transform="translate(-136.218 -48.201)" fill="#172f35"/>
    <path id="Path_5128" data-name="Path 5128" d="M253.551,109.412a.312.312,0,0,1-.247-.116.356.356,0,0,1,0-.494.283.283,0,0,1,.312,0,.363.363,0,0,1,.181.261.3.3,0,0,1-.247.348Z" transform="translate(-134.846 -48.181)" fill="#fff"/>
    <path id="Path_5129" data-name="Path 5129" d="M270.828,103.479a2.228,2.228,0,0,0-1.974,1.227h0a.428.428,0,0,1-.254-.428.987.987,0,0,1,.312-.552,3.447,3.447,0,0,1,1.052-.806,2.04,2.04,0,0,1,1.292-.174,1.016,1.016,0,0,1,.726.486.617.617,0,0,1,0,.53A2.177,2.177,0,0,0,270.828,103.479Z" transform="translate(-164.258 -46.524)" fill="#0c4e5f"/>
    <path id="Path_5130" data-name="Path 5130" d="M271.979,108.65a1.248,1.248,0,0,0-.232-.791,1.031,1.031,0,0,0-.994-.53.893.893,0,0,0-.581.53,2.636,2.636,0,0,0-.152.791,1.053,1.053,0,0,0,.232.9.842.842,0,0,0,.791.065,1.27,1.27,0,0,0,.936-.965Z" transform="translate(-165.214 -47.789)" fill="#0c4e5f"/>
    <path id="Path_5131" data-name="Path 5131" d="M271.089,108.429a.421.421,0,0,1,.421-.181.464.464,0,0,1,.24.283,1.1,1.1,0,0,1,.094.566.559.559,0,0,1-.341.436.515.515,0,0,1-.61-.37.813.813,0,0,1,.2-.733Z" transform="translate(-165.718 -48.041)" fill="#172f35"/>
    <path id="Path_5132" data-name="Path 5132" d="M271.052,108.542a.225.225,0,0,1-.189-.087.269.269,0,0,1,0-.377.24.24,0,0,1,.24,0,.291.291,0,0,1,.138.2.225.225,0,0,1-.189.261Z" transform="translate(-165.049 -47.987)" fill="#fff"/>
    <path id="Path_5133" data-name="Path 5133" d="M248.948,110.474c2.337-1.343,6.576-.769,9.1-.341a30.535,30.535,0,0,1,7.832,3.114,3.041,3.041,0,0,1,1.575,1.379,3.179,3.179,0,0,1,.16,1.227c0,2.119-.116,4.232-.29,6.344a6.14,6.14,0,0,1-.414,2.018,5.249,5.249,0,0,1-1.336,1.633,8.711,8.711,0,0,1-2.751,1.706c-1.648.588-6.112,1.546-7.738.907s-1.452-.726-2.671-1.982a26.081,26.081,0,0,1-5.451-8.376c-.559-1.452-1.19-3.978-.624-4.776a16.257,16.257,0,0,1,2.606-2.853Z" transform="translate(-143.526 -48.423)" fill="#172f35"/>
    <path id="Path_5134" data-name="Path 5134" d="M258.674,111.023a17.115,17.115,0,0,1,9.857,4.159c-.348,3.484-.436,6.583-.886,10.068a9.632,9.632,0,0,1-1.931,2.417c-1.894,1.452-3.774,1.749-6.119,2.1-3.695.566-6.162-1.822-8.188-4.958s-2.9-7.643-3.288-11.352C251.444,110.834,254.449,110.7,258.674,111.023Z" transform="translate(-145.884 -48.769)" fill="#fff"/>
    <path id="Path_5135" data-name="Path 5135" d="M238.458,116.415c2.9-1.546,4.805-2.628,6.656-3.666l1.147-.646-.363-.653-1.147.646c-1.851,1.045-3.767,2.119-6.642,3.629Z" transform="translate(-116.349 -48.92)" fill="#fff"/>
    <rect id="Rectangle_2592" data-name="Rectangle 2592" width="0.748" height="8.071" transform="translate(121.288 75.148) rotate(-115.97)" fill="#fff"/>
    <path id="Path_5136" data-name="Path 5136" d="M256.184,100.1c-3.448-2.758-14.793-2.112-21.775-2.635.145-.726.486-1.278.922-2.642l1.241-2.773a15.948,15.948,0,0,1,11.5-4.653,30.733,30.733,0,0,1,12.339,2.9c1.3.559,2.715,1.307,3.15,2.649a5.233,5.233,0,0,1,0,2.4c-.515,3.157-1.14,6.293-1.764,9.436a27.032,27.032,0,0,1-2.178,7.382,15.245,15.245,0,0,1-1.64,2.475C258.841,108.928,259.639,103.55,256.184,100.1Z" transform="translate(-131.099 -42.326)" fill="#172f35"/>
    <path id="Path_5137" data-name="Path 5137" d="M249.181,74.672A20.173,20.173,0,0,1,259.734,81.2,23.173,23.173,0,0,1,264.14,93.13a27.212,27.212,0,0,1-.98,11.57,16.738,16.738,0,0,1-7.607,9.53,3.353,3.353,0,0,1-2.032.457c-1.953-.254-2.337-2.257-2.41-3.92a47,47,0,0,1,1.009-11.737,4.631,4.631,0,0,0-4.283-5.633c-7.738-.363-15.424-.443-23.227-.994a1.684,1.684,0,0,1-1.016-.3,1.575,1.575,0,0,1-.363-1.2c0-5.9,3.666-11.5,8.783-14.423A22.981,22.981,0,0,1,249.181,74.672Z" transform="translate(-123.652 -38.599)" fill="#f07824"/>
    <path id="Path_5138" data-name="Path 5138" d="M266.93,121.256a1.873,1.873,0,0,0,1.263-.457.37.37,0,1,0-.494-.552,1.14,1.14,0,0,1-.864.261,1.88,1.88,0,0,1-1.27-.631,4.6,4.6,0,0,1-.849-2.591,23.162,23.162,0,0,1,.631-8.115c.073-.276.152-.559.232-.842.53-1.945,1.089-3.963.3-5.807a5.981,5.981,0,0,0-3.731-3.15,16.941,16.941,0,0,0-4.762-.631l-16.992-.624a10.96,10.96,0,0,1-4.428-.82.372.372,0,0,0-.327.668,11.541,11.541,0,0,0,4.754.871l17,.624a16.034,16.034,0,0,1,4.551.6,5.241,5.241,0,0,1,3.274,2.729c.726,1.64.174,3.52-.327,5.342-.08.29-.16.581-.232.864a23.736,23.736,0,0,0-.653,8.369,5.313,5.313,0,0,0,1.023,3.005,2.642,2.642,0,0,0,1.786.893Z" transform="translate(-136.458 -45.029)" fill="#a6bebd"/>
    <path id="Path_5139" data-name="Path 5139" d="M225.835,75.643a19.242,19.242,0,0,1,22.015,25.833,21.05,21.05,0,0,0-16.789-25.122Z" transform="translate(-110.36 -38.982)" fill="#ffc088"/>
    <path id="Path_5140" data-name="Path 5140" d="M223.236,160.989a2.736,2.736,0,0,0-3.005.29,6.576,6.576,0,0,0-1.858,2.577c-2.41,5.19-2.765,11.142-2,16.811s2.6,11.127,4.42,16.557a151.085,151.085,0,0,1-21.587,10.96,54.438,54.438,0,0,0,35.8-4.609c-7.019-11.788-8.2-26.007-10.351-39.559A4.225,4.225,0,0,0,223.236,160.989Z" transform="translate(-76.861 -62.414)" fill="#172f35"/>
    <path id="Path_5141" data-name="Path 5141" d="M202.655,221.058c-3.165.8-6.612,1.452-9.617.181-2.446-1.038-4.2-3.2-5.807-5.342s-3.215-5.016-2.025-7.454c1.074-2.178,3.832-2.86,6.221-3.4a63.526,63.526,0,0,0,20.883-8.942c-1.009-5.081-3.128-9.857-4.87-14.735s-3.128-10.024-2.591-15.178,3.375-10.3,8.093-12.477a7.142,7.142,0,0,1,4.987-.559c2.308.726,3.8,2.9,4.987,5.008,7.258,12.927,6.112,26.464,10.38,42.825a9.813,9.813,0,0,1-1.285,7.258c-1.415,2.4-4.05,3.745-6.576,4.892a134.4,134.4,0,0,1-22.777,7.926Z" transform="translate(-64.896 -60.292)" fill="#a6bebd"/>
    <path id="Path_5142" data-name="Path 5142" d="M251.658,237.093a4.953,4.953,0,0,1-.886,4.246,6.14,6.14,0,0,1-2.657,1.379,5.807,5.807,0,0,1-2.635.414,4.66,4.66,0,0,1-2.381-1.394,12.833,12.833,0,0,1-3.528-6.039,5.429,5.429,0,0,1,.2-3.891,4.427,4.427,0,0,1,3.049-2.076,7.026,7.026,0,0,1,5.937,1.764A9.646,9.646,0,0,1,251.658,237.093Z" transform="translate(-122.726 -81.32)" fill="#172f35"/>
    <path id="Path_5143" data-name="Path 5143" d="M185.19,240.136a.37.37,0,0,0,.334-.2c.4-.777.893-.726,1.887-.581a4.71,4.71,0,0,0,2.366-.065,96.39,96.39,0,0,1,9.93-2.657,97.483,97.483,0,0,0,9.828-2.577c6.09-2.054,12.114-4.878,14.945-11.57a.371.371,0,1,0-.682-.29c-2.722,6.424-8.58,9.16-14.517,11.156a96.939,96.939,0,0,1-9.755,2.555,97.428,97.428,0,0,0-9.98,2.649,4.021,4.021,0,0,1-2.011.036c-.936-.152-2-.312-2.664.973a.37.37,0,0,0,.16.5.385.385,0,0,0,.16.073Z" transform="translate(-55.923 -79.218)" fill="#e8e8e8"/>
    <path id="Path_5144" data-name="Path 5144" d="M200.545,433.647a16.636,16.636,0,0,0-7.164-2.083,9.987,9.987,0,0,0-6.954,2.3,3.477,3.477,0,0,0-1.016,2.294.269.269,0,0,0,.465.189,10.467,10.467,0,0,1,7.6-3.02,14.161,14.161,0,0,1,8.333,3.375,1.314,1.314,0,0,0,.3-1.771,3.782,3.782,0,0,0-1.568-1.285Z" transform="translate(-34.166 -136.676)" fill="#172f35"/>
    <path id="Path_5145" data-name="Path 5145" d="M200.736,437.207a16.7,16.7,0,0,0-7.164-2.083,9.945,9.945,0,0,0-6.954,2.3,3.455,3.455,0,0,0-1.016,2.286.269.269,0,0,0,.465.2,10.423,10.423,0,0,1,7.6-3.034A14.154,14.154,0,0,1,202,440.241a1.307,1.307,0,0,0,.3-1.764,3.723,3.723,0,0,0-1.568-1.27Z" transform="translate(-34.495 -137.651)" fill="#172f35"/>
    <path id="Path_5146" data-name="Path 5146" d="M202.673,442.957a10.888,10.888,0,0,0-7.258-3.506,12.5,12.5,0,0,0-7.832,2.178,2.635,2.635,0,0,0-1.074,1.118,1.016,1.016,0,0,0,.45,1.314,13.327,13.327,0,0,1,15.17-.385c.2.131.472.269.668.123S202.883,443.19,202.673,442.957Z" transform="translate(-35.466 -138.836)" fill="#172f35"/>
    <path id="Path_5147" data-name="Path 5147" d="M207.568,266.044h24.156c4.987.835,11.454-1.6,15.119,1.532,5.741,4.928,6.975,16.818,6.068,23.859a6.366,6.366,0,0,1-1.386,3.586c-1.858,2.018-5.277,1.909-8.209,1.916a44.052,44.052,0,0,0-15.751,2.947c-2.947,1.147-6.083,2.649-9.2,1.931-2.344-.537-4.094-2.228-5.691-3.847-3.753-3.789-7.534-7.665-9.828-12.281s-2.9-10.162-.29-14.619A15.467,15.467,0,0,1,207.568,266.044Z" transform="translate(-96.223 -91.269)" fill="#a6bebd"/>
    <path id="Path_5148" data-name="Path 5148" d="M176.647,275.923c1.524-1.822,3.39-3.767,5.771-3.8a8.169,8.169,0,0,1,4.769,2.127c9.784,7.549,16.84,18.059,22.995,28.78a278.239,278.239,0,0,1,28.976,72.461,214.584,214.584,0,0,0-32.6,6.257c-7.984-27.626-16.07-55.556-30.348-80.518-2.78-4.87-5.908-10.162-4.943-15.7C171.908,281.868,174.267,278.776,176.647,275.923Z" transform="translate(-60.599 -92.968)" fill="#a6bebd"/>
    <path id="Path_5149" data-name="Path 5149" d="M218.917,302.91a6.533,6.533,0,0,1-6.242,2.286,10.727,10.727,0,0,1-5.923-3.462A31.973,31.973,0,0,1,202.81,296,24.062,24.062,0,0,0,218.917,302.91Z" transform="translate(-63.382 -99.515)" fill="#172f35"/>
    <path id="Path_5150" data-name="Path 5150" d="M224.327,380.026h.094a.363.363,0,0,0,.261-.457c-5.437-20.36-13.791-41.707-25.63-65.247-2.983-5.945-6.373-12.02-12.006-15.243a.682.682,0,0,1-.348-.552.631.631,0,0,1,.254-.573l.929-.726a1.691,1.691,0,0,0,.639-1.452,1.648,1.648,0,0,0-.871-1.3,20.236,20.236,0,0,0-5.959-1.989,12.991,12.991,0,0,1,3.825-.24.9.9,0,0,0,.617-1.611,24.257,24.257,0,0,0-4.355-2.628l13.16,2.511a19.1,19.1,0,0,0,6.395.472,6.226,6.226,0,0,0,5.081-3.455.371.371,0,0,0-.682-.29,5.455,5.455,0,0,1-4.486,3.012,18.413,18.413,0,0,1-6.133-.472l-18.937-3.629a.37.37,0,0,0-.138.726A23.133,23.133,0,0,1,185.7,291.2a.157.157,0,0,1-.109.276,13.741,13.741,0,0,0-4.043.247.726.726,0,1,0,0,1.452,19.286,19.286,0,0,1,5.734,1.916.864.864,0,0,1,.472.726.929.929,0,0,1-.348.828l-.936.726a1.424,1.424,0,0,0,.189,2.359c5.458,3.136,8.776,9.1,11.708,14.945,11.788,23.5,20.157,44.792,25.579,65.109a.377.377,0,0,0,.385.24Z" transform="translate(-49.529 -96.816)" fill="#e8e8e8"/>
    <path id="Path_5151" data-name="Path 5151" d="M280.779,260.7c1.669-5.408,3.477-11.033,7.462-15.04,5.342-5.371,13.472-6.721,21.05-7.07,14.851-.69,30.072,1.5,43.333,8.224,4.558,2.315,8.957,5.241,11.947,9.393,3.8,5.27,4.95,11.976,5.386,18.458,1.5,22.5-4.479,44.792-7.012,67.228-.762,6.685-1,14.132,3.215,19.373,1.3,1.619,3.092,3.571,2.178,5.429-.682,1.365-2.446,1.691-3.97,1.836-22.175,2.178-45.169,2.25-66-5.654-11.773-4.471-23.067-11.962-28.62-23.263-3.883-7.9-4.645-17.036-3.666-25.782s3.586-17.217,6.191-25.63Z" transform="translate(-260.303 -83.744)" fill="#f07824"/>
    <path id="Path_5152" data-name="Path 5152" d="M317.58,346.742c3.934-7.679,11.033-14.118,19.547-15.511,7.846-1.292,16.012,1.865,21.877,7.258s9.632,12.71,11.882,20.324,3.107,15.584,3.941,23.488c.356,3.412.494,7.418-2.119,9.647-2.337,1.989-5.807,1.611-8.819,1.016a128.53,128.53,0,0,1-29.535-9.661c-8.13-3.8-16.47-9.2-19.184-17.747C313.211,359.358,314.619,352.506,317.58,346.742Z" transform="translate(-300.385 -109.094)" fill="#172f35"/>
    <path id="Path_5153" data-name="Path 5153" d="M279.084,264.889a2.9,2.9,0,0,1,4.413-.675c4.159,3.709,6.533,9.371,7.186,15,.806,7-.675,14.052-2.178,20.941l-7.774-1.256c.544-4.769.878-9.632-.073-14.328A20.135,20.135,0,0,0,275,273.824a2.272,2.272,0,0,1-.131-3.186A35.393,35.393,0,0,0,279.084,264.889Z" transform="translate(-187.249 -90.6)" fill="#fff"/>
    <path id="Path_5154" data-name="Path 5154" d="M384.549,257.612a15.855,15.855,0,0,0,.581,3.194,2.265,2.265,0,0,1-.624,2.3,29.491,29.491,0,0,0-8.079,12.528,1.531,1.531,0,0,1-1.749-1.125,4.485,4.485,0,0,1,.109-2.272,37.787,37.787,0,0,1,7.883-15.3,1.082,1.082,0,0,1,1.88.675Z" transform="translate(-354.368 -88.709)" fill="#fff"/>
    <path id="Path_5155" data-name="Path 5155" d="M281.469,337.091c-.675-10.452,1.5-20.846,3.339-31.161s3.31-20.941,1.256-31.211-8.3-20.229-17.965-24.229c10.213,3.136,16.47,12.107,19.01,22.5s1.452,22-.653,32.467S282,326.421,281.469,337.091Z" transform="translate(-180.438 -87.038)" fill="#ffc088"/>
    <path id="Path_5156" data-name="Path 5156" d="M311.05,240.959q.08-4.355.131-8.71a85.651,85.651,0,0,1,31.77,2.591c-.617,2.279-1.248,4.573-1.894,6.859-2.671,13.842-16.063,66.931-16.063,66.931l-13.341-3.194,17.42-61.124a93.025,93.025,0,0,1-18.023-3.353Z" transform="translate(-265.982 -81.906)" fill="#172f35"/>
    <path id="Path_5157" data-name="Path 5157" d="M327.943,243.35a80.569,80.569,0,0,0,26.726,3.237c-6,21.05-13.5,42.433-25.775,61.341-3.629-.828-7.171-1.923-10.714-3.041a120.063,120.063,0,0,0,7.984-31.291,278.591,278.591,0,0,0,1.778-30.246Z" transform="translate(-282.875 -85.081)" fill="#ffc088"/>
    <path id="Path_5158" data-name="Path 5158" d="M382.81,218.348c0,2.1,1.248,3.811,2.795,3.811s2.787-1.706,2.787-3.811-1.248-3.818-2.787-3.818S382.81,216.236,382.81,218.348Z" transform="translate(-363.51 -77.18)" fill="#172f35"/>
    <path id="Path_5159" data-name="Path 5159" d="M383.558,220.816a2.127,2.127,0,0,0,1.575,1.154,6.082,6.082,0,0,0,2.018,0l9.908-1.19-.239-3.629-9.284.53a6.272,6.272,0,0,0-2.9.639,2.178,2.178,0,0,0-1.074,2.5Z" transform="translate(-372.663 -77.898)" fill="#172f35"/>
    <path id="Path_5160" data-name="Path 5160" d="M275.674,210.834a13.066,13.066,0,0,0,10.96-4.05c1.88-1.822,3.332-4.145,5.567-5.516,3.629-2.243,8.34-1.357,12.615-.915,6.322.653,12.956.218,18.756,2.809,4.282,1.916,7.687,5.306,11.33,8.253a66.4,66.4,0,0,0,21.2,11.5,16.985,16.985,0,0,0-3.216,5.509,80.183,80.183,0,0,0-18.937-1.161c-9.835.377-19.714,1.575-29.491.479a30.584,30.584,0,0,1-11.614-3.3c-2.845-1.6-5.262-3.876-8.042-5.6s-5.291-2.57-8.42-1.619A4.7,4.7,0,0,1,275.674,210.834Z" transform="translate(-252.774 -73.142)" fill="#f07824"/>
    <path id="Path_5161" data-name="Path 5161" d="M303.584,219.134a2.766,2.766,0,0,1-1.089-.443c-1.59-1.132-1.219-3.731-2.555-5.161l7.868,6C306.531,218.894,304.977,219.417,303.584,219.134Z" transform="translate(-222.775 -76.905)" fill="#ffc088"/>
    <path id="Path_5162" data-name="Path 5162" d="M259.9,241.465a1.771,1.771,0,0,1-.987-2.076,5.59,5.59,0,0,0,.152-2.272,19.369,19.369,0,0,1-.436-2.635,6.352,6.352,0,0,1,1.452-3.528,5.53,5.53,0,0,1,2.054-1.938c1.307-.6,2.824-.189,4.2.218.886.269,1.916.661,2.178,1.561a2.381,2.381,0,0,1-.094,1.27,8.457,8.457,0,0,1-2.853,4.232c-.842.668-1.887,1.285-2.1,2.337a2.475,2.475,0,0,0,.769,2.134,8.574,8.574,0,0,0,1.945,1.336,49.1,49.1,0,0,1,14.161,12.869c.1.131.2.269.29.414l.044.051a1.807,1.807,0,0,1,.377,1.118,1.684,1.684,0,0,1-1.379,1.328c-.494.116-1.125.044-1.336-.414a1.575,1.575,0,0,1,.044-1.031,4.049,4.049,0,0,0,.1-1.023A53.822,53.822,0,0,0,259.9,241.465Z" transform="translate(-166.041 -81.069)" fill="#fff"/>
    <path id="Path_5163" data-name="Path 5163" d="M315,220.212c-1.611-2.577-1.452-5.858-.907-8.848.378-2.178.98-4.464,2.628-5.923,1.524-1.343,3.629-1.72,5.676-1.923a51,51,0,0,1,19.075,1.735c3.833,1.1,7.868,2.954,9.559,6.569a11.433,11.433,0,0,1-2.446,12.274c-3.1,2.838-7.338,2.635-11.534,2.729a47.551,47.551,0,0,1-14.9-2.119C317.209,223.159,316.5,222.607,315,220.212Z" transform="translate(-276.844 -74.093)" fill="#fff"/>
    <path id="Path_5164" data-name="Path 5164" d="M362.53,205.143A15.243,15.243,0,0,0,358.7,212.8a45.725,45.725,0,0,0-.69,8.63,17.137,17.137,0,0,1,0-13.022,6.751,6.751,0,0,1,1.662-2.548A3.063,3.063,0,0,1,362.53,205.143Z" transform="translate(-318.718 -74.579)" fill="#172f35"/>
    <path id="Path_5165" data-name="Path 5165" d="M395.9,224.032a5.748,5.748,0,0,1-1.582.051c-4.108.2-7.5-.138-10.837,1.452a1.045,1.045,0,0,1,.189,1.009.856.856,0,0,1-1.365-.392,1.4,1.4,0,0,1,.631-1.488,6.388,6.388,0,0,1,1.938-.871c3.31-.61,6.308-.907,9.617-1.517.871-.276,1.147-1.408.987-2.308a16.222,16.222,0,0,1-.624-2.657,2.983,2.983,0,0,1,2.8-2.831.5.5,0,0,1,.5.668,6.881,6.881,0,0,0,.494,5.807.66.66,0,0,1-.247.922C397.5,222.348,396.928,223.662,395.9,224.032Z" transform="translate(-373.483 -77.166)" fill="#fff"/>
    <ellipse id="Ellipse_488" data-name="Ellipse 488" cx="8.376" cy="8.376" rx="8.376" ry="8.376" transform="matrix(-0.925, -0.38, 0.38, -0.925, 27.126, 125.05)" fill="#fff"/>
    <path id="Path_5166" data-name="Path 5166" d="M384.351,208.7a.726.726,0,0,0,.726-.632l1.655-10.336a7.73,7.73,0,0,0-.3-3.7l-3.172-9.436a.744.744,0,1,0-1.408.479l3.172,9.436a6.328,6.328,0,0,1,.247,2.99L383.6,207.84a.726.726,0,0,0,.617.849Z" transform="translate(-361.219 -68.835)" fill="#fff"/>
    <ellipse id="Ellipse_489" data-name="Ellipse 489" cx="10.605" cy="10.605" rx="10.605" ry="10.605" transform="translate(106.475 115.393)" fill="#fff"/>
    <path id="Path_5167" data-name="Path 5167" d="M257.611,223.435a.726.726,0,0,0,.726-.573l3.237-13.588a5.146,5.146,0,0,1,2.526-3.3l11.36-6.191a.744.744,0,1,0-.711-1.307l-11.374,6.162a6.605,6.605,0,0,0-3.259,4.268l-3.23,13.617a.75.75,0,0,0,.726.915Z" transform="translate(-159.556 -72.75)" fill="#fff"/>
    <path id="Path_5168" data-name="Path 5168" d="M267.425,241.155l-1.72,4.2a189.865,189.865,0,0,0-24.8-8.492,15.6,15.6,0,0,1,2.236-4.355Z" transform="translate(-139.545 -82.109)" fill="#172f35"/>
    <path id="Path_5169" data-name="Path 5169" d="M278.177,232.179a2.316,2.316,0,0,0-1.6-2.221,3.346,3.346,0,0,0-2.8.421,6.126,6.126,0,0,0-1.967,2.141,7.425,7.425,0,0,0-1.161,3.411,4.028,4.028,0,0,0,.494,1.858,2.25,2.25,0,0,0,3.52.668C276.471,236.8,278.053,233.957,278.177,232.179Z" transform="translate(-171.884 -81.371)" fill="#172f35"/>
    <path id="Path_5170" data-name="Path 5170" d="M237.563,246.033c-.994,1.887-.559,4.065.965,4.863s3.564-.08,4.551-1.967.559-4.072-.965-4.87S238.55,244.138,237.563,246.033Z" transform="translate(-112.913 -85.194)" fill="#172f35"/>
    <path id="Path_5171" data-name="Path 5171" d="M368.687,348.66l8.369,1.1c10.6,1.394,16.869,20.324,13.994,42.317s-13.791,38.673-24.425,37.287c-1.452-.189-6.925-.915-8.369-1.1-10.6-1.394-16.869-20.324-13.987-42.317S358.046,347.273,368.687,348.66Z" transform="translate(-338.383 -113.929)" fill="#172f35"/>
    <ellipse id="Ellipse_490" data-name="Ellipse 490" cx="8.226" cy="27.251" rx="8.226" ry="27.251" transform="translate(43.794 303.926) rotate(-172.519)" fill="#a6bebd"/>
    <path id="Path_5172" data-name="Path 5172" d="M352.634,346.118a31.42,31.42,0,0,1,12.274-10.525c10.249-4.595,19.866-.726,24.773,9.059,3.426,6.845,6.366,15.969,5.923,23.677-.494,8.616-.682,18.335-2.57,26.762-16.353-1.916-39.813-5.807-54.156-11.135C340.911,371.051,344.991,356.715,352.634,346.118Z" transform="translate(-338.879 -109.841)" fill="#f07824"/>
    <path id="Path_5173" data-name="Path 5173" d="M372.021,339.943a13.348,13.348,0,0,1,6.286,7.527,5.3,5.3,0,0,0-5.611-1.336,8.659,8.659,0,0,0-4.537,3.912,25.945,25.945,0,0,0-2.294,5.654q-4.515,14.285-9.044,28.562a7.519,7.519,0,0,1-1.757,3.39c-1.764,1.633-4.544,1.2-6.9.675a3.44,3.44,0,0,0,3.237-1.394,10.053,10.053,0,0,0,1.524-3.368q5.9-19.177,10.576-38.775c.494-2.069,1.161-4.355,3.041-5.393C368.232,338.52,370.337,339.036,372.021,339.943Z" transform="translate(-328.282 -111.288)" fill="#ffc088"/>
    <path id="Path_5174" data-name="Path 5174" d="M362.638,368.56c.9,11.164-2.983,22.073-5.625,32.954a19.332,19.332,0,0,1-2.265,6.264c-1.234,1.858-3.39,3.3-5.6,2.983-2.424-.348-4.166-2.7-4.6-5.081s.138-4.878.726-7.258q4.442-18.5,8.9-37.018c1.64-1.669,4.66-1.1,6.242.639S362.457,366.223,362.638,368.56Z" transform="translate(-310.007 -117.172)" fill="#172f35"/>
    <path id="Path_5175" data-name="Path 5175" d="M351.4,408.805c0,4.928,1.372,8.928,3.07,8.928s3.07-4,3.07-8.928-1.379-8.935-3.07-8.935S351.4,403.869,351.4,408.805Z" transform="translate(-309.86 -127.991)" fill="#a6bebd"/>
    <path id="Path_5176" data-name="Path 5176" d="M353.563,408.541a1.626,1.626,0,0,1-1.844.363,2.831,2.831,0,0,1-1.372-1.4c-.958-1.894-.552-4.159-.073-6.228,2.671-11.577,6.787-22.828,8.826-34.536a6.351,6.351,0,0,1,.929-2.78,1.858,1.858,0,0,1,3.52.936,6.534,6.534,0,0,1-.341,2,170.983,170.983,0,0,0-4.508,20.977c-1.5.385-2.453,1.822-3.136,3.215a23.626,23.626,0,0,0-1.844,15.1A2.776,2.776,0,0,1,353.563,408.541Z" transform="translate(-314.686 -117.862)" fill="#a6bebd"/>
    <path id="Path_5177" data-name="Path 5177" d="M350.345,398.57a11.8,11.8,0,0,1,2.178,4.29A4.7,4.7,0,0,0,350.345,398.57Z" transform="translate(-304.087 -127.634)" fill="#a6bebd"/>
    <path id="Path_5178" data-name="Path 5178" d="M244.124,240.489c.515-1.532,1.415-5.473,2.853-6.206a14.545,14.545,0,0,1,5.858-1.125,22.607,22.607,0,0,1,6.3.073,6.794,6.794,0,0,1,3.84,2.236,5.158,5.158,0,0,1,1.677,3.963c-.065,1.7-2.86,4.66-4.558,4.725a1.169,1.169,0,0,1,.457,1.452,3.462,3.462,0,0,1-1.023,1.292l-2.751,2.49A5.081,5.081,0,0,1,254.5,250.8a4.515,4.515,0,0,1-3.23-1c-1.72-1.154-3.629-1.96-4.914-3.629C244.842,244.227,243.325,242.834,244.124,240.489Z" transform="translate(-138.948 -82.235)" fill="#ffc088"/>
  </g>
</svg>
