<svg xmlns="http://www.w3.org/2000/svg" width="348.083" height="196.296" viewBox="0 0 348.083 196.296">
  <g id="Background_Complete" data-name="Background Complete" transform="translate(0 0)">
    <rect id="Rectangle_2577" data-name="Rectangle 2577" width="55.79" height="43.03" transform="translate(277.241 81.625)" fill="#f5f5f5"/>
    <path id="Path_4822" data-name="Path 4822" d="M113.059,290.733c-.075,0-.139-9.588-.139-21.427s.064-21.427.139-21.427.139,9.588.139,21.427S113.156,290.733,113.059,290.733Z" transform="translate(205.995 -166.383)" fill="#ebebeb"/>
    <rect id="Rectangle_2578" data-name="Rectangle 2578" width="4.275" height="4.837" transform="translate(324.031 114.858)" fill="#fafafa"/>
    <rect id="Rectangle_2579" data-name="Rectangle 2579" width="6.337" height="9.181" transform="translate(294.264 81.732)" fill="#ebebeb"/>
    <rect id="Rectangle_2580" data-name="Rectangle 2580" width="6.337" height="9.181" transform="translate(294.264 115.345)" fill="#ebebeb"/>
    <rect id="Rectangle_2581" data-name="Rectangle 2581" width="92.103" height="71.035" transform="translate(255.98 125.261)" fill="#ebebeb"/>
    <path id="Path_4823" data-name="Path 4823" d="M187.692,399.968c.1,0,.182-15.834.182-35.354s-.08-35.354-.182-35.354-.182,15.829-.182,35.354S187.612,399.968,187.692,399.968Z" transform="translate(91.364 -204.171)" fill="#e0e0e0"/>
    <rect id="Rectangle_2582" data-name="Rectangle 2582" width="7.06" height="7.981" transform="translate(263.795 180.129)" fill="#fafafa"/>
    <rect id="Rectangle_2583" data-name="Rectangle 2583" width="10.462" height="15.159" transform="translate(309.525 125.443)" fill="#e0e0e0"/>
    <rect id="Rectangle_2584" data-name="Rectangle 2584" width="10.462" height="15.159" transform="translate(309.525 180.927)" fill="#e0e0e0"/>
    <path id="Path_4824" data-name="Path 4824" d="M360.26,95.879a6.508,6.508,0,0,0,2.678,0A6.509,6.509,0,0,0,360.26,95.879Z" transform="translate(-176.236 -95.74)" fill="#ebebeb"/>
    <path id="Path_4825" data-name="Path 4825" d="M370.26,95.879a6.508,6.508,0,0,0,2.678,0A6.509,6.509,0,0,0,370.26,95.879Z" transform="translate(-191.593 -95.74)" fill="#ebebeb"/>
    <path id="Path_4826" data-name="Path 4826" d="M380.26,95.879a6.508,6.508,0,0,0,2.678,0A6.509,6.509,0,0,0,380.26,95.879Z" transform="translate(-206.95 -95.74)" fill="#ebebeb"/>
    <path id="Path_4827" data-name="Path 4827" d="M390.26,95.879a6.508,6.508,0,0,0,2.678,0A6.509,6.509,0,0,0,390.26,95.879Z" transform="translate(-222.307 -95.74)" fill="#ebebeb"/>
    <path id="Path_4828" data-name="Path 4828" d="M400.26,95.879a6.508,6.508,0,0,0,2.678,0,6.508,6.508,0,0,0-2.678,0Z" transform="translate(-237.663 -95.74)" fill="#ebebeb"/>
    <path id="Path_4829" data-name="Path 4829" d="M410.26,95.879a6.508,6.508,0,0,0,2.678,0A6.509,6.509,0,0,0,410.26,95.879Z" transform="translate(-253.02 -95.74)" fill="#ebebeb"/>
    <path id="Path_4830" data-name="Path 4830" d="M420.26,95.879a6.508,6.508,0,0,0,2.678,0A6.509,6.509,0,0,0,420.26,95.879Z" transform="translate(-268.377 -95.74)" fill="#ebebeb"/>
    <path id="Path_4831" data-name="Path 4831" d="M430.26,95.879a6.508,6.508,0,0,0,2.678,0A6.509,6.509,0,0,0,430.26,95.879Z" transform="translate(-283.733 -95.74)" fill="#ebebeb"/>
    <path id="Path_4832" data-name="Path 4832" d="M440.26,95.879a6.508,6.508,0,0,0,2.678,0A6.509,6.509,0,0,0,440.26,95.879Z" transform="translate(-299.09 -95.74)" fill="#ebebeb"/>
    <path id="Path_4833" data-name="Path 4833" d="M450.26,95.879a6.508,6.508,0,0,0,2.678,0A6.509,6.509,0,0,0,450.26,95.879Z" transform="translate(-314.447 -95.74)" fill="#ebebeb"/>
    <path id="Path_4834" data-name="Path 4834" d="M460.26,95.879a6.508,6.508,0,0,0,2.678,0A6.509,6.509,0,0,0,460.26,95.879Z" transform="translate(-329.803 -95.74)" fill="#ebebeb"/>
    <path id="Path_4835" data-name="Path 4835" d="M470.26,95.879a6.508,6.508,0,0,0,2.678,0A6.509,6.509,0,0,0,470.26,95.879Z" transform="translate(-345.16 -95.74)" fill="#ebebeb"/>
    <path id="Path_4836" data-name="Path 4836" d="M480.26,95.879a6.508,6.508,0,0,0,2.678,0A6.509,6.509,0,0,0,480.26,95.879Z" transform="translate(-360.517 -95.74)" fill="#ebebeb"/>
    <path id="Path_4837" data-name="Path 4837" d="M490.26,95.879a6.508,6.508,0,0,0,2.678,0A6.509,6.509,0,0,0,490.26,95.879Z" transform="translate(-375.873 -95.74)" fill="#ebebeb"/>
    <path id="Path_4838" data-name="Path 4838" d="M500.26,95.879a6.508,6.508,0,0,0,2.678,0A6.509,6.509,0,0,0,500.26,95.879Z" transform="translate(-391.23 -95.74)" fill="#ebebeb"/>
    <path id="Path_4839" data-name="Path 4839" d="M510.26,95.879a6.508,6.508,0,0,0,2.678,0A6.509,6.509,0,0,0,510.26,95.879Z" transform="translate(-406.587 -95.74)" fill="#ebebeb"/>
    <path id="Path_4840" data-name="Path 4840" d="M520.26,95.879a6.508,6.508,0,0,0,2.678,0A6.509,6.509,0,0,0,520.26,95.879Z" transform="translate(-421.944 -95.74)" fill="#ebebeb"/>
    <path id="Path_4841" data-name="Path 4841" d="M530.26,95.879a6.509,6.509,0,0,0,2.678,0A6.509,6.509,0,0,0,530.26,95.879Z" transform="translate(-437.3 -95.74)" fill="#ebebeb"/>
    <path id="Path_4842" data-name="Path 4842" d="M540.26,95.879a6.508,6.508,0,0,0,2.678,0A6.509,6.509,0,0,0,540.26,95.879Z" transform="translate(-452.657 -95.74)" fill="#ebebeb"/>
    <path id="Path_4843" data-name="Path 4843" d="M550.26,95.879a6.508,6.508,0,0,0,2.678,0A6.509,6.509,0,0,0,550.26,95.879Z" transform="translate(-468.014 -95.74)" fill="#ebebeb"/>
    <path id="Path_4844" data-name="Path 4844" d="M560.26,95.879a6.509,6.509,0,0,0,2.678,0A6.509,6.509,0,0,0,560.26,95.879Z" transform="translate(-483.37 -95.74)" fill="#ebebeb"/>
    <path id="Path_4845" data-name="Path 4845" d="M570.26,95.879a6.508,6.508,0,0,0,2.678,0A6.509,6.509,0,0,0,570.26,95.879Z" transform="translate(-498.727 -95.74)" fill="#ebebeb"/>
    <path id="Path_4846" data-name="Path 4846" d="M580.26,95.879a6.508,6.508,0,0,0,2.678,0A6.509,6.509,0,0,0,580.26,95.879Z" transform="translate(-514.084 -95.74)" fill="#ebebeb"/>
    <path id="Path_4847" data-name="Path 4847" d="M587.687,101.088a6.508,6.508,0,0,0,0-2.678,6.508,6.508,0,0,0,0,2.678Z" transform="translate(-522.882 -96.98)" fill="#ebebeb"/>
    <path id="Path_4848" data-name="Path 4848" d="M587.687,111.088a6.508,6.508,0,0,0,0-2.678,6.508,6.508,0,0,0,0,2.678Z" transform="translate(-522.882 -101.623)" fill="#ebebeb"/>
    <path id="Path_4849" data-name="Path 4849" d="M587.687,121.088a6.508,6.508,0,0,0,0-2.678,6.508,6.508,0,0,0,0,2.678Z" transform="translate(-522.882 -106.266)" fill="#ebebeb"/>
    <path id="Path_4850" data-name="Path 4850" d="M587.7,131.088a6.507,6.507,0,0,0,0-2.678A6.509,6.509,0,0,0,587.7,131.088Z" transform="translate(-522.894 -110.91)" fill="#ebebeb"/>
    <path id="Path_4851" data-name="Path 4851" d="M587.7,141.088a6.507,6.507,0,0,0,0-2.678A6.509,6.509,0,0,0,587.7,141.088Z" transform="translate(-522.894 -115.553)" fill="#ebebeb"/>
    <path id="Path_4852" data-name="Path 4852" d="M587.54,150.044c0,.07.445.123,1.045.139h.134v-.434a3.378,3.378,0,0,0-.139-1.339,3.275,3.275,0,0,0-.139,1.339v.295l.139-.134A2.486,2.486,0,0,0,587.54,150.044Z" transform="translate(-523.78 -120.196)" fill="#ebebeb"/>
    <path id="Path_4853" data-name="Path 4853" d="M594.77,151.339a6.508,6.508,0,0,0,2.678,0A6.508,6.508,0,0,0,594.77,151.339Z" transform="translate(-536.366 -121.492)" fill="#ebebeb"/>
    <path id="Path_4854" data-name="Path 4854" d="M604.77,151.339a6.508,6.508,0,0,0,2.678,0A6.507,6.507,0,0,0,604.77,151.339Z" transform="translate(-551.723 -121.492)" fill="#ebebeb"/>
    <path id="Path_4855" data-name="Path 4855" d="M614.77,151.339a6.508,6.508,0,0,0,2.678,0A6.508,6.508,0,0,0,614.77,151.339Z" transform="translate(-567.079 -121.492)" fill="#ebebeb"/>
    <path id="Path_4856" data-name="Path 4856" d="M624.77,151.339a6.508,6.508,0,0,0,2.678,0A6.508,6.508,0,0,0,624.77,151.339Z" transform="translate(-582.436 -121.492)" fill="#ebebeb"/>
    <path id="Path_4857" data-name="Path 4857" d="M634.77,151.339a6.508,6.508,0,0,0,2.678,0A6.508,6.508,0,0,0,634.77,151.339Z" transform="translate(-597.793 -121.492)" fill="#ebebeb"/>
    <path id="Path_4858" data-name="Path 4858" d="M644.77,151.339a6.508,6.508,0,0,0,2.678,0A6.508,6.508,0,0,0,644.77,151.339Z" transform="translate(-613.149 -121.492)" fill="#ebebeb"/>
    <path id="Path_4859" data-name="Path 4859" d="M654.77,151.339a6.508,6.508,0,0,0,2.678,0A6.507,6.507,0,0,0,654.77,151.339Z" transform="translate(-628.506 -121.492)" fill="#ebebeb"/>
    <path id="Path_4860" data-name="Path 4860" d="M664.77,151.339a6.508,6.508,0,0,0,2.678,0A6.508,6.508,0,0,0,664.77,151.339Z" transform="translate(-643.863 -121.492)" fill="#ebebeb"/>
    <path id="Path_4861" data-name="Path 4861" d="M673.539,155.258a6.5,6.5,0,0,0,0-2.678,6.511,6.511,0,0,0,0,2.678Z" transform="translate(-654.716 -122.133)" fill="#ebebeb"/>
    <path id="Path_4862" data-name="Path 4862" d="M673.539,165.258a6.5,6.5,0,0,0,0-2.678A6.511,6.511,0,0,0,673.539,165.258Z" transform="translate(-654.716 -126.776)" fill="#ebebeb"/>
    <path id="Path_4863" data-name="Path 4863" d="M673.539,175.258a6.5,6.5,0,0,0,0-2.678,6.511,6.511,0,0,0,0,2.678Z" transform="translate(-654.716 -131.419)" fill="#ebebeb"/>
    <path id="Path_4864" data-name="Path 4864" d="M673.539,185.258a6.5,6.5,0,0,0,0-2.678A6.511,6.511,0,0,0,673.539,185.258Z" transform="translate(-654.716 -136.063)" fill="#ebebeb"/>
    <path id="Path_4865" data-name="Path 4865" d="M673.539,195.258a6.5,6.5,0,0,0,0-2.678A6.511,6.511,0,0,0,673.539,195.258Z" transform="translate(-654.716 -140.706)" fill="#ebebeb"/>
    <path id="Path_4866" data-name="Path 4866" d="M673.539,205.258a6.5,6.5,0,0,0,0-2.678A6.511,6.511,0,0,0,673.539,205.258Z" transform="translate(-654.716 -145.349)" fill="#ebebeb"/>
    <path id="Path_4867" data-name="Path 4867" d="M673.539,215.258a6.5,6.5,0,0,0,0-2.678A6.511,6.511,0,0,0,673.539,215.258Z" transform="translate(-654.716 -149.993)" fill="#ebebeb"/>
    <path id="Path_4868" data-name="Path 4868" d="M673.539,225.258a6.5,6.5,0,0,0,0-2.678A6.511,6.511,0,0,0,673.539,225.258Z" transform="translate(-654.716 -154.636)" fill="#ebebeb"/>
    <path id="Path_4869" data-name="Path 4869" d="M673.539,235.258a6.5,6.5,0,0,0,0-2.678A6.511,6.511,0,0,0,673.539,235.258Z" transform="translate(-654.716 -159.279)" fill="#ebebeb"/>
    <path id="Path_4870" data-name="Path 4870" d="M673.539,245.258a6.5,6.5,0,0,0,0-2.678A6.511,6.511,0,0,0,673.539,245.258Z" transform="translate(-654.716 -163.923)" fill="#ebebeb"/>
    <path id="Path_4871" data-name="Path 4871" d="M673.539,255.258a6.5,6.5,0,0,0,0-2.678A6.511,6.511,0,0,0,673.539,255.258Z" transform="translate(-654.716 -168.566)" fill="#ebebeb"/>
    <path id="Path_4872" data-name="Path 4872" d="M337.685,112.8s4.157-2.3,8.233,7.531a122.688,122.688,0,0,1,5.469,15.427s1.12,2.084,2.582.895,3.616-4.714,5.892-3.873c2.346.879,2.925,3.616,2.143,7.5s-2.143,12.5-2.255,13.274.236,1.934,1.361,1.28,7.81-7.007,10.638-3.659-1.071,13.863-1.5,15-.214,1.677.321,2.014,2.587-2.014,4.559-3.75,4.569-3.391,6.042-1.323,1.355,10.178-7.355,22.675l-4.409,5.528-7.044-.948c-14.94-2.946-20.65-8.7-21.03-11.212s2.635-3.053,5.26-3.15,5.726.145,5.892-.471-.075-1.125-1.168-1.677-11.212-5.389-11.506-9.765,8.935-4.441,10.178-4.757.707-1.4.091-1.864-7.585-5.716-10.842-7.987-4.746-4.644-3.664-6.9c1.039-2.175,5.035-1.136,6.915-1.3s1.237-2.432,1.237-2.432a123.04,123.04,0,0,1-6.776-14.9c-3.894-9.9.814-11.142.814-11.142" transform="translate(-181.768 -103.551)" fill="#ebebeb"/>
    <path id="Path_4873" data-name="Path 4873" d="M386.817,197.816c-2.887-7.264-6.964-17.265-11.506-28.3s-8.635-21.02-11.565-28.267c-1.457-3.616-2.635-6.546-3.46-8.571l-.943-2.33c-.107-.257-.187-.461-.252-.605a2.188,2.188,0,0,0-.091-.2.546.546,0,0,0,.07.214c.07.139.129.348.23.611.209.536.509,1.339.9,2.352.788,2.041,1.945,4.982,3.391,8.614,2.887,7.264,6.964,17.265,11.5,28.294s8.635,21.025,11.565,28.273" transform="translate(-199.44 -111.434)" fill="#e0e0e0"/>
    <path id="Path_4874" data-name="Path 4874" d="M385.761,159.78a2.254,2.254,0,0,0-.22.461c-.129.305-.3.75-.5,1.3-.412,1.1-.937,2.641-1.484,4.344s-1.012,3.214-1.387,4.376l-.423,1.323a2.006,2.006,0,0,0-.134.493,2.256,2.256,0,0,0,.22-.461c.129-.305.3-.75.5-1.3.4-1.1.905-2.646,1.457-4.355l1.414-4.36c.166-.536.311-.959.428-1.323a2,2,0,0,0,.134-.493Z" transform="translate(-210.496 -125.476)" fill="#e0e0e0"/>
    <path id="Path_4875" data-name="Path 4875" d="M404.6,178.317c0-.064-3.1-1.291-6.964-2.737s-7.028-2.577-7.049-2.512,3.091,1.291,6.964,2.737S404.582,178.387,404.6,178.317Z" transform="translate(-234.148 -131.644)" fill="#e0e0e0"/>
    <path id="Path_4876" data-name="Path 4876" d="M389.333,212.579a2.141,2.141,0,0,0-.536-.07l-1.414-.112c-1.195-.091-2.844-.225-4.66-.439s-3.45-.455-4.634-.643l-1.4-.22a1.807,1.807,0,0,0-.536-.048,2.5,2.5,0,0,0,.5.145c.327.075.8.177,1.393.295,1.173.225,2.812.5,4.634.712s3.476.321,4.676.37c.6,0,1.071.037,1.419.032A2.421,2.421,0,0,0,389.333,212.579Z" transform="translate(-211.143 -149.279)" fill="#e0e0e0"/>
    <path id="Path_4877" data-name="Path 4877" d="M370.355,194.81a1.987,1.987,0,0,0-.311.37c-.182.246-.45.611-.771,1.071-.643.9-1.521,2.143-2.475,3.551s-1.805,2.678-2.416,3.594c-.305.461-.536.841-.707,1.1a1.9,1.9,0,0,0-.236.423,3.981,3.981,0,0,0,.311-.37c.187-.246.45-.611.777-1.071.643-.905,1.516-2.143,2.475-3.551s1.805-2.678,2.416-3.594c.3-.461.536-.841.707-1.1A1.722,1.722,0,0,0,370.355,194.81Z" transform="translate(-185.357 -141.741)" fill="#e0e0e0"/>
    <path id="Path_4878" data-name="Path 4878" d="M356.209,220.59a2.939,2.939,0,0,0-.391.477c-.262.364-.6.814-1,1.361-.83,1.152-1.966,2.748-3.214,4.526s-2.357,3.391-3.15,4.569c-.375.536-.686,1.028-.932,1.4a3.748,3.748,0,0,0-.316.536,2.63,2.63,0,0,0,.391-.477l1-1.355c.83-1.152,1.966-2.753,3.214-4.526s2.352-3.391,3.144-4.569l.932-1.4A2.682,2.682,0,0,0,356.209,220.59Z" transform="translate(-162.517 -153.712)" fill="#e0e0e0"/>
    <path id="Path_4879" data-name="Path 4879" d="M380.377,241.84a3.588,3.588,0,0,0-.654-.107l-1.789-.2c-1.511-.171-3.594-.412-5.892-.745s-4.366-.686-5.86-.948l-1.773-.311a3.6,3.6,0,0,0-.659-.086,3.455,3.455,0,0,0,.637.177c.418.1,1.018.236,1.762.386,1.489.311,3.562.691,5.86,1.018s4.392.536,5.892.68c.755.064,1.371.107,1.794.129a3.689,3.689,0,0,0,.68.011Z" transform="translate(-195.545 -162.464)" fill="#e0e0e0"/>
    <path id="Path_4880" data-name="Path 4880" d="M638.52,265.7a18.823,18.823,0,1,1,35.049,9.508h0l-.054.07c-.718,1.216-1.607,2.084-2.539,3.364l-10.928,14.463a3.391,3.391,0,0,1-5.421,0l-10.751-14.233a40.768,40.768,0,0,1-2.732-3.626l-.038-.048h0A18.749,18.749,0,0,1,638.52,265.7Zm18.823,8.2a8.287,8.287,0,1,0-8.281-8.285,8.287,8.287,0,0,0,8.281,8.285Z" transform="translate(-638.52 -165.903)" fill="#f5f5f5"/>
    <path id="Path_4881" data-name="Path 4881" d="M591.035,125.054v22.134a.862.862,0,0,1-.863.862h-46.41a.857.857,0,0,1-.863-.873l.1-8.1a.921.921,0,0,1,.171-.536l6.658-8.9a.863.863,0,0,1,.686-.343l7.671-.059a.868.868,0,0,0,.857-.862v-3.348a.862.862,0,0,1,.862-.862h30.265a.862.862,0,0,1,.863.884Z" transform="translate(-502.167 -108.941)" fill="#f5f5f5"/>
    <path id="Path_4882" data-name="Path 4882" d="M617.889,136.723v7.1a.493.493,0,0,1-.5.493l-10.247-.182a.493.493,0,0,1-.4-.771l4.821-7.065a.488.488,0,0,1,.418-.22l5.458.15a.493.493,0,0,1,.455.493Z" transform="translate(-563.17 -114.471)" fill="#ebebeb"/>
    <rect id="Rectangle_2585" data-name="Rectangle 2585" width="49.994" height="1.543" transform="translate(39.811 39.784)" fill="#f5f5f5"/>
    <circle id="Ellipse_475" data-name="Ellipse 475" cx="4.944" cy="4.944" r="4.944" transform="translate(78.214 47.365) rotate(-135)" fill="#ebebeb"/>
    <path id="Path_4883" data-name="Path 4883" d="M557.36,168.589a2.909,2.909,0,1,0,2.909-2.909A2.909,2.909,0,0,0,557.36,168.589Z" transform="translate(-482.056 -128.215)" fill="#fafafa"/>
    <path id="Path_4884" data-name="Path 4884" d="M602.355,148.069c.123,0,.225-5.357.225-11.929s-.1-11.929-.225-11.929-.225,5.357-.225,11.929S602.232,148.069,602.355,148.069Z" transform="translate(-545.44 -108.96)" fill="#ebebeb"/>
    <circle id="Ellipse_476" data-name="Ellipse 476" cx="4.944" cy="4.944" r="4.944" transform="translate(51.267 47.363) rotate(-135)" fill="#ebebeb"/>
    <path id="Path_4885" data-name="Path 4885" d="M607.65,168.589a2.914,2.914,0,1,0,2.909-2.909A2.914,2.914,0,0,0,607.65,168.589Z" transform="translate(-559.295 -128.215)" fill="#fafafa"/>
    <path id="Path_4886" data-name="Path 4886" d="M607.17,153.885c0,.123.707.225,1.607.225s1.58-.1,1.58-.225-.707-.225-1.58-.225S607.17,153.756,607.17,153.885Z" transform="translate(-555.917 -122.634)" fill="#ebebeb"/>
  </g>
</svg>
