<svg xmlns="http://www.w3.org/2000/svg" width="375" height="221.884" viewBox="0 0 375 221.884">
  <g id="_3333447" data-name="3333447" transform="translate(0)">
    <g id="Background_Complete" data-name="Background Complete" transform="translate(9.288 24.437)">
      <rect id="Rectangle_2577" data-name="Rectangle 2577" width="55.79" height="43.03" transform="translate(277.241 81.625)" fill="#f5f5f5"/>
      <path id="Path_4822" data-name="Path 4822" d="M113.059,290.733c-.075,0-.139-9.588-.139-21.427s.064-21.427.139-21.427.139,9.588.139,21.427S113.156,290.733,113.059,290.733Z" transform="translate(205.995 -166.383)" fill="#ebebeb"/>
      <rect id="Rectangle_2578" data-name="Rectangle 2578" width="4.275" height="4.837" transform="translate(324.031 114.858)" fill="#fafafa"/>
      <rect id="Rectangle_2579" data-name="Rectangle 2579" width="6.337" height="9.181" transform="translate(294.264 81.732)" fill="#ebebeb"/>
      <rect id="Rectangle_2580" data-name="Rectangle 2580" width="6.337" height="9.181" transform="translate(294.264 115.345)" fill="#ebebeb"/>
      <rect id="Rectangle_2581" data-name="Rectangle 2581" width="92.103" height="71.035" transform="translate(255.98 125.261)" fill="#ebebeb"/>
      <path id="Path_4823" data-name="Path 4823" d="M187.692,399.968c.1,0,.182-15.834.182-35.354s-.08-35.354-.182-35.354-.182,15.829-.182,35.354S187.612,399.968,187.692,399.968Z" transform="translate(91.364 -204.171)" fill="#e0e0e0"/>
      <rect id="Rectangle_2582" data-name="Rectangle 2582" width="7.06" height="7.981" transform="translate(263.795 180.129)" fill="#fafafa"/>
      <rect id="Rectangle_2583" data-name="Rectangle 2583" width="10.462" height="15.159" transform="translate(309.525 125.443)" fill="#e0e0e0"/>
      <rect id="Rectangle_2584" data-name="Rectangle 2584" width="10.462" height="15.159" transform="translate(309.525 180.927)" fill="#e0e0e0"/>
      <path id="Path_4824" data-name="Path 4824" d="M360.26,95.879a6.508,6.508,0,0,0,2.678,0A6.509,6.509,0,0,0,360.26,95.879Z" transform="translate(-176.236 -95.74)" fill="#ebebeb"/>
      <path id="Path_4825" data-name="Path 4825" d="M370.26,95.879a6.508,6.508,0,0,0,2.678,0A6.509,6.509,0,0,0,370.26,95.879Z" transform="translate(-191.593 -95.74)" fill="#ebebeb"/>
      <path id="Path_4826" data-name="Path 4826" d="M380.26,95.879a6.508,6.508,0,0,0,2.678,0A6.509,6.509,0,0,0,380.26,95.879Z" transform="translate(-206.95 -95.74)" fill="#ebebeb"/>
      <path id="Path_4827" data-name="Path 4827" d="M390.26,95.879a6.508,6.508,0,0,0,2.678,0A6.509,6.509,0,0,0,390.26,95.879Z" transform="translate(-222.307 -95.74)" fill="#ebebeb"/>
      <path id="Path_4828" data-name="Path 4828" d="M400.26,95.879a6.508,6.508,0,0,0,2.678,0,6.508,6.508,0,0,0-2.678,0Z" transform="translate(-237.663 -95.74)" fill="#ebebeb"/>
      <path id="Path_4829" data-name="Path 4829" d="M410.26,95.879a6.508,6.508,0,0,0,2.678,0A6.509,6.509,0,0,0,410.26,95.879Z" transform="translate(-253.02 -95.74)" fill="#ebebeb"/>
      <path id="Path_4830" data-name="Path 4830" d="M420.26,95.879a6.508,6.508,0,0,0,2.678,0A6.509,6.509,0,0,0,420.26,95.879Z" transform="translate(-268.377 -95.74)" fill="#ebebeb"/>
      <path id="Path_4831" data-name="Path 4831" d="M430.26,95.879a6.508,6.508,0,0,0,2.678,0A6.509,6.509,0,0,0,430.26,95.879Z" transform="translate(-283.733 -95.74)" fill="#ebebeb"/>
      <path id="Path_4832" data-name="Path 4832" d="M440.26,95.879a6.508,6.508,0,0,0,2.678,0A6.509,6.509,0,0,0,440.26,95.879Z" transform="translate(-299.09 -95.74)" fill="#ebebeb"/>
      <path id="Path_4833" data-name="Path 4833" d="M450.26,95.879a6.508,6.508,0,0,0,2.678,0A6.509,6.509,0,0,0,450.26,95.879Z" transform="translate(-314.447 -95.74)" fill="#ebebeb"/>
      <path id="Path_4834" data-name="Path 4834" d="M460.26,95.879a6.508,6.508,0,0,0,2.678,0A6.509,6.509,0,0,0,460.26,95.879Z" transform="translate(-329.803 -95.74)" fill="#ebebeb"/>
      <path id="Path_4835" data-name="Path 4835" d="M470.26,95.879a6.508,6.508,0,0,0,2.678,0A6.509,6.509,0,0,0,470.26,95.879Z" transform="translate(-345.16 -95.74)" fill="#ebebeb"/>
      <path id="Path_4836" data-name="Path 4836" d="M480.26,95.879a6.508,6.508,0,0,0,2.678,0A6.509,6.509,0,0,0,480.26,95.879Z" transform="translate(-360.517 -95.74)" fill="#ebebeb"/>
      <path id="Path_4837" data-name="Path 4837" d="M490.26,95.879a6.508,6.508,0,0,0,2.678,0A6.509,6.509,0,0,0,490.26,95.879Z" transform="translate(-375.873 -95.74)" fill="#ebebeb"/>
      <path id="Path_4838" data-name="Path 4838" d="M500.26,95.879a6.508,6.508,0,0,0,2.678,0A6.509,6.509,0,0,0,500.26,95.879Z" transform="translate(-391.23 -95.74)" fill="#ebebeb"/>
      <path id="Path_4839" data-name="Path 4839" d="M510.26,95.879a6.508,6.508,0,0,0,2.678,0A6.509,6.509,0,0,0,510.26,95.879Z" transform="translate(-406.587 -95.74)" fill="#ebebeb"/>
      <path id="Path_4840" data-name="Path 4840" d="M520.26,95.879a6.508,6.508,0,0,0,2.678,0A6.509,6.509,0,0,0,520.26,95.879Z" transform="translate(-421.944 -95.74)" fill="#ebebeb"/>
      <path id="Path_4841" data-name="Path 4841" d="M530.26,95.879a6.509,6.509,0,0,0,2.678,0A6.509,6.509,0,0,0,530.26,95.879Z" transform="translate(-437.3 -95.74)" fill="#ebebeb"/>
      <path id="Path_4842" data-name="Path 4842" d="M540.26,95.879a6.508,6.508,0,0,0,2.678,0A6.509,6.509,0,0,0,540.26,95.879Z" transform="translate(-452.657 -95.74)" fill="#ebebeb"/>
      <path id="Path_4843" data-name="Path 4843" d="M550.26,95.879a6.508,6.508,0,0,0,2.678,0A6.509,6.509,0,0,0,550.26,95.879Z" transform="translate(-468.014 -95.74)" fill="#ebebeb"/>
      <path id="Path_4844" data-name="Path 4844" d="M560.26,95.879a6.509,6.509,0,0,0,2.678,0A6.509,6.509,0,0,0,560.26,95.879Z" transform="translate(-483.37 -95.74)" fill="#ebebeb"/>
      <path id="Path_4845" data-name="Path 4845" d="M570.26,95.879a6.508,6.508,0,0,0,2.678,0A6.509,6.509,0,0,0,570.26,95.879Z" transform="translate(-498.727 -95.74)" fill="#ebebeb"/>
      <path id="Path_4846" data-name="Path 4846" d="M580.26,95.879a6.508,6.508,0,0,0,2.678,0A6.509,6.509,0,0,0,580.26,95.879Z" transform="translate(-514.084 -95.74)" fill="#ebebeb"/>
      <path id="Path_4847" data-name="Path 4847" d="M587.687,101.088a6.508,6.508,0,0,0,0-2.678,6.508,6.508,0,0,0,0,2.678Z" transform="translate(-522.882 -96.98)" fill="#ebebeb"/>
      <path id="Path_4848" data-name="Path 4848" d="M587.687,111.088a6.508,6.508,0,0,0,0-2.678,6.508,6.508,0,0,0,0,2.678Z" transform="translate(-522.882 -101.623)" fill="#ebebeb"/>
      <path id="Path_4849" data-name="Path 4849" d="M587.687,121.088a6.508,6.508,0,0,0,0-2.678,6.508,6.508,0,0,0,0,2.678Z" transform="translate(-522.882 -106.266)" fill="#ebebeb"/>
      <path id="Path_4850" data-name="Path 4850" d="M587.7,131.088a6.507,6.507,0,0,0,0-2.678A6.509,6.509,0,0,0,587.7,131.088Z" transform="translate(-522.894 -110.91)" fill="#ebebeb"/>
      <path id="Path_4851" data-name="Path 4851" d="M587.7,141.088a6.507,6.507,0,0,0,0-2.678A6.509,6.509,0,0,0,587.7,141.088Z" transform="translate(-522.894 -115.553)" fill="#ebebeb"/>
      <path id="Path_4852" data-name="Path 4852" d="M587.54,150.044c0,.07.445.123,1.045.139h.134v-.434a3.378,3.378,0,0,0-.139-1.339,3.275,3.275,0,0,0-.139,1.339v.295l.139-.134A2.486,2.486,0,0,0,587.54,150.044Z" transform="translate(-523.78 -120.196)" fill="#ebebeb"/>
      <path id="Path_4853" data-name="Path 4853" d="M594.77,151.339a6.508,6.508,0,0,0,2.678,0A6.508,6.508,0,0,0,594.77,151.339Z" transform="translate(-536.366 -121.492)" fill="#ebebeb"/>
      <path id="Path_4854" data-name="Path 4854" d="M604.77,151.339a6.508,6.508,0,0,0,2.678,0A6.507,6.507,0,0,0,604.77,151.339Z" transform="translate(-551.723 -121.492)" fill="#ebebeb"/>
      <path id="Path_4855" data-name="Path 4855" d="M614.77,151.339a6.508,6.508,0,0,0,2.678,0A6.508,6.508,0,0,0,614.77,151.339Z" transform="translate(-567.079 -121.492)" fill="#ebebeb"/>
      <path id="Path_4856" data-name="Path 4856" d="M624.77,151.339a6.508,6.508,0,0,0,2.678,0A6.508,6.508,0,0,0,624.77,151.339Z" transform="translate(-582.436 -121.492)" fill="#ebebeb"/>
      <path id="Path_4857" data-name="Path 4857" d="M634.77,151.339a6.508,6.508,0,0,0,2.678,0A6.508,6.508,0,0,0,634.77,151.339Z" transform="translate(-597.793 -121.492)" fill="#ebebeb"/>
      <path id="Path_4858" data-name="Path 4858" d="M644.77,151.339a6.508,6.508,0,0,0,2.678,0A6.508,6.508,0,0,0,644.77,151.339Z" transform="translate(-613.149 -121.492)" fill="#ebebeb"/>
      <path id="Path_4859" data-name="Path 4859" d="M654.77,151.339a6.508,6.508,0,0,0,2.678,0A6.507,6.507,0,0,0,654.77,151.339Z" transform="translate(-628.506 -121.492)" fill="#ebebeb"/>
      <path id="Path_4860" data-name="Path 4860" d="M664.77,151.339a6.508,6.508,0,0,0,2.678,0A6.508,6.508,0,0,0,664.77,151.339Z" transform="translate(-643.863 -121.492)" fill="#ebebeb"/>
      <path id="Path_4861" data-name="Path 4861" d="M673.539,155.258a6.5,6.5,0,0,0,0-2.678,6.511,6.511,0,0,0,0,2.678Z" transform="translate(-654.716 -122.133)" fill="#ebebeb"/>
      <path id="Path_4862" data-name="Path 4862" d="M673.539,165.258a6.5,6.5,0,0,0,0-2.678A6.511,6.511,0,0,0,673.539,165.258Z" transform="translate(-654.716 -126.776)" fill="#ebebeb"/>
      <path id="Path_4863" data-name="Path 4863" d="M673.539,175.258a6.5,6.5,0,0,0,0-2.678,6.511,6.511,0,0,0,0,2.678Z" transform="translate(-654.716 -131.419)" fill="#ebebeb"/>
      <path id="Path_4864" data-name="Path 4864" d="M673.539,185.258a6.5,6.5,0,0,0,0-2.678A6.511,6.511,0,0,0,673.539,185.258Z" transform="translate(-654.716 -136.063)" fill="#ebebeb"/>
      <path id="Path_4865" data-name="Path 4865" d="M673.539,195.258a6.5,6.5,0,0,0,0-2.678A6.511,6.511,0,0,0,673.539,195.258Z" transform="translate(-654.716 -140.706)" fill="#ebebeb"/>
      <path id="Path_4866" data-name="Path 4866" d="M673.539,205.258a6.5,6.5,0,0,0,0-2.678A6.511,6.511,0,0,0,673.539,205.258Z" transform="translate(-654.716 -145.349)" fill="#ebebeb"/>
      <path id="Path_4867" data-name="Path 4867" d="M673.539,215.258a6.5,6.5,0,0,0,0-2.678A6.511,6.511,0,0,0,673.539,215.258Z" transform="translate(-654.716 -149.993)" fill="#ebebeb"/>
      <path id="Path_4868" data-name="Path 4868" d="M673.539,225.258a6.5,6.5,0,0,0,0-2.678A6.511,6.511,0,0,0,673.539,225.258Z" transform="translate(-654.716 -154.636)" fill="#ebebeb"/>
      <path id="Path_4869" data-name="Path 4869" d="M673.539,235.258a6.5,6.5,0,0,0,0-2.678A6.511,6.511,0,0,0,673.539,235.258Z" transform="translate(-654.716 -159.279)" fill="#ebebeb"/>
      <path id="Path_4870" data-name="Path 4870" d="M673.539,245.258a6.5,6.5,0,0,0,0-2.678A6.511,6.511,0,0,0,673.539,245.258Z" transform="translate(-654.716 -163.923)" fill="#ebebeb"/>
      <path id="Path_4871" data-name="Path 4871" d="M673.539,255.258a6.5,6.5,0,0,0,0-2.678A6.511,6.511,0,0,0,673.539,255.258Z" transform="translate(-654.716 -168.566)" fill="#ebebeb"/>
      <path id="Path_4872" data-name="Path 4872" d="M337.685,112.8s4.157-2.3,8.233,7.531a122.688,122.688,0,0,1,5.469,15.427s1.12,2.084,2.582.895,3.616-4.714,5.892-3.873c2.346.879,2.925,3.616,2.143,7.5s-2.143,12.5-2.255,13.274.236,1.934,1.361,1.28,7.81-7.007,10.638-3.659-1.071,13.863-1.5,15-.214,1.677.321,2.014,2.587-2.014,4.559-3.75,4.569-3.391,6.042-1.323,1.355,10.178-7.355,22.675l-4.409,5.528-7.044-.948c-14.94-2.946-20.65-8.7-21.03-11.212s2.635-3.053,5.26-3.15,5.726.145,5.892-.471-.075-1.125-1.168-1.677-11.212-5.389-11.506-9.765,8.935-4.441,10.178-4.757.707-1.4.091-1.864-7.585-5.716-10.842-7.987-4.746-4.644-3.664-6.9c1.039-2.175,5.035-1.136,6.915-1.3s1.237-2.432,1.237-2.432a123.04,123.04,0,0,1-6.776-14.9c-3.894-9.9.814-11.142.814-11.142" transform="translate(-181.768 -103.551)" fill="#ebebeb"/>
      <path id="Path_4873" data-name="Path 4873" d="M386.817,197.816c-2.887-7.264-6.964-17.265-11.506-28.3s-8.635-21.02-11.565-28.267c-1.457-3.616-2.635-6.546-3.46-8.571l-.943-2.33c-.107-.257-.187-.461-.252-.605a2.188,2.188,0,0,0-.091-.2.546.546,0,0,0,.07.214c.07.139.129.348.23.611.209.536.509,1.339.9,2.352.788,2.041,1.945,4.982,3.391,8.614,2.887,7.264,6.964,17.265,11.5,28.294s8.635,21.025,11.565,28.273" transform="translate(-199.44 -111.434)" fill="#e0e0e0"/>
      <path id="Path_4874" data-name="Path 4874" d="M385.761,159.78a2.254,2.254,0,0,0-.22.461c-.129.305-.3.75-.5,1.3-.412,1.1-.937,2.641-1.484,4.344s-1.012,3.214-1.387,4.376l-.423,1.323a2.006,2.006,0,0,0-.134.493,2.256,2.256,0,0,0,.22-.461c.129-.305.3-.75.5-1.3.4-1.1.905-2.646,1.457-4.355l1.414-4.36c.166-.536.311-.959.428-1.323a2,2,0,0,0,.134-.493Z" transform="translate(-210.496 -125.476)" fill="#e0e0e0"/>
      <path id="Path_4875" data-name="Path 4875" d="M404.6,178.317c0-.064-3.1-1.291-6.964-2.737s-7.028-2.577-7.049-2.512,3.091,1.291,6.964,2.737S404.582,178.387,404.6,178.317Z" transform="translate(-234.148 -131.644)" fill="#e0e0e0"/>
      <path id="Path_4876" data-name="Path 4876" d="M389.333,212.579a2.141,2.141,0,0,0-.536-.07l-1.414-.112c-1.195-.091-2.844-.225-4.66-.439s-3.45-.455-4.634-.643l-1.4-.22a1.807,1.807,0,0,0-.536-.048,2.5,2.5,0,0,0,.5.145c.327.075.8.177,1.393.295,1.173.225,2.812.5,4.634.712s3.476.321,4.676.37c.6,0,1.071.037,1.419.032A2.421,2.421,0,0,0,389.333,212.579Z" transform="translate(-211.143 -149.279)" fill="#e0e0e0"/>
      <path id="Path_4877" data-name="Path 4877" d="M370.355,194.81a1.987,1.987,0,0,0-.311.37c-.182.246-.45.611-.771,1.071-.643.9-1.521,2.143-2.475,3.551s-1.805,2.678-2.416,3.594c-.305.461-.536.841-.707,1.1a1.9,1.9,0,0,0-.236.423,3.981,3.981,0,0,0,.311-.37c.187-.246.45-.611.777-1.071.643-.905,1.516-2.143,2.475-3.551s1.805-2.678,2.416-3.594c.3-.461.536-.841.707-1.1A1.722,1.722,0,0,0,370.355,194.81Z" transform="translate(-185.357 -141.741)" fill="#e0e0e0"/>
      <path id="Path_4878" data-name="Path 4878" d="M356.209,220.59a2.939,2.939,0,0,0-.391.477c-.262.364-.6.814-1,1.361-.83,1.152-1.966,2.748-3.214,4.526s-2.357,3.391-3.15,4.569c-.375.536-.686,1.028-.932,1.4a3.748,3.748,0,0,0-.316.536,2.63,2.63,0,0,0,.391-.477l1-1.355c.83-1.152,1.966-2.753,3.214-4.526s2.352-3.391,3.144-4.569l.932-1.4A2.682,2.682,0,0,0,356.209,220.59Z" transform="translate(-162.517 -153.712)" fill="#e0e0e0"/>
      <path id="Path_4879" data-name="Path 4879" d="M380.377,241.84a3.588,3.588,0,0,0-.654-.107l-1.789-.2c-1.511-.171-3.594-.412-5.892-.745s-4.366-.686-5.86-.948l-1.773-.311a3.6,3.6,0,0,0-.659-.086,3.455,3.455,0,0,0,.637.177c.418.1,1.018.236,1.762.386,1.489.311,3.562.691,5.86,1.018s4.392.536,5.892.68c.755.064,1.371.107,1.794.129a3.689,3.689,0,0,0,.68.011Z" transform="translate(-195.545 -162.464)" fill="#e0e0e0"/>
      <path id="Path_4880" data-name="Path 4880" d="M638.52,265.7a18.823,18.823,0,1,1,35.049,9.508h0l-.054.07c-.718,1.216-1.607,2.084-2.539,3.364l-10.928,14.463a3.391,3.391,0,0,1-5.421,0l-10.751-14.233a40.768,40.768,0,0,1-2.732-3.626l-.038-.048h0A18.749,18.749,0,0,1,638.52,265.7Zm18.823,8.2a8.287,8.287,0,1,0-8.281-8.285,8.287,8.287,0,0,0,8.281,8.285Z" transform="translate(-638.52 -165.903)" fill="#f5f5f5"/>
      <path id="Path_4881" data-name="Path 4881" d="M591.035,125.054v22.134a.862.862,0,0,1-.863.862h-46.41a.857.857,0,0,1-.863-.873l.1-8.1a.921.921,0,0,1,.171-.536l6.658-8.9a.863.863,0,0,1,.686-.343l7.671-.059a.868.868,0,0,0,.857-.862v-3.348a.862.862,0,0,1,.862-.862h30.265a.862.862,0,0,1,.863.884Z" transform="translate(-502.167 -108.941)" fill="#f5f5f5"/>
      <path id="Path_4882" data-name="Path 4882" d="M617.889,136.723v7.1a.493.493,0,0,1-.5.493l-10.247-.182a.493.493,0,0,1-.4-.771l4.821-7.065a.488.488,0,0,1,.418-.22l5.458.15a.493.493,0,0,1,.455.493Z" transform="translate(-563.17 -114.471)" fill="#ebebeb"/>
      <rect id="Rectangle_2585" data-name="Rectangle 2585" width="49.994" height="1.543" transform="translate(39.811 39.784)" fill="#f5f5f5"/>
      <circle id="Ellipse_475" data-name="Ellipse 475" cx="4.944" cy="4.944" r="4.944" transform="translate(78.214 47.365) rotate(-135)" fill="#ebebeb"/>
      <path id="Path_4883" data-name="Path 4883" d="M557.36,168.589a2.909,2.909,0,1,0,2.909-2.909A2.909,2.909,0,0,0,557.36,168.589Z" transform="translate(-482.056 -128.215)" fill="#fafafa"/>
      <path id="Path_4884" data-name="Path 4884" d="M602.355,148.069c.123,0,.225-5.357.225-11.929s-.1-11.929-.225-11.929-.225,5.357-.225,11.929S602.232,148.069,602.355,148.069Z" transform="translate(-545.44 -108.96)" fill="#ebebeb"/>
      <circle id="Ellipse_476" data-name="Ellipse 476" cx="4.944" cy="4.944" r="4.944" transform="translate(51.267 47.363) rotate(-135)" fill="#ebebeb"/>
      <path id="Path_4885" data-name="Path 4885" d="M607.65,168.589a2.914,2.914,0,1,0,2.909-2.909A2.914,2.914,0,0,0,607.65,168.589Z" transform="translate(-559.295 -128.215)" fill="#fafafa"/>
      <path id="Path_4886" data-name="Path 4886" d="M607.17,153.885c0,.123.707.225,1.607.225s1.58-.1,1.58-.225-.707-.225-1.58-.225S607.17,153.756,607.17,153.885Z" transform="translate(-555.917 -122.634)" fill="#ebebeb"/>
    </g>
    <g id="Floor" transform="translate(0 220.594)">
      <path id="Path_4887" data-name="Path 4887" d="M26.08,462.069c0,.08,83.955.139,187.484.139s187.516-.059,187.516-.139-83.939-.139-187.516-.139S26.08,461.994,26.08,462.069Z" transform="translate(-26.08 -461.93)" fill="#263238"/>
    </g>
    <g id="Plant" transform="translate(291.47 168.621)">
      <path id="Path_4888" data-name="Path 4888" d="M118.638,414.661c-7.221-5.008-8.887-14.34-8.63-22.734.043-1.4-.118-2.877.536-4.109a2.849,2.849,0,0,1,3.471-1.489c1.039.487,1.5,1.693,2.084,2.678a8.191,8.191,0,0,0,3.294,3.128,3.146,3.146,0,0,0,2.882.246c1.205-.67,1.339-2.341,1.328-3.75q-.043-3.894-.075-7.789a12.926,12.926,0,0,1,.391-4.1,4.334,4.334,0,0,1,2.71-2.935,2.613,2.613,0,0,1,3.246,1.746,12.478,12.478,0,0,1,.048,1.736,1.468,1.468,0,0,0,.862,1.377,1.705,1.705,0,0,0,1.527-.643,18.28,18.28,0,0,0,3.31-5.035,25.11,25.11,0,0,1,3.085-5.191,7.541,7.541,0,0,1,5.094-2.882,4.521,4.521,0,0,1,4.639,3.059c.514,1.955-.627,3.964-1.87,5.555a31.066,31.066,0,0,1-6.428,6.2,2.556,2.556,0,0,0-1.071,1.168c-.295.932.584,1.848,1.505,2.143a15.829,15.829,0,0,0,3.251.354A3.12,3.12,0,0,1,146.509,385c.573,1.425-.611,2.919-1.778,3.9a26.533,26.533,0,0,1-7.874,4.58,9.031,9.031,0,0,0-2.925,1.435,2.268,2.268,0,0,0,2.046,4.028,19.955,19.955,0,0,0,3.053-1.178c1.912-.728,4.387-.605,5.619,1.045a4.419,4.419,0,0,1,.482,3.9,10.179,10.179,0,0,1-2.1,3.45,26.784,26.784,0,0,1-11.415,8.078c-4.435,1.559-8.571,1.987-12.969.391" transform="translate(-109.984 -364.905)" fill="#f07824"/>
      <path id="Path_4889" data-name="Path 4889" d="M113.99,418.042c.289-3.326.439-3.4,1.671-7.633a124.282,124.282,0,0,1,4.907-13.461q.75-1.752,1.468-3.46c.487-1.136.964-2.26,1.505-3.332a61.972,61.972,0,0,1,3.46-5.967c1.184-1.853,2.378-3.562,3.509-5.158s2.212-3.053,3.257-4.344a49.755,49.755,0,0,1,5.357-5.721c.686-.627,1.232-1.071,1.607-1.4l.429-.348c.1-.08.15-.118.155-.112a1.849,1.849,0,0,1-.139.134l-.412.37c-.364.321-.9.8-1.575,1.436a52.5,52.5,0,0,0-5.3,5.764c-1.034,1.291-2.105,2.759-3.214,4.355s-2.3,3.31-3.487,5.158a62.887,62.887,0,0,0-3.412,5.967c-.536,1.071-1.012,2.185-1.495,3.321s-.97,2.293-1.468,3.46a127.941,127.941,0,0,0-4.917,13.429c-1.237,4.221-1.4,4.285-1.72,7.58" transform="translate(-104.875 -365.924)" fill="#263238"/>
      <path id="Path_4890" data-name="Path 4890" d="M149.072,396.835a2.829,2.829,0,0,1-.134-.595c-.075-.386-.166-.943-.268-1.639-.2-1.387-.412-3.31-.643-5.432s-.466-4.039-.686-5.421c-.112-.691-.2-1.248-.279-1.634a2.512,2.512,0,0,1-.075-.605,3.407,3.407,0,0,1,.177.584c.1.38.22.937.354,1.607.268,1.377.536,3.3.766,5.421s.418,3.991.568,5.442c.07.654.134,1.205.182,1.645A2.387,2.387,0,0,1,149.072,396.835Z" transform="translate(-130.315 -372.615)" fill="#263238"/>
      <path id="Path_4891" data-name="Path 4891" d="M131.487,403.737a3.685,3.685,0,0,1-.718.091c-.455.043-1.125.1-1.944.2-1.639.182-3.894.536-6.369.991s-4.692,1.007-6.289,1.436c-.8.209-1.441.4-1.886.536a4.33,4.33,0,0,1-.7.171,4.2,4.2,0,0,1,.67-.273c.439-.155,1.071-.37,1.869-.6,1.607-.477,3.809-1.034,6.289-1.516a62.253,62.253,0,0,1,6.428-.916c.825-.075,1.495-.107,1.955-.118A4.02,4.02,0,0,1,131.487,403.737Z" transform="translate(-94.828 -382.929)" fill="#263238"/>
      <path id="Path_4892" data-name="Path 4892" d="M170.549,427.532a.972.972,0,0,1-.129-.22c-.08-.177-.182-.391-.305-.648-.268-.562-.627-1.387-1.071-2.411-.868-2.052-1.987-4.917-3.171-8.1s-2.277-6.058-3.1-8.121l-.991-2.443c-.1-.268-.193-.487-.262-.664s-.086-.236-.075-.241a1.035,1.035,0,0,1,.123.22l.305.643c.268.568.632,1.393,1.071,2.416.873,2.046,1.987,4.917,3.171,8.1s2.277,6.058,3.107,8.126c.4,1,.739,1.827.986,2.437.107.268.193.487.262.67A1.222,1.222,0,0,1,170.549,427.532Z" transform="translate(-159.527 -383.374)" fill="#263238"/>
      <path id="Path_4893" data-name="Path 4893" d="M140.828,432.86a1.182,1.182,0,0,1-.236.1l-.691.236-2.55.836c-2.143.7-5.1,1.714-8.373,2.828s-6.241,2.105-8.4,2.764c-1.071.332-1.961.589-2.571.755l-.707.193a1.417,1.417,0,0,1-.246.048,1.723,1.723,0,0,1,.236-.1l.686-.23,2.528-.836c2.143-.707,5.1-1.714,8.378-2.834s6.235-2.105,8.4-2.764c1.071-.332,1.961-.589,2.571-.755l.707-.187A.728.728,0,0,1,140.828,432.86Z" transform="translate(-106.028 -396.459)" fill="#263238"/>
    </g>
    <g id="Device" transform="translate(195.964)">
      <path id="Path_4894" data-name="Path 4894" d="M249.248,270.853H174.7a16.912,16.912,0,0,1-16.579-16.729l.793-187.757A16.311,16.311,0,0,1,175.3,50.12l74.892.348a16.306,16.306,0,0,1,16.236,16.381l-.793,187.757A16.311,16.311,0,0,1,249.248,270.853Z" transform="translate(-158.12 -50.12)" fill="#263238"/>
      <path id="Path_4895" data-name="Path 4895" d="M254.4,63.82l-14.522-.043a3.605,3.605,0,0,0-3.541,3.669v2.635a3.61,3.61,0,0,1-3.541,3.669l-28.3-.134a3.605,3.605,0,0,1-3.509-3.7v-2.63a3.621,3.621,0,0,0-3.514-3.707h-5.1l-12.711-.059A11.426,11.426,0,0,0,168.177,74.9L167.4,258.123A11.426,11.426,0,0,0,178.772,269.6l74.742.343a11.42,11.42,0,0,0,11.479-11.378l.755-183.268A11.431,11.431,0,0,0,254.4,63.82Z" transform="translate(-162.429 -56.342)" fill="#f5f5f5"/>
      <path id="Path_4896" data-name="Path 4896" d="M270.386,383.714c-.086,2.212-.166,4.285-.236,6.016h10.713l-1.312-6.6Z" transform="translate(-210.139 -204.747)" fill="#f5f5f5"/>
      <path id="Path_4897" data-name="Path 4897" d="M189.13,387.039l.091,3.257h42.237c.07-1.832.15-3.857.23-5.946Z" transform="translate(-172.519 -205.313)" fill="#f5f5f5"/>
      <path id="Path_4898" data-name="Path 4898" d="M262.68,331.808,264,338.439H283.8l-.236-7.949Z" transform="translate(-192.711 -153.457)" fill="#f5f5f5"/>
      <path id="Path_4899" data-name="Path 4899" d="M241.274,140.518l3.739-21.7-9.8-.729v22.428Z" transform="translate(-179.956 -54.833)" fill="#f5f5f5"/>
      <path id="Path_4900" data-name="Path 4900" d="M152.171,316.76l-10.638,4.167-.032,7.537,10.987-.7Z" transform="translate(-136.443 -147.082)" fill="#f5f5f5"/>
      <path id="Path_4901" data-name="Path 4901" d="M152.155,289.9l-.584-20.211h-.011v-7.13L141.7,263.6l-.129,30.431,10.579-4.146Z" transform="translate(-136.476 -121.915)" fill="#f5f5f5"/>
      <path id="Path_4902" data-name="Path 4902" d="M151.676,231.736l-9.787-1.3-.07,16.638,9.856-1.045Z" transform="translate(-136.592 -107)" fill="#f5f5f5"/>
      <path id="Path_4903" data-name="Path 4903" d="M286.032,262.869l-.413,5.8-11.56,1.243.895,4.585,13.124-.991-.2-6.573,1.05-4.35Z" transform="translate(-197.995 -121.924)" fill="#f5f5f5"/>
      <path id="Path_4904" data-name="Path 4904" d="M256.8,276.671l9.219-.7-2.009-10.285-8.046.814Z" transform="translate(-189.591 -123.368)" fill="#f5f5f5"/>
      <path id="Path_4905" data-name="Path 4905" d="M257.68,286.695l.707,8.576,1.248,11.763.514,2.577,21.057-1.328-.7-23.312Z" transform="translate(-190.389 -132.32)" fill="#f5f5f5"/>
      <path id="Path_4906" data-name="Path 4906" d="M193.783,239.641l.809,1.387-16.236,9.487v22.471l17.141-1.216,33.056-3.348L227.343,253.7l-31.556-4.125.209-1.607,31.213,4.076-2.046-24.925-30.9,2.968-.1-1.071,30.908-2.968L224,213.04h-29.73l-26.092,4.746-.129,29.783,9.872,1.339Zm-13.767,31.181s.123-18.523,0-19.214l13.252-7.049,1.719,25.321Z" transform="translate(-162.731 -125.769)" fill="#f5f5f5"/>
      <path id="Path_4907" data-name="Path 4907" d="M283.984,263.33l-12,1.211.911,4.66,10.756-1.157Z" transform="translate(-197.029 -122.272)" fill="#f5f5f5"/>
      <path id="Path_4908" data-name="Path 4908" d="M270.777,376.81c-.038.975-.075,1.939-.107,2.893l8.935-.568-.461-2.3Z" transform="translate(-210.381 -201.812)" fill="#f5f5f5"/>
      <path id="Path_4909" data-name="Path 4909" d="M177.928,138.076l1.575-7.135H191.5V115.61l-37.507-2.78v14.393l-11.715,2.652-.054,12.92,25.942-4.719Z" transform="translate(-136.778 -52.39)" fill="#f5f5f5"/>
      <path id="Path_4910" data-name="Path 4910" d="M271.548,108.157l-.321-1.312,14.324-5.667-9.315-18.706a3.331,3.331,0,0,1-.536.043L259.87,82.44l.428,26.178Z" transform="translate(-205.366 -65.127)" fill="#f5f5f5"/>
      <path id="Path_4911" data-name="Path 4911" d="M308.743,89.562V64.027L298.3,64a3.605,3.605,0,0,0-3.541,3.669V70.3a3.75,3.75,0,0,1-1.532,3.021l9.321,18.716Z" transform="translate(-220.856 -56.565)" fill="#f5f5f5"/>
      <path id="Path_4912" data-name="Path 4912" d="M204.109,90.414,202.9,63.524H200l-11.329-.054L183.85,87.516ZM201.527,66.25l.386,21.9-15.058-2.2,3.294-19.7Z" transform="translate(-170.067 -56.319)" fill="#f5f5f5"/>
      <path id="Path_4913" data-name="Path 4913" d="M221.622,90.55v.225c0,2.1.064,5.892.1,9.915l19.729-.8-.428-26.2-11.94-.059a3.605,3.605,0,0,1-3.509-3.7V67.3a3.621,3.621,0,0,0-3.514-3.707H220.39L221.6,90.55Z" transform="translate(-187.034 -56.374)" fill="#f5f5f5"/>
      <path id="Path_4914" data-name="Path 4914" d="M175.242,87.27l4.778-23.81A11.42,11.42,0,0,0,168.8,74.827L168.75,86.7l.054-.348Z" transform="translate(-163.056 -56.314)" fill="#f5f5f5"/>
      <path id="Path_4915" data-name="Path 4915" d="M152.433,111.965,142.4,111.22l-.07,16.258,10.1-2.282Z" transform="translate(-136.829 -51.643)" fill="#f5f5f5"/>
      <path id="Path_4916" data-name="Path 4916" d="M148.972,57.976l-6.38-.916-.112,26.328,1.371.1Z" transform="translate(-136.898 -26.495)" fill="#f5f5f5"/>
      <path id="Path_4917" data-name="Path 4917" d="M177.953,294.7l.166-21.132-16.879,1.194.595,20.7Z" transform="translate(-145.609 -127.027)" fill="#f5f5f5"/>
      <path id="Path_4918" data-name="Path 4918" d="M223.617,336.992l23.9,11.453c.289-7.5.536-14.463.536-14.929l.536-.027.257-.5c.337.166.337.166.161,5.271-.1,2.844-.241,6.632-.386,10.419h8.265l-1.216-11.485-1.607-19.82-31.235,3.15Z" transform="translate(-188.167 -174.213)" fill="#f5f5f5"/>
      <path id="Path_4919" data-name="Path 4919" d="M282.551,236.021l-.268-2.791-28.653,2.984,1.205,14.683,24.737-2.5Z" transform="translate(-188.509 -108.296)" fill="#f5f5f5"/>
      <path id="Path_4920" data-name="Path 4920" d="M223.874,149.64h-10.7l-1.221,5.528h11.924Z" transform="translate(-169.155 -69.482)" fill="#f5f5f5"/>
      <path id="Path_4921" data-name="Path 4921" d="M301.262,201.633l-26.81-1.853-1.071,6.332,1.13,13.745,28.273-2.721ZM275.437,206.1l1.441-4,23.285,1.473,1.345,11.431-25.284,3Z" transform="translate(-211.639 -119.612)" fill="#f5f5f5"/>
      <path id="Path_4922" data-name="Path 4922" d="M279.017,196.214l-1.178-12.154-28.289,2.716,1.061,12.942Z" transform="translate(-186.614 -85.465)" fill="#f5f5f5"/>
      <path id="Path_4923" data-name="Path 4923" d="M152.5,339.3l-10.976.7-.048-.712-.011,3.241H152.6Z" transform="translate(-136.429 -157.538)" fill="#f5f5f5"/>
      <path id="Path_4924" data-name="Path 4924" d="M337.878,83.562l.161.412.016-8.421A11.431,11.431,0,0,0,326.682,64.08H323.12V89.406Z" transform="translate(-234.735 -56.602)" fill="#f5f5f5"/>
      <path id="Path_4925" data-name="Path 4925" d="M231.529,351.854l-24.4-11.694-.862-16.75-1.018.1-.177,21.695-16.633.787v.482h0l.321,11.185,42.634-2.678Q231.476,353.415,231.529,351.854Zm-42.045-4.478,23.28-1.607,15.143,7.023-38.423,2.078Z" transform="translate(-172.198 -177.017)" fill="#f5f5f5"/>
      <path id="Path_4926" data-name="Path 4926" d="M325.55,134.868l1-5.919c-8.753-3.123-9.358-12.251-9.331-15l-5.71,2.261,8.6,17.265Z" transform="translate(-229.344 -79.758)" fill="#f5f5f5"/>
      <path id="Path_4927" data-name="Path 4927" d="M252.637,225.627l11.9-1.237-2.346-10.51-10.408,1.286Z" transform="translate(-187.65 -99.311)" fill="#f5f5f5"/>
      <path id="Path_4928" data-name="Path 4928" d="M276.4,119.659H254.185l-1.848-.139-2.507,14.554,26.376,1.821-.611-6.326,2.593-9.342Z" transform="translate(-186.744 -55.497)" fill="#f5f5f5"/>
      <path id="Path_4929" data-name="Path 4929" d="M305.424,143.666l.279-6.964-8.731-17.532-13.542,5.357,4.655,19.113Zm-8.983-22.343,8,15.224-1.157,4.746-13.692-.536-3.423-14.4Z" transform="translate(-216.305 -82.182)" fill="#f5f5f5"/>
      <path id="Path_4930" data-name="Path 4930" d="M304.88,266.168l.407,13.643,9.631-.541.027.536-9.642.541.493,16.327,9.1-.573.07,1.066-9.138.579.241,8.121h8.871l.193-45.526-9.069.916Z" transform="translate(-212.306 -120.884)" fill="#f5f5f5"/>
      <path id="Path_4931" data-name="Path 4931" d="M199.607,112.245,179.22,109.32l-5.1,25.4,25.578,1.9C199.8,132.718,199.709,120.708,199.607,112.245Z" transform="translate(-165.549 -77.608)" fill="#f5f5f5"/>
      <path id="Path_4932" data-name="Path 4932" d="M247.291,99.243h3.08L246.005,81.32l-11.345.466.273,16.547Z" transform="translate(-179.7 -37.759)" fill="#f5f5f5"/>
      <path id="Path_4933" data-name="Path 4933" d="M167.43,419.79v0Z" transform="translate(-162.443 -221.769)" fill="#f5f5f5"/>
      <path id="Path_4934" data-name="Path 4934" d="M222.84,147.349l20.029,1.484L242.6,132.35l-19.734.8C222.926,138.73,222.926,144.676,222.84,147.349Z" transform="translate(-188.171 -88.302)" fill="#f5f5f5"/>
      <path id="Path_4935" data-name="Path 4935" d="M289.689,209.74l-17.479,2.153,2.346,10.515,16.2-1.682Z" transform="translate(-197.136 -97.389)" fill="#f5f5f5"/>
      <path id="Path_4936" data-name="Path 4936" d="M332.052,123.065l1.12-6.642,4.821.375.064-14.308-14.886,5.892C322.865,118.448,329.192,121.988,332.052,123.065Z" transform="translate(-234.753 -74.437)" fill="#f5f5f5"/>
      <path id="Path_4937" data-name="Path 4937" d="M302.99,131.114l.611,6.278,10.9.755.054-12.926-9.128-2.882Z" transform="translate(-211.428 -56.806)" fill="#f5f5f5"/>
      <path id="Path_4938" data-name="Path 4938" d="M336.26,286.272,333.4,298.18l8.94-.905.054-12.486c-2.743-.723-5.137-1.312-6.428-1.559Z" transform="translate(-239.508 -158.36)" fill="#f5f5f5"/>
      <path id="Path_4939" data-name="Path 4939" d="M301.41,109.7l12.428,3.926.027-7.065-12.2-3.155Z" transform="translate(-210.695 -48.016)" fill="#f5f5f5"/>
      <path id="Path_4940" data-name="Path 4940" d="M335.82,257.822a64.891,64.891,0,0,1,6.589,1.527l.118-27.319-9.106.879Z" transform="translate(-239.517 -134.586)" fill="#f5f5f5"/>
      <path id="Path_4941" data-name="Path 4941" d="M305.877,168.533l9.224-.889.059-13.429-10.74-.745Z" transform="translate(-212.092 -71.261)" fill="#f5f5f5"/>
      <path id="Path_4942" data-name="Path 4942" d="M341.68,136.469a50.1,50.1,0,0,0,4.88,1.248v-6.782l-3.926-.305Z" transform="translate(-243.353 -87.503)" fill="#f5f5f5"/>
      <path id="Path_4943" data-name="Path 4943" d="M339.67,148.385l5.93,1.532.027-6.123c-1.537-.311-3.214-.729-4.971-1.264Z" transform="translate(-242.419 -93.029)" fill="#f5f5f5"/>
      <path id="Path_4944" data-name="Path 4944" d="M178.593,238.076l.091,3.214h.536l-.091-3.257,42.559-2.678c-.08,2.089-.161,4.114-.23,5.946h1.071c.07-1.73.15-3.8.236-6.016l9.187-.584,1.312,6.6h.536l-1.318-6.632,20.891-1.318.241,7.949h2.678l-.246-8.121,9.138-.579-.064-1.071-9.106.579-.487-16.327,9.642-.536-.032-.536-9.642.536-.412-13.643,1.184-4.912,9.074-.916v-.536l-8.94.905,2.86-11.908-.295-3.043c1.291.246,3.685.836,6.428,1.559v-1.687c-3.691-.975-5.587-1.377-6.589-1.527l-2.411-24.9,9.106-.879v-1.071l-9.224.889-1.462-15.063,10.713.745v-1.607L254.62,136.9l-.605-6.278,2.437-8.774,9.106,2.882v-2.8L253.136,118l.252-6.294,12.2,3.155V113.2l-5.93-1.532.986-5.855c1.778.536,3.434.953,4.971,1.264v-.536a50.1,50.1,0,0,1-4.88-1.248l.98-5.839,3.926.305V98.69l-4.821-.375-1.12,6.642c-2.86-1.071-9.187-4.617-8.881-14.688l14.886-5.892V83.7l-.161-.412-14.72,5.828V63.786h-.536V89.321l-6.2,2.459-9.321-18.716a3.4,3.4,0,0,1-1.494.605l9.315,18.706-14.211,5.662.321,1.312-11.249.461-.429-26.178h-.536l.429,26.2-19.729.8c-.032-4.039-.075-7.815-.1-9.915v-.225h0l-1.211-26.96h-.536l1.211,26.891-20.264-2.909L181.11,63.47h-1.639l-4.778,23.81-6.428-.921-.054.348v.182l6.385.916-5.121,25.514-1.377-.1V115.9l10.033.745v13.226l-10.1,2.287v1.65l11.715-2.678v-14.34l37.5,2.78V134.9h-12l-1.575,7.135H193.9L167.96,146.75v1.634l26.1-4.773h29.719l1.071,13.006-30.908,2.968.1,1.071,30.9-2.968,2.046,24.925-31.213-4.076-.209,1.607,31.556,4.125,1.221,14.7L195.305,202.3l-17.141,1.216V181.065l16.236-9.471-.809-1.387-15.883,9.251-9.9-1.318v1.607l9.8,1.318v14.3l-9.856,1.045v1.607l9.867-1.045v7.13h0l.584,20.211h0l-10.579,4.146v1.725l10.638-4.167.316,11.008-10.987.7v.359l.043.712Zm44.214-3.867c.032-.953.07-1.918.107-2.893h8.367l.461,2.3Zm9.471-.6-.536-2.577-1.248-11.785-.7-8.571,22.819-1.725.7,23.307Zm5.169-35.022,12.01-1.211-.337,4.714-10.762,1.157Zm-.536.054,2.009,10.285-9.219.7-.836-10.178Zm15.668,9.256-13.118.991-.895-4.585,11.56-1.243.412-5.8,2.893-.289-1.045,4.35Zm-15.534-37.009,2.341,10.51-11.9,1.237-.857-10.462Zm2.882,10.451-2.352-10.515,17.484-2.143,1.071,10.987Zm12.036-44.621-26.376-1.827,2.512-14.549,1.843.139h22.225l1.784.568-2.577,9.342Zm-1.607-46.244c-.027,2.764.579,11.892,9.331,15l-.964,5.957-5.442-1.409-8.6-17.286Zm-7.21,2.855,8.764,17.532-.279,6.964H234.3l-4.655-19.113ZM228.79,99.879l4.366,17.923h-3.048l-12.352-.911-.273-16.547Zm-11.881.487.268,16.483-20.029-1.484c.086-2.678.07-8.619,0-14.2ZM176.15,88.046l20.388,2.925c.1,8.464.193,20.463.091,24.373l-25.578-1.9Zm51.392,32.274-3.75,21.7h-6.016V119.576ZM206.5,136.492h10.713v5.528h-11.9Zm17.677,6.342,1.071-6.332,26.81,1.853,1.5,15.5-28.273,2.721Zm29.5,12.1,1.178,12.154-28.39,3.5-1.071-12.942Zm-26.1,29.322,28.653-2.984.273,2.791-2.978,12.379-24.743,2.5Zm2.346,35.081,1.216,11.485h-8.2c.145-3.787.284-7.574.386-10.419.177-5.1.177-5.1-.161-5.271l-.257.5-.536.027c0,.445-.23,7.446-.536,14.929L197.968,219.1l-.846-16.461,31.219-3.128Zm-34.958-16.456L194.8,224.01l-16.113.766-.6-20.7ZM178.71,225.8h0v-.482l16.632-.787.177-21.695,1.018-.1.862,16.75,24.4,11.694c-.038,1.039-.08,2.084-.118,3.123l-42.634,2.678Z" transform="translate(-162.517 -56.319)" fill="#fff"/>
      <path id="Path_4945" data-name="Path 4945" d="M187.61,314.98l-23.28,1.628v7.478L202.753,322Z" transform="translate(-147.044 -146.255)" fill="#ebebeb"/>
      <path id="Path_4946" data-name="Path 4946" d="M275.881,155.473,252.6,154l-1.436,4,.787,11.908,25.283-3Z" transform="translate(-187.362 -71.507)" fill="#ebebeb"/>
      <path id="Path_4947" data-name="Path 4947" d="M178.786,423.723l74.742.343a11.42,11.42,0,0,0,11.479-11.378l.075-17.238h-97.6l-.054,13.038v4.1A11.42,11.42,0,0,0,178.786,423.723Z" transform="translate(-162.443 -210.468)" fill="#ebebeb"/>
      <path id="Path_4948" data-name="Path 4948" d="M178.448,40.438l-.386-21.9H166.69l-3.3,19.7Z" transform="translate(-146.607 -8.609)" fill="#ebebeb"/>
      <path id="Path_4949" data-name="Path 4949" d="M279.6,93.04l1.157-4.746-8-15.224L262.49,78.127l3.423,14.4Z" transform="translate(-192.623 -33.929)" fill="#ebebeb"/>
      <path id="Path_4950" data-name="Path 4950" d="M190.39,278.889c.123.691,0,19.214,0,19.214l15-.943-1.719-25.321Z" transform="translate(-173.104 -153.071)" fill="#ebebeb"/>
      <path id="Path_4951" data-name="Path 4951" d="M256.837,250.189l-.787-11.479,25.669-3.3v1.982l-3.1,10.558Z" transform="translate(-189.632 -109.308)" fill="#ebebeb"/>
      <path id="Path_4952" data-name="Path 4952" d="M242.717,132.678a3.128,3.128,0,1,1-3.128-3.128A3.128,3.128,0,0,1,242.717,132.678Z" transform="translate(-194.496 -87.002)" fill="#f07824"/>
      <g id="Group_56403" data-name="Group 56403" transform="translate(41.962 42.551)" opacity="0.6">
        <path id="Path_4953" data-name="Path 4953" d="M242.709,132.547a3.128,3.128,0,1,1-3.257-2.989,3.128,3.128,0,0,1,3.257,2.989Z" transform="translate(-236.455 -129.555)" fill="#fff"/>
      </g>
      <ellipse id="Ellipse_477" data-name="Ellipse 477" cx="2.078" cy="2.078" rx="2.078" ry="2.078" transform="translate(43.014 43.491)" fill="#ed512d"/>
      <path id="Path_4954" data-name="Path 4954" d="M330.208,367.36a1.339,1.339,0,1,1-.39-.967,1.339,1.339,0,0,1,.39.967Z" transform="translate(-236.783 -196.793)" fill="#e8505b"/>
      <path id="Path_4955" data-name="Path 4955" d="M274.592,259.513l-.327-7.5-22.562,1.1a3.444,3.444,0,0,1-1.709-.364l-32.006-16.166a2.325,2.325,0,0,1-1.27-1.95l-4.36-84.5a1.409,1.409,0,0,1,1.516-1.478l13.718,1.012v-15H229.2v15.2a1.42,1.42,0,0,1-.429,1.045,1.441,1.441,0,0,1-1.071.37l-13.708-1.012,4.344,84.277a.718.718,0,0,0,.391.595l32.006,16.177a1.816,1.816,0,0,0,.905.193l22.755-1.109a1.43,1.43,0,0,1,1.023.37,1.409,1.409,0,0,1,.466.991l.327,7.676Z" transform="translate(-183.304 -89.379)" fill="#ed512d"/>
      <circle id="Ellipse_478" data-name="Ellipse 478" cx="4.05" cy="4.05" r="4.05" transform="translate(27.624 93.405)" fill="#ed512d"/>
      <ellipse id="Ellipse_479" data-name="Ellipse 479" cx="2.812" cy="2.812" rx="2.812" ry="2.812" transform="translate(28.862 94.642)" fill="#fafafa"/>
      <path id="Path_4956" data-name="Path 4956" d="M214.641,232.452a3.016,3.016,0,1,1,3.01-3.016,3.016,3.016,0,0,1-3.01,3.016Zm0-5.63a2.614,2.614,0,1,0,2.609,2.614,2.614,2.614,0,0,0-2.609-2.614Z" transform="translate(-182.962 -131.982)" fill="#ed512d"/>
      <path id="Path_4957" data-name="Path 4957" d="M243.6,200.34H224.318a1.7,1.7,0,0,0-1.7,1.7V209a1.7,1.7,0,0,0,1.7,1.7h.225v1.666l1.934-1.666h17.141a1.7,1.7,0,0,0,1.7-1.7v-6.964a1.7,1.7,0,0,0-1.714-1.7Z" transform="translate(-188.069 -119.872)" fill="#f07824"/>
      <g id="Group_56404" data-name="Group 56404" transform="translate(34.551 80.468)" opacity="0.4">
        <path id="Path_4958" data-name="Path 4958" d="M243.6,200.34H224.318a1.7,1.7,0,0,0-1.7,1.7V209a1.7,1.7,0,0,0,1.7,1.7h.225v1.666l1.934-1.666h17.141a1.7,1.7,0,0,0,1.7-1.7v-6.964a1.7,1.7,0,0,0-1.714-1.7Z" transform="translate(-222.62 -200.34)" fill="#fff"/>
      </g>
      <path id="Path_4959" data-name="Path 4959" d="M230.719,208.78a1.157,1.157,0,1,1,1.162,1.114,1.109,1.109,0,0,1-1.162-1.114Zm2,0a.846.846,0,1,0-.841.841.814.814,0,0,0,.841-.841Z" transform="translate(-191.83 -123.234)" fill="#fff"/>
      <path id="Path_4960" data-name="Path 4960" d="M237.519,209.029a.8.8,0,0,1-.83.841.691.691,0,0,1-.589-.279v.262h-.289V207.54h.3v.911a.707.707,0,0,1,.579-.262.8.8,0,0,1,.83.841Zm-.3,0a.23.23,0,1,0,.021,0Z" transform="translate(-194.194 -123.215)" fill="#fff"/>
      <path id="Path_4961" data-name="Path 4961" d="M238.75,210.341l.1-.23a.37.37,0,0,0,.246.08c.155,0,.246-.1.246-.289v-1.73h.295V209.9a.493.493,0,0,1-.536.536A.6.6,0,0,1,238.75,210.341Zm.536-2.678a.2.2,0,1,1,.2.193.187.187,0,0,1-.2-.2Z" transform="translate(-195.559 -123.182)" fill="#fff"/>
      <path id="Path_4962" data-name="Path 4962" d="M242.819,209.687h-1.339a.536.536,0,0,0,.6.482.621.621,0,0,0,.477-.2l.166.193a.905.905,0,0,1-1.543-.573.809.809,0,0,1,.83-.841.793.793,0,0,1,.814.846A.545.545,0,0,1,242.819,209.687Zm-1.339-.214h1.071a.536.536,0,1,0-1.071,0Z" transform="translate(-196.687 -123.777)" fill="#fff"/>
      <path id="Path_4963" data-name="Path 4963" d="M244.74,209.59a.825.825,0,0,1,.873-.841.728.728,0,0,1,.67.348l-.225.15a.536.536,0,0,0-.45-.241.584.584,0,0,0,0,1.162.536.536,0,0,0,.45-.236l.225.145a.734.734,0,0,1-.67.354.83.83,0,0,1-.873-.841Z" transform="translate(-198.34 -123.775)" fill="#fff"/>
      <path id="Path_4964" data-name="Path 4964" d="M249.094,210a.589.589,0,0,1-.364.112.466.466,0,0,1-.536-.536v-.911h-.284v-.241h.284v-.364h.3v.364h.471v.241h-.471v.895a.241.241,0,0,0,.257.279.37.37,0,0,0,.23-.075Z" transform="translate(-199.812 -123.456)" fill="#fff"/>
      <path id="Path_4965" data-name="Path 4965" d="M250.69,207.653a.2.2,0,0,1,.2-.193.193.193,0,0,1,.2.187.2.2,0,1,1-.407,0Zm.054.536h.3v1.65h-.3Z" transform="translate(-201.103 -123.178)" fill="#fff"/>
      <path id="Path_4966" data-name="Path 4966" d="M253.622,208.78l-.723,1.65h-.305l-.723-1.65h.316l.536,1.323.579-1.323Z" transform="translate(-201.651 -123.791)" fill="#fff"/>
      <path id="Path_4967" data-name="Path 4967" d="M256.929,209.687h-1.339a.536.536,0,0,0,.6.482.621.621,0,0,0,.477-.2l.161.193a.809.809,0,0,1-.648.268.83.83,0,0,1-.889-.841.809.809,0,0,1,.83-.841.793.793,0,0,1,.814.846A.538.538,0,0,1,256.929,209.687Zm-1.339-.214h1.071a.536.536,0,1,0-1.071,0Z" transform="translate(-203.239 -123.777)" fill="#fff"/>
      <path id="Path_4968" data-name="Path 4968" d="M242.954,112.28a4.007,4.007,0,1,0-7.446,2.025h0c.155.257.348.445.536.718l2.33,3.08a.723.723,0,0,0,1.157,0l2.287-3.032a8.532,8.532,0,0,0,.584-.771h0A4,4,0,0,0,242.954,112.28ZM238.947,114a1.768,1.768,0,1,1,1.762-1.768A1.768,1.768,0,0,1,238.947,114Z" transform="translate(-193.79 -77.107)" fill="#ed512d"/>
      <path id="Path_4969" data-name="Path 4969" d="M200.795,410.413h-.745v-.273h1.8v.273h-.755v1.907h-.311Z" transform="translate(-177.589 -217.289)" fill="#263238"/>
      <path id="Path_4970" data-name="Path 4970" d="M203.36,411.918a.857.857,0,1,1,.862.846.82.82,0,0,1-.862-.846Zm1.414,0a.554.554,0,1,0-.554.554.554.554,0,0,0,.554-.554Z" transform="translate(-179.126 -217.711)" fill="#263238"/>
      <path id="Path_4971" data-name="Path 4971" d="M208.053,412.328a.535.535,0,0,1-.359.118.471.471,0,0,1-.536-.536v-.905h-.279v-.246h.279V410.4h.321v.359h.471v.246h-.471v.895a.241.241,0,0,0,.257.279.4.4,0,0,0,.236-.08Z" transform="translate(-180.761 -217.409)" fill="#263238"/>
      <path id="Path_4972" data-name="Path 4972" d="M210.95,411.762v1h-.284v-.214a.627.627,0,0,1-.536.236c-.375,0-.611-.2-.611-.488s.171-.482.659-.482h.477v-.059c0-.252-.145-.4-.445-.4a.8.8,0,0,0-.536.182l-.129-.225a1.071,1.071,0,0,1,.686-.214.616.616,0,0,1,.718.67Zm-.3.493v-.23h-.461c-.295,0-.38.118-.38.257s.134.268.364.268a.477.477,0,0,0,.477-.295Z" transform="translate(-181.987 -217.726)" fill="#263238"/>
      <path id="Path_4973" data-name="Path 4973" d="M213.22,409.9h.3v2.309h-.3Z" transform="translate(-183.705 -217.177)" fill="#263238"/>
      <path id="Path_4974" data-name="Path 4974" d="M217.878,409.9v2.309h-.284v-.263a.7.7,0,0,1-.589.284.846.846,0,0,1,0-1.687.7.7,0,0,1,.579.268V409.9Zm-.295,1.484a.536.536,0,1,0-.139.41A.536.536,0,0,0,217.583,411.384Z" transform="translate(-185.1 -217.177)" fill="#263238"/>
      <path id="Path_4975" data-name="Path 4975" d="M220.27,410.006a.225.225,0,1,1,.2.193.2.2,0,0,1-.2-.193Zm.054.509h.3v1.65h-.3Z" transform="translate(-186.978 -217.133)" fill="#263238"/>
      <path id="Path_4976" data-name="Path 4976" d="M221.6,412.594l.129-.241a1.04,1.04,0,0,0,.579.171c.279,0,.391-.08.391-.22,0-.375-1.071-.053-1.071-.707,0-.3.268-.5.691-.5a1.227,1.227,0,0,1,.6.15l-.129.236a.867.867,0,0,0-.477-.129c-.262,0-.386.1-.386.225,0,.391,1.071.075,1.071.712,0,.3-.273.493-.712.493A1.226,1.226,0,0,1,221.6,412.594Z" transform="translate(-187.596 -217.734)" fill="#263238"/>
      <path id="Path_4977" data-name="Path 4977" d="M225.614,412.328a.536.536,0,0,1-.364.118.471.471,0,0,1-.536-.536v-.905h-.284v-.246h.305V410.4h.3v.359h.471v.246h-.471v.895a.241.241,0,0,0,.257.279.375.375,0,0,0,.23-.08Z" transform="translate(-188.91 -217.409)" fill="#263238"/>
      <path id="Path_4978" data-name="Path 4978" d="M228.52,411.763v1h-.284v-.214a.632.632,0,0,1-.536.236c-.37,0-.611-.2-.611-.487s.171-.482.664-.482h.477v-.059c0-.252-.15-.4-.445-.4a.83.83,0,0,0-.536.182l-.123-.225a1.071,1.071,0,0,1,.686-.214.616.616,0,0,1,.707.67Zm-.3.493v-.23h-.461c-.3,0-.38.118-.38.257s.134.268.364.268a.477.477,0,0,0,.477-.295Z" transform="translate(-190.145 -217.728)" fill="#263238"/>
      <path id="Path_4979" data-name="Path 4979" d="M232.34,411.8v.948h-.295v-.916c0-.321-.166-.482-.45-.482a.493.493,0,0,0-.536.536v.846h-.3v-1.65h.284v.252a.713.713,0,0,1,.6-.268.637.637,0,0,1,.7.734Z" transform="translate(-191.849 -217.717)" fill="#263238"/>
      <path id="Path_4980" data-name="Path 4980" d="M234.48,411.94a.825.825,0,0,1,.873-.841.745.745,0,0,1,.675.354l-.23.145a.536.536,0,0,0-.45-.236.584.584,0,0,0,0,1.162.536.536,0,0,0,.45-.236l.23.139a.75.75,0,0,1-.675.359.83.83,0,0,1-.873-.846Z" transform="translate(-193.576 -217.733)" fill="#263238"/>
      <path id="Path_4981" data-name="Path 4981" d="M239.389,412.042h-1.339a.536.536,0,0,0,.6.482.621.621,0,0,0,.477-.2l.166.193a.846.846,0,0,1-.653.268.83.83,0,0,1-.889-.846.809.809,0,0,1,.83-.841.793.793,0,0,1,.814.852A.533.533,0,0,1,239.389,412.042Zm-1.339-.214h1.071a.536.536,0,1,0-1.071,0Z" transform="translate(-195.094 -217.734)" fill="#263238"/>
      <path id="Path_4982" data-name="Path 4982" d="M203.154,418.78v5.2h-1.205v-4.232H200.91v-.964Z" transform="translate(-177.989 -221.3)" fill="#263238"/>
      <path id="Path_4983" data-name="Path 4983" d="M208.165,426.618a1.773,1.773,0,0,1-.2.739l-.429,1.071H206.8l.327-1.178a.648.648,0,0,1-.4-.632.718.718,0,0,1,1.436,0Z" transform="translate(-180.69 -224.606)" fill="#263238"/>
      <path id="Path_4984" data-name="Path 4984" d="M212.031,418.78v5.2H210.8v-4.232H209.76v-.964Z" transform="translate(-182.098 -221.3)" fill="#263238"/>
      <path id="Path_4985" data-name="Path 4985" d="M215.64,421.308c0-1.714.948-2.678,2.228-2.678s2.228.975,2.228,2.678-.943,2.678-2.228,2.678S215.64,423.022,215.64,421.308Zm3.246,0c0-1.178-.418-1.671-1.018-1.671s-1.012.493-1.012,1.671.418,1.671,1.012,1.671S218.886,422.492,218.886,421.308Z" transform="translate(-184.828 -221.231)" fill="#263238"/>
      <path id="Path_4986" data-name="Path 4986" d="M225.05,421.308c0-1.714.953-2.678,2.234-2.678s2.228.975,2.228,2.678-.943,2.678-2.228,2.678S225.05,423.022,225.05,421.308Zm3.252,0c0-1.178-.418-1.671-1.018-1.671s-1.012.493-1.012,1.671.418,1.671,1.012,1.671,1.018-.487,1.018-1.671Z" transform="translate(-189.198 -221.231)" fill="#263238"/>
      <path id="Path_4987" data-name="Path 4987" d="M245.609,422.653v2.287h-1.157v-2.105c0-.648-.289-.948-.761-.948s-.884.337-.884,1.071v2h-1.157v-2.105c0-.648-.273-.948-.755-.948s-.878.337-.878,1.071v2H238.86v-4.05h1.1v.461a1.607,1.607,0,0,1,1.259-.536,1.489,1.489,0,0,1,1.312.653,1.805,1.805,0,0,1,1.441-.653A1.582,1.582,0,0,1,245.609,422.653Z" transform="translate(-195.61 -222.264)" fill="#263238"/>
      <ellipse id="Ellipse_480" data-name="Ellipse 480" cx="4.484" cy="4.484" rx="4.484" ry="4.484" transform="translate(9.971 200.398) rotate(-76.77)" fill="#f07824"/>
      <path id="Path_4988" data-name="Path 4988" d="M183.29,417.074a7,7,0,0,1,1.152-.07c.734,0,1.784-.037,3.037-.048l-.091.2c-.359-.407-.739-.857-1.146-1.323l-.07-.08.07-.091,1.13-1.409.107.225h-4.216l.129-.123c0,1.361-.032,2.507-.054,3.31a7.955,7.955,0,0,1-.075,1.27,8.845,8.845,0,0,1-.075-1.27c0-.8-.038-1.95-.048-3.31v-.123h4.6l-.182.225-1.141,1.409v-.171l1.125,1.339.171.2h-.262c-1.253,0-2.3-.032-3.037-.048a6.568,6.568,0,0,1-1.125-.107Z" transform="translate(-169.738 -219.188)" fill="#fafafa"/>
      <path id="Path_4989" data-name="Path 4989" d="M308.22,403.73H294.668a2.6,2.6,0,0,0-2.6,2.6V417a2.6,2.6,0,0,0,2.6,2.593h.343v2.544l2.952-2.544H308.22a2.6,2.6,0,0,0,2.6-2.593V406.328A2.6,2.6,0,0,0,308.22,403.73Z" transform="translate(-220.317 -214.312)" fill="#f07824"/>
      <path id="Path_4990" data-name="Path 4990" d="M299.33,412.7v5.475a.214.214,0,0,0,.214.214h11.474a.214.214,0,0,0,.209-.22l-.027-2a.209.209,0,0,0-.037-.123l-1.65-2.2a.2.2,0,0,0-.166-.086h-1.9a.214.214,0,0,1-.214-.209v-.83a.209.209,0,0,0-.209-.214h-7.5a.214.214,0,0,0-.2.2Z" transform="translate(-223.688 -218.384)" fill="#fafafa"/>
      <path id="Path_4991" data-name="Path 4991" d="M315.09,415.571v1.762a.123.123,0,0,0,.123.123l2.534-.043a.123.123,0,0,0,.1-.193l-1.195-1.757a.113.113,0,0,0-.1-.054l-1.35.038a.118.118,0,0,0-.107.123Z" transform="translate(-231.006 -219.735)" fill="#ed512d"/>
      <rect id="Rectangle_2586" data-name="Rectangle 2586" width="12.358" height="0.38" transform="translate(75.406 200.169)" fill="#fafafa"/>
      <path id="Path_4992" data-name="Path 4992" d="M304.4,423.011a1.227,1.227,0,1,1-1.221-1.221,1.227,1.227,0,0,1,1.221,1.221Z" transform="translate(-224.905 -222.698)" fill="#ed512d"/>
      <path id="Path_4993" data-name="Path 4993" d="M304.336,423.448a.723.723,0,1,1-.718-.718A.723.723,0,0,1,304.336,423.448Z" transform="translate(-225.341 -223.135)" fill="#fafafa"/>
      <path id="Path_4994" data-name="Path 4994" d="M314.029,418.373c-.032,0-.059-1.323-.059-2.952a26.386,26.386,0,0,1,.059-2.952,27.259,27.259,0,0,1,.054,2.952C314.082,417.05,314.056,418.373,314.029,418.373Z" transform="translate(-230.486 -218.37)" fill="#e8505b"/>
      <path id="Path_4995" data-name="Path 4995" d="M316.883,423.011a1.221,1.221,0,1,1-1.221-1.221A1.221,1.221,0,0,1,316.883,423.011Z" transform="translate(-230.704 -222.698)" fill="#ed512d"/>
      <path id="Path_4996" data-name="Path 4996" d="M316.746,423.448a.723.723,0,1,1-.723-.718A.723.723,0,0,1,316.746,423.448Z" transform="translate(-231.104 -223.135)" fill="#fafafa"/>
      <path id="Path_4997" data-name="Path 4997" d="M316.012,419.809c0,.032-.177.054-.391.054s-.391,0-.391-.054.177-.059.391-.059S316.012,419.777,316.012,419.809Z" transform="translate(-231.071 -221.751)" fill="#ed512d"/>
    </g>
    <g id="Character" transform="translate(20.56 54.719)">
      <path id="Path_4998" data-name="Path 4998" d="M567.044,252.13s-8.64,1.457-9.337,1.645-3.434,1.484-3.573,2.319a25.057,25.057,0,0,0,0,3.294s.5.4.8-.4a8.2,8.2,0,0,0,.263-2.394l1.532-.589-.836,1.484-.139,3.476s1.071-.1,1.28-.927a8.2,8.2,0,0,0,.2-1.762l1.114-.943-.836,1.13-.279,2.5s.814.268,1.071-.289a8.621,8.621,0,0,0,.279-2.212l3.15-1.1,2.084,1.162,3.894-2.175Z" transform="translate(-496.111 -198.639)" fill="#ffbe9d"/>
      <path id="Path_4999" data-name="Path 4999" d="M522.091,212.26c-.043.171-10.413,14.463-10.413,14.463L490.84,233.2l.948,7.826,25.535-5.142,9.064-10.4Z" transform="translate(-420.904 -180.126)" fill="#f07824"/>
      <g id="Group_56405" data-name="Group 56405" transform="translate(69.936 32.134)" opacity="0.2">
        <path id="Path_5000" data-name="Path 5000" d="M522.091,212.26c-.043.171-10.413,14.463-10.413,14.463L490.84,233.2l.948,7.826,25.535-5.142,9.064-10.4Z" transform="translate(-490.84 -212.26)"/>
      </g>
      <rect id="Rectangle_2587" data-name="Rectangle 2587" width="45.842" height="8.297" rx="3.05" transform="translate(135.85 51.788)" fill="#f5f5f5"/>
      <path id="Path_5001" data-name="Path 5001" d="M350.02,257.085a1.453,1.453,0,0,1-.268-.037,1.607,1.607,0,0,1-1.307-1.409v-5.255a1.607,1.607,0,0,1,.536-1.146,1.559,1.559,0,0,1,.605-.316,2.46,2.46,0,0,1,.723-.048h4.966l37.288.043a1.5,1.5,0,0,1,1.109.487,1.537,1.537,0,0,1,.386,1.152v4.687a2.238,2.238,0,0,1-.054.611,1.511,1.511,0,0,1-1.28,1.1H382.192l-16.761.032-11.3.043-3.075.027h0l3.075.027,11.3.043,16.761.032h10.6a1.825,1.825,0,0,0,.664-.214,1.773,1.773,0,0,0,.846-1.071,2.173,2.173,0,0,0,.064-.686v-4.666a1.848,1.848,0,0,0-.466-1.339,1.757,1.757,0,0,0-1.312-.579l-37.288.043h-4.966a3.088,3.088,0,0,0-.766.064,1.692,1.692,0,0,0-.664.354,1.725,1.725,0,0,0-.595,1.259v3.493c0,.67,0,1.253.027,1.778a1.693,1.693,0,0,0,.648,1.12,1.607,1.607,0,0,0,.739.305.955.955,0,0,0,.295.07Z" transform="translate(-212.542 -196.999)" fill="#263238"/>
      <ellipse id="Ellipse_481" data-name="Ellipse 481" cx="21.904" cy="21.904" rx="21.904" ry="21.904" transform="matrix(-0.999, -0.048, 0.048, -0.999, 43.757, 167.163)" fill="#263238"/>
      <path id="Path_5002" data-name="Path 5002" d="M647.878,420.84v.059a21.9,21.9,0,1,1-43.8.632s0-.038,0-.059Z" transform="translate(-603.053 -276.976)" fill="#263238"/>
      <path id="Path_5003" data-name="Path 5003" d="M647,407.983a15.379,15.379,0,1,1-15.6-15.154A15.379,15.379,0,0,1,647,407.983Z" transform="translate(-608.698 -263.969)" fill="#fafafa"/>
      <path id="Path_5004" data-name="Path 5004" d="M631.406,392.829A15.379,15.379,0,0,1,647,407.983l-30.753.445a15.379,15.379,0,0,1,15.154-15.6Z" transform="translate(-608.699 -263.969)" fill="#e0e0e0"/>
      <path id="Path_5005" data-name="Path 5005" d="M646.2,413.279a9.369,9.369,0,1,1-9.5-9.23,9.369,9.369,0,0,1,9.5,9.23Z" transform="translate(-613.91 -269.179)" fill="#263238"/>
      <path id="Path_5006" data-name="Path 5006" d="M628.816,360.828s-22.423-6.782-31.7,17.581l46.925,14.538Z" transform="translate(-595.492 -248.708)" fill="#f07824"/>
      <ellipse id="Ellipse_482" data-name="Ellipse 482" cx="21.904" cy="21.904" rx="21.904" ry="21.904" transform="matrix(-0.999, -0.048, 0.048, -0.999, 178.895, 167.165)" fill="#263238"/>
      <path id="Path_5007" data-name="Path 5007" d="M395.588,420.84v.059a21.9,21.9,0,1,1-43.8.632v-.07Z" transform="translate(-215.62 -276.976)" fill="#263238"/>
      <path id="Path_5008" data-name="Path 5008" d="M394.753,407.983a15.379,15.379,0,1,1-15.6-15.154A15.379,15.379,0,0,1,394.753,407.983Z" transform="translate(-221.326 -263.969)" fill="#fafafa"/>
      <path id="Path_5009" data-name="Path 5009" d="M379.177,392.829a15.379,15.379,0,0,1,15.577,15.154L364,408.427a15.379,15.379,0,0,1,15.176-15.6Z" transform="translate(-221.327 -263.969)" fill="#e0e0e0"/>
      <path id="Path_5010" data-name="Path 5010" d="M393.915,413.279a9.369,9.369,0,1,1-9.5-9.23A9.369,9.369,0,0,1,393.915,413.279Z" transform="translate(-226.476 -269.179)" fill="#263238"/>
      <path id="Path_5011" data-name="Path 5011" d="M386.436,403.592c.123.064,11.528-1.762,11.528-1.762h0a6.964,6.964,0,0,0,5.2,2.721c4.928.236,9.744.455,13.927.643a7.071,7.071,0,0,1,6.749,7.355h0a7.076,7.076,0,0,1-6.787,6.771l-24.282.959a16.2,16.2,0,0,1-11.785-5.389h0Z" transform="translate(-259.521 -268.149)" fill="#455a64"/>
      <path id="Path_5012" data-name="Path 5012" d="M499.333,336.736s1.039-21.346-19.022-25.792v-2.737H410.042v6.567s10.312,12.422,6.964,22.734-4.419,11.367-4.419,11.367H372.594a27.32,27.32,0,0,1-5.051-15.154c-.214-9.053,3.546-24.528,6.358-34.422,2.539-9.026,4.146-16.547,4.146-16.547l-12-4s-22.2,29.06-23.109,30.667-3.991,5.442-3.268,13.788,20.7,34.09,25.937,36.993,9.974,3.085,14.693,3.809c4.092.632,34.368.214,42.291.091a15.536,15.536,0,0,0,7.821-2.169c2.368-1.436,4.146-3.814,6.112-7.714l4.194-8.164Z" transform="translate(-312.825 -210.999)" fill="#f07824"/>
      <path id="Path_5013" data-name="Path 5013" d="M340.4,384.26l8.849,13.863a2.143,2.143,0,0,1-2.63,3.171,10.306,10.306,0,0,1-2.973-2.014c-4.044-3.851-11.249-14-11.249-14Z" transform="translate(-159.275 -259.991)" fill="#455a64"/>
      <path id="Path_5014" data-name="Path 5014" d="M355.917,367.969a.623.623,0,0,0-.054-.2l-.177-.584a15.411,15.411,0,0,1-.466-2.287,16.145,16.145,0,0,1,1.371-8.367,17.525,17.525,0,0,1,3.262-4.9,21.394,21.394,0,0,1,5.357-4.1,27.112,27.112,0,0,1,7.017-2.614,36.96,36.96,0,0,1,8.035-.83,60.537,60.537,0,0,1,8.035.595c2.593.348,5.078.777,7.424,1.312a43.968,43.968,0,0,1,11.919,4.408,29.494,29.494,0,0,1,6.808,5.2c.707.728,1.216,1.334,1.553,1.746l.38.477a.961.961,0,0,0,.139.155,18,18,0,0,0-1.993-2.453,28.925,28.925,0,0,0-6.792-5.3,43.584,43.584,0,0,0-11.961-4.489c-2.346-.536-4.821-.98-7.44-1.334a60.961,60.961,0,0,0-8.1-.6,36.867,36.867,0,0,0-8.078.841,27.443,27.443,0,0,0-7.082,2.678,21.538,21.538,0,0,0-5.426,4.167,17.635,17.635,0,0,0-3.273,4.982,16.071,16.071,0,0,0-1.3,8.464,13.666,13.666,0,0,0,.536,2.287c.086.246.15.434.2.579A1.134,1.134,0,0,0,355.917,367.969Z" transform="translate(-238.258 -241.203)" fill="#263238"/>
      <path id="Path_5015" data-name="Path 5015" d="M431.89,366.995c.032,0-.113-.337-.263-.948a6.931,6.931,0,0,1-.08-2.678,11.007,11.007,0,0,1,1.307-3.718,12.7,12.7,0,0,1,1.3-1.95,11.752,11.752,0,0,1,1.741-1.805,15.208,15.208,0,0,1,4.178-2.443,19.664,19.664,0,0,1,3.835-1.071,25.112,25.112,0,0,1,2.678-.305,7.9,7.9,0,0,0,.986-.075.856.856,0,0,0-.257,0h-.734a20.024,20.024,0,0,0-2.678.22,18.528,18.528,0,0,0-3.9,1,15.272,15.272,0,0,0-4.285,2.469,12.268,12.268,0,0,0-1.778,1.848,13.394,13.394,0,0,0-1.3,2,10.66,10.66,0,0,0-1.275,3.814,6.6,6.6,0,0,0,.166,2.71,3.848,3.848,0,0,0,.257.691A.942.942,0,0,0,431.89,366.995Z" transform="translate(-310.187 -245.008)" fill="#f5f5f5"/>
      <g id="Group_56406" data-name="Group 56406" transform="translate(112.497 103.25)" opacity="0.4">
        <path id="Path_5016" data-name="Path 5016" d="M457.838,345.041a28.143,28.143,0,0,0-10.579,4.285,18.7,18.7,0,0,0-7.087,8.806,15.445,15.445,0,0,0,.284,11.383l-4.966.412c-1.671-5.576.145-12.417,4.162-16.782a24.641,24.641,0,0,1,18.186-8.126" transform="translate(-434.87 -345.02)"/>
      </g>
      <rect id="Rectangle_2588" data-name="Rectangle 2588" width="52.629" height="37.556" rx="8.58" transform="translate(132.459 59.668)" fill="#455a64"/>
      <path id="Path_5017" data-name="Path 5017" d="M341.82,279.179c0,.08,11.833.139,26.425.139s26.43-.059,26.43-.139-11.828-.139-26.43-.139S341.82,279.1,341.82,279.179Z" transform="translate(-209.366 -211.134)" fill="#263238"/>
      <path id="Path_5018" data-name="Path 5018" d="M374.51,338.289c0,.075,15.8.139,35.274.139s35.274-.064,35.274-.139-15.792-.139-35.274-.139S374.51,338.214,374.51,338.289Z" transform="translate(-277.26 -238.58)" fill="#263238"/>
      <path id="Path_5019" data-name="Path 5019" d="M446.494,327.6a6.075,6.075,0,0,1-1.275-3.15c-.107-1.762.7-3.969,2.6-3.969h24.266A7.119,7.119,0,0,1,479.2,327.6Z" transform="translate(-349.277 -230.376)" fill="#455a64"/>
      <path id="Path_5020" data-name="Path 5020" d="M573.7,265.576l4.221-8.8a5.357,5.357,0,0,0-2.143-6.883l-12.62-7.526a4.232,4.232,0,0,0-2.18-.605h-2.727l-1.071,17.789,4.2,1.623L558.7,265.5Z" transform="translate(-508.479 -193.823)" fill="#f07824"/>
      <path id="Path_5021" data-name="Path 5021" d="M599.815,243s-4.318.991-4.859,7.644,3.809,8.731,3.809,8.731Z" transform="translate(-550.079 -194.399)" fill="#ebebeb"/>
      <path id="Path_5022" data-name="Path 5022" d="M553.4,262.759s8.726,4.135,9.792,4.821a2.032,2.032,0,0,1,.793,2.748c-.986,2.469-5.067.145-5.067.145l-8.126-4.06s-3.123-1.473-1.966-3.321C550.117,261.024,553.4,262.759,553.4,262.759Z" transform="translate(-489.651 -203.257)" fill="#263238"/>
      <path id="Path_5023" data-name="Path 5023" d="M557.279,260.54s-8.2,1.4-8.9,1.607-3.428,1.484-3.568,2.319a25.036,25.036,0,0,0,0,3.294s.493.4.8-.4a8.449,8.449,0,0,0,.262-2.4l1.532-.589-.836,1.484-.139,3.482s1.071-.1,1.275-.932a8.137,8.137,0,0,0,.2-1.757l1.12-.948-.836,1.13-.284,2.507s.814.262,1.071-.295a8.6,8.6,0,0,0,.279-2.212l3.15-1.1,2.084,1.162,3.278-1.821Z" transform="translate(-481.177 -202.544)" fill="#ffbe9d"/>
      <path id="Path_5024" data-name="Path 5024" d="M556.81,234.01c0,3.321,1.527,6.01,3.407,6.01s3.407-2.678,3.407-6.01S562.1,228,560.217,228,556.81,230.678,556.81,234.01Z" transform="translate(-493.479 -187.434)" fill="#263238"/>
      <path id="Path_5025" data-name="Path 5025" d="M567.01,245.892l-1.875,6.492a1.682,1.682,0,0,1-.873-1.918c.471-2.223.739-3.8,1.253-5.753.064-.193,1.495,1.178,1.495,1.178" transform="translate(-500.829 -195.186)" fill="#263238"/>
      <g id="Group_56407" data-name="Group 56407" transform="translate(40.161 68.795)" opacity="0.4">
        <path id="Path_5026" data-name="Path 5026" d="M553.451,341.161c.182-.536.375-1.071.536-1.645s.364-1.071.5-1.607a17.274,17.274,0,0,0,.471-2.448c3.16,12.856-1.666,21.925-9.947,22.562-12.106.932-26.864,1.607-32.831.043-10.879-2.855-14.87-11.929-15.824-13.424s-9.6-17.313-4.285-32.542,14.543-31.4,14.543-31.4l8.8,2.957s-1.607,7.5-4.162,16.52c-2.812,9.894-6.573,25.369-6.358,34.422a27.319,27.319,0,0,0,5.051,15.154h39.988s.857-.857,3.5-8.571" transform="translate(-490.357 -280.7)"/>
      </g>
      <path id="Path_5027" data-name="Path 5027" d="M416.216,378.133l-.284-3.053-73,8.41a7.21,7.21,0,0,0-6.257,8.421l.327,1.848,75.529-10.976A4.285,4.285,0,0,0,416.216,378.133Z" transform="translate(-228.112 -255.728)" fill="#f07824"/>
      <g id="Group_56408" data-name="Group 56408" transform="translate(108.452 119.352)" opacity="0.6">
        <path id="Path_5028" data-name="Path 5028" d="M416.216,378.133l-.284-3.053-73,8.41a7.21,7.21,0,0,0-6.257,8.421l.327,1.848,75.529-10.976A4.285,4.285,0,0,0,416.216,378.133Z" transform="translate(-336.564 -375.08)"/>
      </g>
      <g id="Group_56409" data-name="Group 56409" transform="translate(21.801 111.252)" opacity="0.3">
        <path id="Path_5029" data-name="Path 5029" d="M625.942,391.532s-16.07-17.677-19.386-31.572a31.242,31.242,0,0,0-4.976.37S611.083,386.164,625.942,391.532Z" transform="translate(-601.58 -359.959)"/>
      </g>
      <path id="Path_5030" data-name="Path 5030" d="M600.391,348.34a2.578,2.578,0,0,0-.086.445c-.043.295-.128.728-.182,1.291a19.675,19.675,0,0,0,.123,4.821,24.354,24.354,0,0,0,2.143,6.792,76.982,76.982,0,0,0,4.253,7.607,101.577,101.577,0,0,0,9.406,12.717c1.307,1.548,2.389,2.78,3.139,3.626l.868.97a3.717,3.717,0,0,0,.316.327,2.4,2.4,0,0,0-.273-.359l-.83-1.007-3.069-3.68a110.437,110.437,0,0,1-9.321-12.738,81.64,81.64,0,0,1-4.285-7.569,24.854,24.854,0,0,1-2.143-6.717,21.429,21.429,0,0,1-.209-4.757c.038-.562.107-1,.129-1.3a2.378,2.378,0,0,0,.022-.471Z" transform="translate(-573.378 -243.312)" fill="#263238"/>
      <path id="Path_5031" data-name="Path 5031" d="M576.22,414.458a21.483,21.483,0,0,0,2.577-2.325,22.039,22.039,0,0,0,2.378-2.523A42.931,42.931,0,0,0,576.22,414.458Z" transform="translate(-521.427 -271.762)" fill="#263238"/>
      <path id="Path_5032" data-name="Path 5032" d="M499.3,413.982a7.44,7.44,0,0,0-1.184-2.287,7.538,7.538,0,0,0-1.687-1.944c-.059.059.675.937,1.457,2.1S499.23,414.014,499.3,413.982Z" transform="translate(-396.816 -271.827)" fill="#263238"/>
      <path id="Path_5033" data-name="Path 5033" d="M428.086,422.576a10.787,10.787,0,0,1-2.191-2.785,9.587,9.587,0,0,1-1.071-3.669,8.522,8.522,0,0,1,3.846-8.035,9.574,9.574,0,0,1,3.525-1.473,10.774,10.774,0,0,1,3.541-.048,1.039,1.039,0,0,0-.236-.07,5.85,5.85,0,0,0-.707-.139,8.4,8.4,0,0,0-2.635.064,9.584,9.584,0,0,0-3.632,1.452,8.656,8.656,0,0,0-3.959,8.3,9.583,9.583,0,0,0,1.157,3.75,8.3,8.3,0,0,0,1.607,2.089,5.507,5.507,0,0,0,.536.466A1,1,0,0,0,428.086,422.576Z" transform="translate(-294.722 -270.216)" fill="#263238"/>
      <path id="Path_5034" data-name="Path 5034" d="M388.408,421.774a11.508,11.508,0,0,0,.262-2.571,12.16,12.16,0,0,0,0-2.593,24.043,24.043,0,0,0-.246,5.164Z" transform="translate(-228.372 -275.012)" fill="#263238"/>
      <path id="Path_5035" data-name="Path 5035" d="M391.416,421.774a24.8,24.8,0,0,0,.659-5.175,12.6,12.6,0,0,0-.466,2.571,12.472,12.472,0,0,0-.193,2.6Z" transform="translate(-233.33 -275.007)" fill="#263238"/>
      <path id="Path_5036" data-name="Path 5036" d="M374.85,333.649c0,.075,8.876.139,19.82.139s19.82-.064,19.82-.139-8.876-.139-19.82-.139S374.85,333.569,374.85,333.649Z" transform="translate(-246.874 -236.426)" fill="#263238"/>
      <path id="Path_5037" data-name="Path 5037" d="M395.069,294.382c.08,0,.139-10.178.139-22.7s-.038-22.68-.139-22.68-.139,10.178-.139,22.707S394.994,294.382,395.069,294.382Z" transform="translate(-238.349 -197.185)" fill="#263238"/>
      <path id="Path_5038" data-name="Path 5038" d="M386.964,294.321c.075,0-.305-10.178-.852-22.691s-1.071-22.685-1.125-22.68.3,10.178.846,22.691S386.863,294.326,386.964,294.321Z" transform="translate(-224.786 -197.162)" fill="#263238"/>
      <path id="Path_5039" data-name="Path 5039" d="M351.443,423.366a1.735,1.735,0,0,0,.236-.241c.139-.161.37-.391.621-.718a20.562,20.562,0,0,0,1.977-2.9,22.193,22.193,0,0,0-.091-22.219,20.177,20.177,0,0,0-2-2.887c-.257-.327-.487-.536-.632-.718s-.23-.241-.236-.23a1.349,1.349,0,0,0,.193.268c.129.177.348.412.589.75a22.929,22.929,0,0,1,.112,27.871c-.236.338-.45.579-.578.755A1.594,1.594,0,0,0,351.443,423.366Z" transform="translate(-176.992 -264.257)" fill="#455a64"/>
      <path id="Path_5040" data-name="Path 5040" d="M499.2,373.11l.166.311,3.235,6.058,4.521,4.35-9.037,12.031-7.526-1.248s.841-1.719,4.623-2.052l1.43-7.189-5.308-8.228" transform="translate(-401.49 -254.813)" fill="#455a64"/>
      <path id="Path_5041" data-name="Path 5041" d="M481.083,342.227l-9.031,12.031-7.531-1.248,1.034-.991,6.182.675,8.389-11.394Z" transform="translate(-375.46 -213.195)" fill="#e0e0e0"/>
      <path id="Path_5042" data-name="Path 5042" d="M507.8,402.993c.043.086.536-.091,1.071.027s.97.423,1.039.359-.268-.568-.975-.691S507.739,402.924,507.8,402.993Z" transform="translate(-413.516 -268.536)" fill="#263238"/>
      <path id="Path_5043" data-name="Path 5043" d="M506.885,399.414c.064.064.477-.321,1.071-.343s1.071.337,1.12.268-.038-.166-.23-.321a1.452,1.452,0,0,0-.9-.279,1.409,1.409,0,0,0-.879.337A.594.594,0,0,0,506.885,399.414Z" transform="translate(-412.201 -266.714)" fill="#263238"/>
      <path id="Path_5044" data-name="Path 5044" d="M506.532,394.978c.075.059.407-.332.959-.429s1,.155,1.071.075-.048-.155-.246-.268a1.323,1.323,0,0,0-1.607.289C506.527,394.817,506.495,394.957,506.532,394.978Z" transform="translate(-411.5 -264.607)" fill="#263238"/>
      <path id="Path_5045" data-name="Path 5045" d="M510.029,390.818c.08.043.364-.348.884-.573s.991-.193,1.012-.284-.536-.311-1.152,0S509.938,390.791,510.029,390.818Z" transform="translate(-416.711 -262.563)" fill="#263238"/>
      <path id="Path_5046" data-name="Path 5046" d="M511.392,386.091c.037.027.332-.23.787-.68l.771-.8a2.465,2.465,0,0,0,.45-.536.605.605,0,0,0,.032-.466.466.466,0,0,0-.413-.311,1.372,1.372,0,0,0-.766.246,2.823,2.823,0,0,0-.536.445,2.608,2.608,0,0,0-.573,1.023,1.409,1.409,0,0,0,0,1.071,8.033,8.033,0,0,1,.225-.98,2.679,2.679,0,0,1,.573-.884,2.453,2.453,0,0,1,.487-.375,1.248,1.248,0,0,1,.568-.2.139.139,0,0,1,.129.091.29.29,0,0,1,0,.22,2.371,2.371,0,0,1-.375.471l-.734.852A3.21,3.21,0,0,0,511.392,386.091Z" transform="translate(-418.803 -259.545)" fill="#263238"/>
      <path id="Path_5047" data-name="Path 5047" d="M517.872,387.3c.038,0,.075-.4-.257-.916a1.907,1.907,0,0,0-2.143-.777.364.364,0,0,0-.161.252.451.451,0,0,0,.054.252,1.07,1.07,0,0,0,.23.284,3.591,3.591,0,0,0,.482.391,3.34,3.34,0,0,0,.943.439,1.543,1.543,0,0,0,.943.07c0-.054-.348-.086-.868-.295a3.749,3.749,0,0,1-.841-.466,3.419,3.419,0,0,1-.429-.375.855.855,0,0,1-.166-.2c-.027-.075,0-.054,0-.07a.6.6,0,0,1,.23-.048,1.653,1.653,0,0,1,.284,0,1.877,1.877,0,0,1,.536.128,1.839,1.839,0,0,1,.745.536A6.632,6.632,0,0,1,517.872,387.3Z" transform="translate(-425.588 -260.58)" fill="#263238"/>
      <path id="Path_5048" data-name="Path 5048" d="M498.375,390.2a.905.905,0,1,0,1.039-.745A.905.905,0,0,0,498.375,390.2Z" transform="translate(-398.72 -262.4)" fill="#e0e0e0"/>
      <path id="Path_5049" data-name="Path 5049" d="M578.5,382.675l-2.416,15.684-19.536-2.9c.4-1.848,11.056-4.092,11.056-4.092l1.136-10.113Z" transform="translate(-508.217 -258.593)" fill="#455a64"/>
      <path id="Path_5050" data-name="Path 5050" d="M565.568,400.167a.8.8,0,0,1,.418.991.782.782,0,0,1-.98.423.852.852,0,0,1-.434-1.071.8.8,0,0,1,1.071-.327" transform="translate(-500.014 -267.343)" fill="#e0e0e0"/>
      <path id="Path_5051" data-name="Path 5051" d="M580.256,409.9l.182-1.607-18.8-2.191s-.927.252-.921.879Z" transform="translate(-512.387 -270.132)" fill="#e0e0e0"/>
      <path id="Path_5052" data-name="Path 5052" d="M574.41,399.814c0,.1.455.209.884.584s.611.814.707.793.032-.6-.487-1.045S574.4,399.723,574.41,399.814Z" transform="translate(-515.321 -267.188)" fill="#263238"/>
      <path id="Path_5053" data-name="Path 5053" d="M579.423,400.848c-.038.091.354.311.616.766s.295.889.391.9.236-.536-.1-1.071S579.439,400.757,579.423,400.848Z" transform="translate(-522.509 -267.682)" fill="#263238"/>
      <path id="Path_5054" data-name="Path 5054" d="M584.544,403.6c.086.038.289-.423.123-.98s-.584-.836-.637-.761.182.4.316.857S584.453,403.579,584.544,403.6Z" transform="translate(-529.162 -268.157)" fill="#263238"/>
      <path id="Path_5055" data-name="Path 5055" d="M572.728,395.414c0,.091.482.027,1.018.139s.927.354.991.279-.295-.477-.921-.605S572.691,395.329,572.728,395.414Z" transform="translate(-513.125 -265.065)" fill="#263238"/>
      <path id="Path_5056" data-name="Path 5056" d="M569.1,390.367a1.859,1.859,0,0,0,.981.139,4.48,4.48,0,0,0,1.071-.161,4.585,4.585,0,0,0,.627-.2,1.071,1.071,0,0,0,.327-.188.407.407,0,0,0,.118-.5.536.536,0,0,0-.386-.284,1.214,1.214,0,0,0-.37,0,3.029,3.029,0,0,0-.643.118,3.551,3.551,0,0,0-.991.455c-.536.354-.723.686-.691.713s.305-.23.814-.509a3.814,3.814,0,0,1,.948-.359,2.878,2.878,0,0,1,.589-.091c.214,0,.391,0,.428.1s0,.048-.037.107a.992.992,0,0,1-.241.134,5.743,5.743,0,0,1-.562.22,5.505,5.505,0,0,1-1,.22A6.911,6.911,0,0,0,569.1,390.367Z" transform="translate(-508.694 -262.268)" fill="#263238"/>
      <path id="Path_5057" data-name="Path 5057" d="M574.955,388.929a1.674,1.674,0,0,0,.4-.905,3.308,3.308,0,0,0,0-1.071,3.651,3.651,0,0,0-.161-.632.814.814,0,0,0-.536-.584.466.466,0,0,0-.45.209,1.4,1.4,0,0,0-.155.348,2.184,2.184,0,0,0-.1.659,2.275,2.275,0,0,0,.268,1.071c.305.536.686.734.7.7a4.048,4.048,0,0,1-.482-.8,2.233,2.233,0,0,1-.171-.964,1.889,1.889,0,0,1,.1-.562c.059-.2.161-.359.236-.327a.7.7,0,0,1,.295.37,3.252,3.252,0,0,1,.166.568,3.621,3.621,0,0,1,.043,1C575.062,388.554,574.907,388.908,574.955,388.929Z" transform="translate(-514.441 -260.675)" fill="#263238"/>
      <path id="Path_5058" data-name="Path 5058" d="M487.988,264.337l16.756,36.5-11.067,6.642L470.52,263.56" transform="translate(-402.335 -177.098)" fill="#263238"/>
      <path id="Path_5059" data-name="Path 5059" d="M456.457,347.286l12.015,1.928,7.194-42.928,35.542,2.577a8.652,8.652,0,0,0,2.8-.263c9.98-2.737,8.63-15.465,7.665-17.506l-49.18-1.409a10.467,10.467,0,0,0-10.67,9.015Z" transform="translate(-398.429 -216.075)" fill="#263238"/>
      <path id="Path_5060" data-name="Path 5060" d="M477.549,251.592l-.177-18.148s2.341-11.785,3.037-16.44c1.071-7.2,2.55-10.622-9.246-15.738l-2.582-1-3.991.054c-4.757.359-9.771,4.66-9.888,7.5l-4.6,40.909Z" transform="translate(-353.811 -174.558)" fill="#f07824"/>
      <path id="Path_5061" data-name="Path 5061" d="M499.82,210s3.332,7.167,2.678,13.7L490.087,235.61c-2.78,3.1-6.262,4.414-10.713,4.682l-25.68,2.807-.712-6.717,24.416-6.921c.975-.182,1.462-1.195,2.207-1.848L499.82,210" transform="translate(-376.821 -179.076)" fill="#f07824"/>
      <path id="Path_5062" data-name="Path 5062" d="M503.4,213.07a1.756,1.756,0,0,0-.493-.332,6.123,6.123,0,0,0-1.661-.466,8.573,8.573,0,0,0-2.775,0,2.876,2.876,0,0,0-.814.279,8.191,8.191,0,0,0-.755.536c-.493.386-.991.83-1.5,1.312-1.029.959-2,2.175-3.144,3.407s-2.389,2.555-3.75,3.943-2.823,2.839-4.387,4.339c-.787.75-1.607,1.511-2.459,2.255-.434.354-.862.771-1.275,1.162a3.085,3.085,0,0,1-1.42.836h0L454.5,237.25l-.113.032v.118c.048.477.107.986.161,1.505.187,1.784.375,3.551.536,5.212v.139h.139l10.885-1.211,5.142-.562,4.923-.5c1.607-.177,3.155-.359,4.66-.579a20.984,20.984,0,0,0,4.317-1,15.9,15.9,0,0,0,3.632-1.955c1.071-.755,2.078-1.543,3.005-2.319,3.669-3.128,6.364-5.93,8.233-7.837.927-.959,1.639-1.714,2.116-2.228l.536-.589.177-.209s-.07.059-.2.188-.316.327-.536.573l-2.143,2.2c-1.891,1.88-4.607,4.66-8.281,7.762-.927.766-1.918,1.548-2.994,2.293a16.016,16.016,0,0,1-3.6,1.918,20.961,20.961,0,0,1-4.285.975c-1.505.214-3.059.4-4.655.568l-4.923.482-5.142.562-10.874,1.184.155.123c-.177-1.661-.364-3.428-.536-5.217-.059-.536-.113-1.029-.161-1.505l-.1.15L479,230.581h0a3.257,3.257,0,0,0,1.564-.905c.434-.412.825-.8,1.27-1.168.862-.75,1.671-1.516,2.459-2.266,1.564-1.505,3.021-2.968,4.376-4.36s2.6-2.721,3.75-3.969,2.095-2.459,3.112-3.418a17.862,17.862,0,0,1,1.478-1.312,6.348,6.348,0,0,1,.739-.536,2.586,2.586,0,0,1,.777-.273,8.307,8.307,0,0,1,2.737-.043,6.187,6.187,0,0,1,1.655.423A3.754,3.754,0,0,1,503.4,213.07Z" transform="translate(-378.39 -180.079)" fill="#263238"/>
      <path id="Path_5063" data-name="Path 5063" d="M482.66,163.446l-1.243,17.677a5.507,5.507,0,0,1-5.5,5.116h0a5.507,5.507,0,0,1-5.5-5.866c.112-1.682.209-3.059.209-3.059s-4.285-.664-4.328-4.944c-.032-2.469.4-8.073.761-12.369a5.608,5.608,0,0,1,5.608-5.132h2.587a7.906,7.906,0,0,1,7.4,8.576Z" transform="translate(-364.064 -153.478)" fill="#ffbe9d"/>
      <path id="Path_5064" data-name="Path 5064" d="M478.421,195.27A9.969,9.969,0,0,0,484,193.69s-1.318,3.075-5.587,2.678Z" transform="translate(-371.855 -171.503)" fill="#eb996e"/>
      <path id="Path_5065" data-name="Path 5065" d="M491.4,174.23a.611.611,0,0,0,.589.616.578.578,0,0,0,.632-.536.616.616,0,0,0-.589-.621A.589.589,0,0,0,491.4,174.23Z" transform="translate(-387.438 -162.215)" fill="#263238"/>
      <path id="Path_5066" data-name="Path 5066" d="M489.564,171.893c.08.08.536-.262,1.2-.262s1.136.332,1.211.252-.043-.182-.257-.332a1.65,1.65,0,0,0-.964-.3,1.607,1.607,0,0,0-.953.311C489.618,171.711,489.532,171.855,489.564,171.893Z" transform="translate(-385.828 -161.083)" fill="#263238"/>
      <path id="Path_5067" data-name="Path 5067" d="M479.88,174.23a.605.605,0,0,0,.589.616.579.579,0,0,0,.632-.536.616.616,0,0,0-.589-.621A.589.589,0,0,0,479.88,174.23Z" transform="translate(-369.747 -162.215)" fill="#263238"/>
      <path id="Path_5068" data-name="Path 5068" d="M477.492,172.123c.075.08.536-.262,1.2-.262s1.136.332,1.205.252-.037-.182-.252-.332a1.649,1.649,0,0,0-.964-.3,1.607,1.607,0,0,0-.954.305C477.492,171.941,477.433,172.085,477.492,172.123Z" transform="translate(-367.273 -161.19)" fill="#263238"/>
      <path id="Path_5069" data-name="Path 5069" d="M487.581,177.035a4.382,4.382,0,0,0-1.071-.193c-.166,0-.327-.054-.354-.166a.8.8,0,0,1,.112-.5l.5-1.275a21.573,21.573,0,0,0,1.114-3.343A22.742,22.742,0,0,0,486.5,174.8l-.471,1.286a.969.969,0,0,0-.091.659.423.423,0,0,0,.279.246,1.185,1.185,0,0,0,.284.037A4.287,4.287,0,0,0,487.581,177.035Z" transform="translate(-379.768 -161.227)" fill="#263238"/>
      <path id="Path_5070" data-name="Path 5070" d="M484.8,182.63c-.107,0-.107.707-.718,1.211s-1.371.429-1.377.536.171.134.493.145a1.779,1.779,0,0,0,1.146-.4,1.543,1.543,0,0,0,.536-1.018C484.925,182.828,484.845,182.625,484.8,182.63Z" transform="translate(-375.05 -166.367)" fill="#263238"/>
      <path id="Path_5071" data-name="Path 5071" d="M476.718,167.443c.064.177.718.1,1.489.188s1.4.305,1.5.145-.064-.246-.316-.418a2.593,2.593,0,0,0-2.277-.252C476.83,167.218,476.685,167.358,476.718,167.443Z" transform="translate(-366.687 -159.087)" fill="#263238"/>
      <path id="Path_5072" data-name="Path 5072" d="M489.437,168.318c.112.15.568,0,1.109,0s1.007.1,1.114-.059-.027-.225-.23-.364a1.515,1.515,0,0,0-.905-.246,1.548,1.548,0,0,0-.884.3C489.448,168.093,489.384,168.243,489.437,168.318Z" transform="translate(-385.454 -159.41)" fill="#263238"/>
      <path id="Path_5073" data-name="Path 5073" d="M463.9,176.762c.075-.032,2.941-.873,2.844,2.052a2.2,2.2,0,0,1-3.01,2.143C463.73,180.871,463.9,176.762,463.9,176.762Z" transform="translate(-346.746 -163.58)" fill="#ffbe9d"/>
      <path id="Path_5074" data-name="Path 5074" d="M465.086,180.694a.877.877,0,0,0,.134.08.536.536,0,0,0,.38,0,1.259,1.259,0,0,0,.616-1.109,1.694,1.694,0,0,0-.118-.734.594.594,0,0,0-.37-.407.263.263,0,0,0-.305.134c-.043.08-.027.139-.043.145s-.059-.054-.032-.171a.316.316,0,0,1,.123-.182.38.38,0,0,1,.284-.064.707.707,0,0,1,.536.471,1.7,1.7,0,0,1,.15.82,1.312,1.312,0,0,1-.782,1.237.536.536,0,0,1-.461-.091C465.086,180.764,465.075,180.7,465.086,180.694Z" transform="translate(-347.165 -164.394)" fill="#eb996e"/>
      <path id="Path_5075" data-name="Path 5075" d="M478.436,166.043a1.543,1.543,0,0,0-1.409.723c-.187.418-.23.889-.418,1.307a1.071,1.071,0,0,1-1.071.691.9.9,0,0,1-.611-.67,2.425,2.425,0,0,1,0-.943c.171-1.366.455-2.716.509-4.092a6.963,6.963,0,0,0-.862-3.975,3.825,3.825,0,0,0-3.418-1.923c-.911.075-1.741.536-2.646.675a3.578,3.578,0,0,1-2.968-.991,5.96,5.96,0,0,0-.536-.4,1.655,1.655,0,0,1,.305-.9c1.795-1.661,5.019-2.143,7.387-1.527a8.534,8.534,0,0,1,5.6,4.484c1.018,2.218.718,5.3.155,7.542" transform="translate(-359.647 -152.962)" fill="#263238"/>
      <path id="Path_5076" data-name="Path 5076" d="M464.2,158.131s11.217-3.61,16.07,6.1a18.092,18.092,0,0,0,.729-3.75,8.346,8.346,0,0,0-5.85-7.676C475.149,152.822,467.119,149.758,464.2,158.131Z" transform="translate(-361.245 -152.271)" fill="#f07824"/>
      <path id="Path_5077" data-name="Path 5077" d="M486.221,161.929a2.443,2.443,0,0,1-3.889.354,1.436,1.436,0,0,1-2.716-.139,3.326,3.326,0,0,1-1.071.8,1.114,1.114,0,0,1-1.248-.262,1.072,1.072,0,0,1,.08-1.286,2.614,2.614,0,0,1,1.136-.766,8.222,8.222,0,0,1,4.232-.643A5.716,5.716,0,0,1,486.457,162" transform="translate(-373.624 -155.829)" fill="#263238"/>
      <g id="Group_56410" data-name="Group 56410" transform="translate(102.955 0.002)" opacity="0.4">
        <path id="Path_5078" data-name="Path 5078" d="M464.2,158.132a5.212,5.212,0,0,1,3.568-1.607,14.091,14.091,0,0,1,12.5,7.714,18.093,18.093,0,0,0,.729-3.75,8.347,8.347,0,0,0-5.85-7.676C475.149,152.824,467.119,149.76,464.2,158.132Z" transform="translate(-464.2 -152.275)"/>
      </g>
      <path id="Path_5079" data-name="Path 5079" d="M487.482,163.312a21.121,21.121,0,0,0-6.535-6.257,41.155,41.155,0,0,0-9.781-3.985,6.384,6.384,0,0,0-2.705-.284,2.437,2.437,0,0,0-2,1.639c-.279,1.109,1.687,2.818,2.614,3.487a29.574,29.574,0,0,0,2.807,1.661s-.027-2.057,3.262-2.48C479.613,156.52,487.482,163.312,487.482,163.312Z" transform="translate(-368.923 -152.492)" fill="#f07824"/>
      <g id="Group_56411" data-name="Group 56411" transform="translate(99.887 47.272)" opacity="0.3">
        <path id="Path_5080" data-name="Path 5080" d="M481.68,240.52c-1.157,2.791-2.325,6.235-4,8.747a15.428,15.428,0,0,1-6.7,5.892,14.469,14.469,0,0,1-11.126.2c-.284-.123-.841-.279-.787-.584,0,0,1.152-.134,1.511-.193,7.033-1.168,7.8-2.025,11.169-4.7,2.1-1.655,6.755-6.674,9.937-9.363" transform="translate(-459.06 -240.52)"/>
      </g>
      <path id="Path_5081" data-name="Path 5081" d="M471.21,278.46a2.939,2.939,0,0,0,.295.654,8.171,8.171,0,0,0,1.136,1.607,12.32,12.32,0,0,0,5.437,3.316,24.922,24.922,0,0,0,6.342.948c.82.032,1.484.038,1.939.038a4.149,4.149,0,0,0,.712-.032,3.139,3.139,0,0,0-.707-.08l-1.934-.123a27.753,27.753,0,0,1-6.273-1.018,12.75,12.75,0,0,1-5.389-3.214,13.736,13.736,0,0,1-1.559-2.094Z" transform="translate(-371.073 -210.864)" fill="#263238"/>
      <path id="Path_5082" data-name="Path 5082" d="M503.67,364.773a.528.528,0,0,0,.043-.166,3.111,3.111,0,0,1,.1-.493c.08-.45.2-1.071.343-1.9.295-1.671.707-4.055,1.221-7,1-5.924,2.384-14.083,3.91-23.093.68-4.082,1.328-7.981,1.923-11.544l-.139.112,15.379,1.109,4.414.3,1.178.07h.305l-.305-.038-1.173-.107-4.408-.375-15.368-1.227h-.118v.118c-.6,3.562-1.259,7.462-1.944,11.538-1.494,9.015-2.844,17.179-3.83,23.109-.471,2.946-.857,5.357-1.13,7.007l-.289,1.912c-.032.2-.053.37-.07.493A.692.692,0,0,0,503.67,364.773Z" transform="translate(-433.836 -230.352)" fill="#455a64"/>
      <path id="Path_5083" data-name="Path 5083" d="M543.082,313.54c-.048.064.889.868,1.95,1.95s1.853,2.03,1.918,1.977a12.759,12.759,0,0,0-3.867-3.926Z" transform="translate(-469.449 -227.153)" fill="#455a64"/>
      <path id="Path_5084" data-name="Path 5084" d="M467.962,203.072a.9.9,0,0,0-.064.177,2.507,2.507,0,0,0-.1.536,4.4,4.4,0,0,0,.257,1.95,4.993,4.993,0,0,0,1.768,2.314,5.357,5.357,0,0,0,3.434.921,6.2,6.2,0,0,0,3.337-1.253,7.088,7.088,0,0,0,1.9-2.212,7.651,7.651,0,0,0,.728-1.821,5.179,5.179,0,0,0,.107-.536.526.526,0,0,0,0-.188,12.162,12.162,0,0,1-1.012,2.432,7.344,7.344,0,0,1-1.88,2.105,6.069,6.069,0,0,1-3.214,1.178,5.2,5.2,0,0,1-3.273-.852,4.938,4.938,0,0,1-1.725-2.175,4.548,4.548,0,0,1-.338-1.869C467.919,203.33,467.962,203.083,467.962,203.072Z" transform="translate(-361.494 -175.807)" fill="#263238"/>
      <path id="Path_5085" data-name="Path 5085" d="M494.14,328.09" transform="translate(-390.425 -233.909)" fill="none" stroke="#263238" stroke-miterlimit="10" stroke-width="0.05"/>
      <path id="Path_5086" data-name="Path 5086" d="M500.03,234.424a2.245,2.245,0,0,0,.118-.536c.059-.423.128-.937.214-1.532.177-1.366.407-3.123.659-5.067s.434-3.75.536-5.078c.059-.648.1-1.178.118-1.543a2.1,2.1,0,0,0,0-.568,2.647,2.647,0,0,0-.113.536c-.059.423-.129.932-.209,1.532-.171,1.366-.391,3.123-.632,5.067s-.45,3.75-.578,5.073c-.059.654-.1,1.178-.129,1.548A2.433,2.433,0,0,0,500.03,234.424Z" transform="translate(-401.119 -183.766)" fill="#263238"/>
    </g>
  </g>
</svg>
