<svg xmlns="http://www.w3.org/2000/svg" width="343" height="226.268" viewBox="0 0 343 226.268">
  <g id="_3724831" data-name="3724831" transform="translate(0 0.02)">
    <g id="Background_Complete" data-name="Background Complete" transform="translate(3.517 4.522)">
      <rect id="Rectangle_2593" data-name="Rectangle 2593" width="66.572" height="119.59" transform="translate(246.506 3.262)" fill="#ebebeb"/>
      <rect id="Rectangle_2594" data-name="Rectangle 2594" width="60.562" height="112.556" transform="translate(249.167 6.734)" fill="#fafafa"/>
      <path id="Path_5179" data-name="Path 5179" d="M623.9,134l-2.814-1.076V11.31H623.9Z" transform="translate(-308.012 -10.076)" fill="#e0e0e0"/>
      <rect id="Rectangle_2595" data-name="Rectangle 2595" width="61.878" height="1.198" transform="translate(249.167 39.112)" fill="#e0e0e0"/>
      <rect id="Rectangle_2596" data-name="Rectangle 2596" width="61.878" height="1.198" transform="translate(249.167 65.915)" fill="#e0e0e0"/>
      <rect id="Rectangle_2597" data-name="Rectangle 2597" width="61.878" height="1.198" transform="translate(249.167 92.722)" fill="#e0e0e0"/>
      <rect id="Rectangle_2598" data-name="Rectangle 2598" width="82.772" height="3.058" transform="translate(277.921 122.481) rotate(-90)" fill="#e0e0e0"/>
      <rect id="Rectangle_2599" data-name="Rectangle 2599" width="1.386" height="32.98" transform="translate(260.83 6.734)" fill="#e0e0e0"/>
      <rect id="Rectangle_2600" data-name="Rectangle 2600" width="1.386" height="32.98" transform="translate(272.788 6.734)" fill="#e0e0e0"/>
      <rect id="Rectangle_2601" data-name="Rectangle 2601" width="1.386" height="32.98" transform="translate(284.742 6.734)" fill="#e0e0e0"/>
      <rect id="Rectangle_2602" data-name="Rectangle 2602" width="1.386" height="32.98" transform="translate(296.7 6.734)" fill="#e0e0e0"/>
      <rect id="Rectangle_2603" data-name="Rectangle 2603" width="2.814" height="122.358" transform="translate(243.692 1.234)" fill="#e0e0e0"/>
      <rect id="Rectangle_2604" data-name="Rectangle 2604" width="72.2" height="3.262" transform="translate(243.692)" fill="#e0e0e0"/>
      <rect id="Rectangle_2605" data-name="Rectangle 2605" width="76.104" height="3.038" transform="translate(241.694 124.331)" fill="#e0e0e0"/>
      <path id="Path_5180" data-name="Path 5180" d="M552.434,249.9l4.72,1.478h-76.1l4.817-1.478Z" transform="translate(-239.356 -127.047)" fill="#e0e0e0"/>
      <rect id="Rectangle_2606" data-name="Rectangle 2606" width="20.573" height="5.444" transform="translate(8.798 152.209)" fill="#ebebeb"/>
      <path id="Path_5181" data-name="Path 5181" d="M65.27,362.086a.759.759,0,0,1,0-.1v-1.351c0-.938,0-2.289-.036-3.991l.061.061-20.594.061.1-.1h0v5.439l-.1-.1,14.66.046,4.328.031h.051l-4.3.025-14.737.046h-.1v-5.505h0c.209-.214.056-.061.107-.107l20.568.041h.066v.066c0,1.718,0,3.058-.036,4.027V362C65.306,362.065,65.275,362.091,65.27,362.086Z" transform="translate(-44.6 -198.704)" fill="#e0e0e0"/>
      <path id="Path_5182" data-name="Path 5182" d="M74.01,64.211V62.763c0-.938,0-2.289-.036-3.991l.061.061-20.568.041.1-.1h0v5.439l-.107-.1,14.665.046,4.328.031H72.5l-4.3.025-14.737.046h-.1v-5.48h0l.107-.107,20.568.041h.041v.066c0,1.718,0,3.058-.036,4.027v1.325C74.04,64.2,74.015,64.216,74.01,64.211Z" transform="translate(-48.895 -52.675)" fill="#e0e0e0"/>
      <path id="Path_5183" data-name="Path 5183" d="M690.57,345.536a.755.755,0,0,1,0-.1v-1.351c0-.943,0-2.294-.036-4l.061.066-20.573.041c.051-.046-.1.1.107-.107h0v5.434l-.1-.1,14.66.046,4.328.031h.036l-4.318.107L670,345.653h-.1V340.1h0l.1-.1,20.573.041h.066v.061c0,1.723-.031,3.084-.036,4.032v1.325C690.606,345.531,690.575,345.536,690.57,345.536Z" transform="translate(-351.159 -190.6)" fill="#e0e0e0"/>
      <path id="Path_5184" data-name="Path 5184" d="M153.149,126.346a.762.762,0,0,1,0-.1V124.9c0-.943,0-2.289-.031-4l.061.066-20.573.041.107-.107h0v5.434l-.1-.1,14.66.046,4.328.031h.051l-4.307.031-14.732.046h-.1V120.9h0l.107-.1,20.573.041h.066v.061c0,1.723-.031,3.058-.036,4.032v1.325a.438.438,0,0,1-.071.087Z" transform="translate(-87.699 -83.135)" fill="#e0e0e0"/>
      <path id="Path_5185" data-name="Path 5185" d="M166.56,115.653a.8.8,0,0,1,0-.1v-1.381c0-.953,0-2.3-.041-3.956l.076.071-12.361.031c-.092.1.127-.127.107-.1h0v5.429l-.1-.1,8.844.046,2.574.031h.943a1.136,1.136,0,0,1-.224,0H165.7l-2.549.031-8.91.046h-.1v-5.475h0c-.025,0,.2-.2.1-.107l12.361.031h.076v.076c0,1.677-.031,3.058-.041,4V115.3A3.058,3.058,0,0,1,166.56,115.653Z" transform="translate(-98.306 -77.886)" fill="#e0e0e0"/>
      <path id="Path_5186" data-name="Path 5186" d="M685.024,122.773a.459.459,0,0,1,0-.1V121.32c0-.938,0-2.289-.036-3.991l.066.061-20.573.046c.046-.051-.107.1.1-.107h0v5.434l-.1-.1,14.66.046h4.373l-4.3.031-14.732.046h-.1v-5.536h0l.107-.107,20.573.041h.026v.066c0,1.718,0,3.058-.036,4.032v1.4A.312.312,0,0,0,685.024,122.773Z" transform="translate(-348.452 -81.341)" fill="#e0e0e0"/>
      <path id="Path_5187" data-name="Path 5187" d="M698.348,112.033a.467.467,0,0,1,0-.1v-1.381c0-.953,0-2.3-.041-3.961l.076.076-12.4.01c-.092.092.127-.127.1-.107h0V112l-.1-.1,8.844.051h3.242a1.459,1.459,0,0,1,.25,0,1.02,1.02,0,0,1-.224,0h-3.222l-8.91.051h-.1v-5.536h0s.2-.2.107-.1l12.361.025h.076v.071c0,1.677-.031,3.058-.041,4.007v1.076a3.153,3.153,0,0,1-.025.489Z" transform="translate(-358.988 -76.045)" fill="#e0e0e0"/>
      <rect id="Rectangle_2607" data-name="Rectangle 2607" width="20.573" height="5.444" transform="translate(8.696 81.125)" fill="#e0e0e0"/>
      <rect id="Rectangle_2608" data-name="Rectangle 2608" width="20.573" height="5.444" transform="translate(23.489 69.952)" fill="#ebebeb"/>
      <path id="Path_5188" data-name="Path 5188" d="M94.145,200.653a.342.342,0,0,1,0-.1V199.2c0-.938,0-2.289-.036-3.991l.066.061-20.573.041.1-.1h0v5.434l-.1-.107,14.66.051h4.374l-4.3.031-14.732.046h-.1v-5.536h0l.107-.107,20.573.041h.061v.066c0,1.718,0,3.084-.036,4.032v1.325a.586.586,0,0,1-.061.168Z" transform="translate(-58.768 -119.522)" fill="#e0e0e0"/>
      <rect id="Rectangle_2609" data-name="Rectangle 2609" width="20.573" height="5.444" transform="translate(221.432 157.587)" fill="#e0e0e0"/>
      <rect id="Rectangle_2610" data-name="Rectangle 2610" width="20.573" height="5.444" transform="translate(236.219 146.408)" fill="#ebebeb"/>
      <path id="Path_5189" data-name="Path 5189" d="M511.44,350.731v-1.453c0-.938,0-2.289-.036-3.991l.061.061-20.568.046c.046-.051-.107.1.1-.107h0v5.434l-.107-.1,14.665.046,4.328.025h.046l-4.3.031-14.737.046h-.1V345.3h0l.107-.107,20.568.041h.066v.066c0,1.718,0,3.084-.036,4.032v1.325C511.5,350.726,511.445,350.731,511.44,350.731Z" transform="translate(-263.348 -193.144)" fill="#e0e0e0"/>
      <path id="Path_5190" data-name="Path 5190" d="M187.69,290.133a.91.91,0,0,1,0-.1V288.68c0-.938,0-2.289-.031-3.991l.061.061-20.573.041c.046-.046-.1.107.107-.1h0v5.434l-.1-.107,14.66.051,4.328.025h1.478a.514.514,0,0,1,.107,0h-1.534l-4.307.031-14.732.046H167V284.7h0c.209-.209.056-.061.1-.107l20.573.041h.066v.066c0,1.718-.031,3.058-.036,4.032v1.325A.582.582,0,0,1,187.69,290.133Z" transform="translate(-104.608 -163.431)" fill="#e0e0e0"/>
      <path id="Path_5191" data-name="Path 5191" d="M201.122,279.4v-1.483c0-.953,0-2.3-.041-3.961l.076.076-12.361.031.107-.107h0v5.434l-.1-.1,8.844.051,2.574.025h.943a1.7,1.7,0,0,1-.224,0h-.673l-2.549.025-8.91.046h-.1V273.9h0l.1-.1H201.25v.076c0,1.677-.031,3.058-.041,4.007v1.076A3.159,3.159,0,0,1,201.122,279.4Z" transform="translate(-115.251 -158.145)" fill="#e0e0e0"/>
    </g>
    <g id="Floor" transform="translate(0 220.448)">
      <path id="Path_5192" data-name="Path 5192" d="M375.725,470.643c0,.071-75.676.133-169,.133s-169.02-.061-169.02-.133,75.656-.133,169.02-.133S375.725,470.566,375.725,470.643Z" transform="translate(-37.7 -470.51)" fill="#263238"/>
    </g>
    <g id="Character" transform="translate(228.892 28.418)">
      <path id="Path_5193" data-name="Path 5193" d="M656.776,433.6l3.273,13,5.556,9.532a1.376,1.376,0,0,1-.576,1.927h0a1.376,1.376,0,0,1-1.254,0c-2.5-1.346-11.653-6.346-11.836-7.31-.219-1.116-4.369-13.483-4.369-13.483Z" transform="translate(-565.586 -260.385)" fill="#f07824"/>
      <g id="Group_56412" data-name="Group 56412" transform="translate(86.108 189.476)" opacity="0.6">
        <path id="Path_5194" data-name="Path 5194" d="M668.995,473.7l-13.335-8.2.153.545a2.07,2.07,0,0,0,.831,1.162c1.086.739,4.134,2.707,11.056,6.484a1.371,1.371,0,0,0,1.295,0Z" transform="translate(-655.66 -465.5)" fill="#fff"/>
      </g>
      <g id="Group_56413" data-name="Group 56413" transform="translate(86.588 184.541)" opacity="0.6">
        <path id="Path_5195" data-name="Path 5195" d="M657.625,455.85a.831.831,0,0,1,.51.989.8.8,0,0,1-.969.51.877.877,0,0,1-.535-1.045.831.831,0,0,1,1.07-.423" transform="translate(-656.602 -455.818)" fill="#fff"/>
      </g>
      <path id="Path_5196" data-name="Path 5196" d="M672.95,470.111a4.336,4.336,0,0,1,.856-1.32,4.079,4.079,0,0,1,1.412-.693c0-.036-.189-.092-.51-.051a2.2,2.2,0,0,0-1.753,1.56C672.864,469.912,672.9,470.111,672.95,470.111Z" transform="translate(-578.004 -277.265)" fill="#263238"/>
      <path id="Path_5197" data-name="Path 5197" d="M675.7,473.613c.076.036.377-.51.989-.872a10.918,10.918,0,0,1,1.218-.51,1.529,1.529,0,0,0-1.371.265C675.844,472.93,675.62,473.613,675.7,473.613Z" transform="translate(-579.368 -279.294)" fill="#263238"/>
      <path id="Path_5198" data-name="Path 5198" d="M668.4,466.356a7.075,7.075,0,0,1,3.232-2.426A3.752,3.752,0,0,0,668.4,466.356Z" transform="translate(-575.798 -275.254)" fill="#263238"/>
      <path id="Path_5199" data-name="Path 5199" d="M665.8,459.954c.056.066.688-.428,1.606-.719s1.718-.27,1.723-.357a2.581,2.581,0,0,0-1.815.076A2.666,2.666,0,0,0,665.8,459.954Z" transform="translate(-574.523 -272.721)" fill="#263238"/>
      <path id="Path_5200" data-name="Path 5200" d="M663.717,452.542a6.628,6.628,0,0,1,1.657-.79,6.818,6.818,0,0,1,1.83-.046c0-.031-.173-.153-.51-.245a2.967,2.967,0,0,0-2.615.627C663.8,452.323,663.691,452.517,663.717,452.542Z" transform="translate(-573.5 -269.102)" fill="#263238"/>
      <path id="Path_5201" data-name="Path 5201" d="M664.267,448.238a1.254,1.254,0,0,0-.117-.51,3.644,3.644,0,0,0-.744-1.172,1.564,1.564,0,0,0-.841-.54.561.561,0,0,0-.571.285.933.933,0,0,0-.041.642,1.937,1.937,0,0,0,2.12,1.274,2.238,2.238,0,0,0,1.815-1.723.77.77,0,0,0-.138-.637.51.51,0,0,0-.622-.122,1.922,1.922,0,0,0-.729.673,3.977,3.977,0,0,0-.6,1.249,1.259,1.259,0,0,0-.076.51,6.114,6.114,0,0,1,.846-1.626,1.8,1.8,0,0,1,.647-.576.3.3,0,0,1,.341.066.54.54,0,0,1,.066.423,2.039,2.039,0,0,1-1.6,1.478,1.682,1.682,0,0,1-1.815-1.07.651.651,0,0,1,0-.444.3.3,0,0,1,.311-.163,1.386,1.386,0,0,1,.724.443A5.255,5.255,0,0,1,664.267,448.238Z" transform="translate(-572.618 -266.306)" fill="#263238"/>
      <path id="Path_5202" data-name="Path 5202" d="M569.89,437.292l.724,10.919s-10.868,3.609-10.934,5.643l21.241.153-.428-17.066Z" transform="translate(-522.497 -262.022)" fill="#f07824"/>
      <g id="Group_56414" data-name="Group 56414" transform="translate(53.678 185.072)" opacity="0.6">
        <path id="Path_5203" data-name="Path 5203" d="M593.039,456.86a.872.872,0,0,1,.627.974.836.836,0,0,1-.958.632.917.917,0,0,1-.658-1.019.861.861,0,0,1,1.065-.545" transform="translate(-592.04 -456.86)" fill="#fff"/>
      </g>
      <g id="Group_56415" data-name="Group 56415" transform="translate(37.066 190.261)" opacity="0.6">
        <path id="Path_5204" data-name="Path 5204" d="M580.808,468.763l-.041-1.723-20.527.571a1.453,1.453,0,0,0-.79,1.152Z" transform="translate(-559.45 -467.04)" fill="#fff"/>
      </g>
      <path id="Path_5205" data-name="Path 5205" d="M580.449,458.755c0,.107.51.138,1.02.454s.805.744.9.7-.082-.637-.714-1.02S580.424,458.663,580.449,458.755Z" transform="translate(-532.679 -272.664)" fill="#263238"/>
      <path id="Path_5206" data-name="Path 5206" d="M576.14,460.757c0,.1.433.265.8.693s.484.887.586.882.153-.6-.311-1.121S576.14,460.661,576.14,460.757Z" transform="translate(-530.567 -273.677)" fill="#263238"/>
      <path id="Path_5207" data-name="Path 5207" d="M572.973,464.41c.092,0,.219-.51-.061-1.065s-.775-.77-.816-.683.265.382.51.846S572.866,464.4,572.973,464.41Z" transform="translate(-528.583 -274.624)" fill="#263238"/>
      <path id="Path_5208" data-name="Path 5208" d="M580.666,453.552c.046.1.51-.061,1.106-.041s1.05.194,1.1.1-.4-.443-1.091-.464S580.61,453.475,580.666,453.552Z" transform="translate(-532.783 -269.969)" fill="#263238"/>
      <g id="Group_56416" data-name="Group 56416" transform="translate(47.541 177.212)" opacity="0.3">
        <path id="Path_5209" data-name="Path 5209" d="M542.3,403.639l.127,1.947,10.429-.413-.041-1.754Z" transform="translate(-542.3 -403.42)"/>
      </g>
      <path id="Path_5210" data-name="Path 5210" d="M580.46,447.894a2.039,2.039,0,0,0,1.065-.041,4.921,4.921,0,0,0,1.1-.372,4.55,4.55,0,0,0,.6-.347,1.151,1.151,0,0,0,.311-.26.449.449,0,0,0,.031-.551.571.571,0,0,0-.459-.224,1.436,1.436,0,0,0-.4.066,3.949,3.949,0,0,0-.653.25,3.636,3.636,0,0,0-.963.673c-.479.469-.632.861-.6.882s.275-.3.765-.693a4.3,4.3,0,0,1,.933-.561,4.243,4.243,0,0,1,.607-.209c.219-.061.413-.071.474.025s0,.056,0,.122a1.164,1.164,0,0,1-.229.189,5.806,5.806,0,0,1-1.57.765,7.657,7.657,0,0,0-1.019.285Z" transform="translate(-532.685 -266.513)" fill="#263238"/>
      <path id="Path_5211" data-name="Path 5211" d="M579.32,446.7a1.724,1.724,0,0,0,.25-1.02,3.488,3.488,0,0,0-.183-1.162,3.7,3.7,0,0,0-.291-.637.877.877,0,0,0-.693-.51.51.51,0,0,0-.433.311,1.377,1.377,0,0,0-.1.392,2.211,2.211,0,0,0,0,.714,2.406,2.406,0,0,0,.484,1.086c.433.54.872.647.877.612a7.743,7.743,0,0,1-.647-.754,2.442,2.442,0,0,1-.367-.989,2.237,2.237,0,0,1,0-.612c0-.229.107-.413.194-.392a.754.754,0,0,1,.382.336,4.179,4.179,0,0,1,.28.566,4.007,4.007,0,0,1,.239,1.055C579.361,446.291,579.259,446.683,579.32,446.7Z" transform="translate(-531.402 -265.175)" fill="#263238"/>
      <path id="Path_5212" data-name="Path 5212" d="M539.665,212.55l32.363-.24,15.639,102.713-13.432,1.7-17.214-84.454-5.154,84.755-.01.255-14.528-.255Z" transform="translate(-492.323 -132.515)" fill="#373636"/>
      <path id="Path_5213" data-name="Path 5213" d="M610.98,276.938a6.622,6.622,0,0,0-.081-1.249c-.077-.775-.158-1.835-.194-3.013s0-2.248,0-3.018a6.623,6.623,0,0,0,0-1.259,5.229,5.229,0,0,0-.194,1.244,25.166,25.166,0,0,0,.183,6.066A4.733,4.733,0,0,0,610.98,276.938Z" transform="translate(-547.367 -179.394)" fill="#455a64"/>
      <path id="Path_5214" data-name="Path 5214" d="M605.236,268.931a.292.292,0,0,0-.189-.071.821.821,0,0,0-.51.158.905.905,0,1,0,1.361.459.831.831,0,0,0-.331-.449c-.112-.071-.189-.071-.194-.061a.91.91,0,0,1,.341.561.77.77,0,0,1-.143.632.709.709,0,0,1-1.193-.408.79.79,0,0,1,.27-.586A.933.933,0,0,1,605.236,268.931Z" transform="translate(-544.289 -179.619)" fill="#455a64"/>
      <path id="Path_5215" data-name="Path 5215" d="M622.56,264.917a1.973,1.973,0,0,0,.3.27,5.373,5.373,0,0,0,.923.581,7.485,7.485,0,0,0,1.529.571,8.406,8.406,0,0,0,1.968.25,8.737,8.737,0,0,0,1.973-.245,7.473,7.473,0,0,0,1.529-.576,5.406,5.406,0,0,0,.923-.576c.2-.158.306-.255.3-.27s-.479.306-1.3.678a8.487,8.487,0,0,1-1.494.51,8.369,8.369,0,0,1-3.828,0,7.725,7.725,0,0,1-1.494-.51C623.039,265.223,622.591,264.876,622.56,264.917Z" transform="translate(-553.325 -177.685)" fill="#455a64"/>
      <path id="Path_5216" data-name="Path 5216" d="M583.26,267.626a2.238,2.238,0,0,0,.887.189,6.245,6.245,0,0,0,4.149-1.188,2.244,2.244,0,0,0,.652-.627A8.4,8.4,0,0,1,583.26,267.626Z" transform="translate(-534.057 -178.217)" fill="#455a64"/>
      <path id="Path_5217" data-name="Path 5217" d="M647.752,365.61a1.425,1.425,0,0,1-.092-.219c-.046-.148-.112-.377-.184-.678-.143-.6-.336-1.494-.571-2.651-.459-2.309-1.091-5.653-1.845-9.8-1.529-8.283-3.517-19.737-5.735-32.394s-4.241-24.1-5.7-32.4c-.749-4.134-1.356-7.483-1.774-9.813-.219-1.147-.387-2.039-.51-2.666-.061-.3-.107-.51-.138-.693l-.056-.234a1.693,1.693,0,0,0,.025.24c.025.158.066.4.112.7.107.622.255,1.529.454,2.671.4,2.335.974,5.689,1.687,9.828l5.607,32.42c2.212,12.657,4.256,24.106,5.811,32.384.775,4.139,1.432,7.483,1.927,9.782A14.2,14.2,0,0,0,647.752,365.61Z" transform="translate(-557.536 -182.169)" fill="#455a64"/>
      <path id="Path_5218" data-name="Path 5218" d="M582.681,363.482v-3.6c0-1.142,0-2.584.046-4.231s.036-3.527.092-5.607c.082-4.149.24-9.089.479-14.568s.6-11.5,1.065-17.815,1.019-12.326,1.606-17.785,1.162-10.363,1.7-14.482c.255-2.039.51-3.915.739-5.551s.423-3.058.591-4.185.285-2.039.372-2.646c.041-.3.071-.51.092-.693a1.977,1.977,0,0,0,0-.234.957.957,0,0,1-.046.234c-.046.158-.071.393-.117.683-.1.617-.245,1.5-.423,2.64s-.4,2.549-.637,4.18-.51,3.492-.78,5.551c-.561,4.114-1.162,9.017-1.759,14.477s-1.147,11.469-1.626,17.79-.805,12.341-1.045,17.841-.367,10.424-.423,14.579c-.041,2.075-.041,3.95-.056,5.607s0,3.058,0,4.231v3.364A.217.217,0,0,0,582.681,363.482Z" transform="translate(-533.708 -181.198)" fill="#455a64"/>
      <path id="Path_5219" data-name="Path 5219" d="M514.375,172.385l20.221,5.9,11.326-6.688,8.594,10.195-16.031,6.943a8.355,8.355,0,0,1-7.136-.234l-19.88-10.195Z" transform="translate(-498.862 -131.937)" fill="#ffbe9d"/>
      <path id="Path_5220" data-name="Path 5220" d="M497.736,164.539l-2.5-1.3-6.963-3.624a.647.647,0,0,0-.805.918l4.44,3.65-1.876.7a1.6,1.6,0,0,0-.851.77l-.984,1.963s-1.132.122-1.244.851.734.989.734.989l-.214.856a1.447,1.447,0,0,0,.209,1.162h0c1.076.443,1.932-1.815,1.932-1.815l1.152.122,1.254,2.549c1.6.387.841-2.131.841-2.131l.7.178c.7.173,1.07.673,2.166,1.234a11.647,11.647,0,0,0,3.242.76l1.59,1.172,4.843-6.622Z" transform="translate(-486.836 -126.039)" fill="#fafafa"/>
      <path id="Path_5221" data-name="Path 5221" d="M497.636,164.5l.138.025.392.112,1.529.454,5.648,1.723.117.036-.076.1-4.8,6.627-.071.1-.092-.071-1.6-1.167h.061a11.462,11.462,0,0,1-3.14-.693,9.77,9.77,0,0,1-1.448-.877,2.961,2.961,0,0,0-.719-.382c-.26-.071-.551-.138-.826-.209l.153-.163a4.232,4.232,0,0,1,.173,1.448,1.05,1.05,0,0,1-.347.734,1.019,1.019,0,0,1-.821.112h-.056l-.031-.061c-.4-.805-.826-1.662-1.259-2.549l.107.076-1.019-.107h-.143l.138-.082a5.647,5.647,0,0,1-.617,1.147,1.687,1.687,0,0,1-1.065.8h-.184a.767.767,0,0,1-.178-.046h-.066s-.112-.092-.061-.046h0l-.046-.071-.076-.153a1.636,1.636,0,0,1-.138-.658,2.72,2.72,0,0,1,.112-.637l.148-.6.1.163a1.239,1.239,0,0,1-.688-.464.943.943,0,0,1-.1-.831,1.116,1.116,0,0,1,.571-.581,2.407,2.407,0,0,1,.744-.219l-.1.071.622-1.239.311-.607a1.824,1.824,0,0,1,.4-.586,1.672,1.672,0,0,1,.607-.372l.617-.234,1.208-.459-.036.209-4.43-3.665h0a.754.754,0,0,1,.107-.877.744.744,0,0,1,.826-.184h0l6.9,3.645,1.871,1.019.484.27a.794.794,0,0,1,.163.1,1.5,1.5,0,0,1-.173-.076l-.51-.24-1.906-.958-6.938-3.568h0a.545.545,0,0,0-.6.138.556.556,0,0,0-.071.637v-.031l4.45,3.64.158.133-.194.071-1.2.464-.617.234a1.53,1.53,0,0,0-.51.321,1.639,1.639,0,0,0-.352.51l-.306.607-.622,1.239-.031.061h-.071c-.428.061-.948.245-1.1.632a.7.7,0,0,0,.071.6,1.019,1.019,0,0,0,.535.357l.127.036-.031.122-.148.6a2.178,2.178,0,0,0-.1.571,1.366,1.366,0,0,0,.112.551l.066.122.036.061h0c.056.041-.071-.061-.056-.051h.031a.932.932,0,0,0,.127.031h.127a1.463,1.463,0,0,0,.877-.688,5.326,5.326,0,0,0,.581-1.091l.041-.1h.24l1.019.107h.076l.031.061c.428.872.856,1.728,1.254,2.549l-.087-.066a.77.77,0,0,0,.6-.066.81.81,0,0,0,.245-.556,3.833,3.833,0,0,0-.163-1.341l-.056-.219.214.056c.285.071.551.133.846.214a3.089,3.089,0,0,1,.78.418,9.753,9.753,0,0,0,1.412.856,11.271,11.271,0,0,0,3.058.683h.056l1.59,1.177-.163.025c1.84-2.5,3.487-4.736,4.842-6.586l.046.138-5.607-1.8-1.5-.51-.387-.133Z" transform="translate(-486.736 -126.001)" fill="#263238"/>
      <path id="Path_5222" data-name="Path 5222" d="M492.946,174.568c0,.025-.556-.071-1.5-.209s-2.279-.311-3.849-.443h.026a.877.877,0,0,1-.811-1.218,1.687,1.687,0,0,1,1.341-.943c.6-.1,1.152-.127,1.692-.224s1.06-.194,1.529-.321.948-.26,1.371-.4a1.438,1.438,0,0,0,.535-.275.367.367,0,0,0,.107-.433,1.36,1.36,0,0,0-.321-.393l-.342-.347c-.214-.219-.4-.4-.556-.54-.316-.28-.51-.4-.51-.418a1.825,1.825,0,0,1,.581.342,7.235,7.235,0,0,1,.591.51l.357.331a1.407,1.407,0,0,1,.377.438.566.566,0,0,1-.143.658,1.565,1.565,0,0,1-.6.336c-.428.153-.887.3-1.381.433s-1.02.245-1.56.336-1.132.138-1.687.229a1.422,1.422,0,0,0-1.147.775.627.627,0,0,0,.535.882h0c1.58.153,2.916.357,3.854.54.469.092.841.173,1.091.24a1.336,1.336,0,0,1,.418.117Z" transform="translate(-486.74 -130.368)" fill="#263238"/>
      <path id="Path_5223" data-name="Path 5223" d="M496.381,173.353a2.431,2.431,0,0,1-1.336.178,3.868,3.868,0,0,1-.7-.092l.122-.071c-.153.347-.275.566-.321.551s0-.265.107-.627l.026-.082h.1l.688.046a6.438,6.438,0,0,1,1.32.1Z" transform="translate(-490.358 -132.726)" fill="#263238"/>
      <path id="Path_5224" data-name="Path 5224" d="M537.879,119.05l-13.029,10,9.135,12.03,11.143-6.326Z" transform="translate(-486.204 -86.794)" fill="#f07824"/>
      <path id="Path_5225" data-name="Path 5225" d="M582.207,153.261h0c1.886-1.157,8.406-2.589,8.406-2.589l12.611-1.371,10.939,5.021-4.486,18.825,3.935,35.493-37.542,2.039Z" transform="translate(-530.532 -121.004)" fill="#f07824"/>
      <rect id="Rectangle_2611" data-name="Rectangle 2611" width="6.469" height="1.743" transform="translate(66.641 48.002)" fill="#fafafa"/>
      <path id="Path_5226" data-name="Path 5226" d="M623.934,189.709H617.44V187.94h6.494Zm-6.469,0h6.443v-1.738h-6.443Z" transform="translate(-550.814 -139.948)" fill="#263238"/>
      <path id="Path_5227" data-name="Path 5227" d="M584.79,172.876a15.448,15.448,0,0,1-.189-2.89,16.448,16.448,0,0,1,.082-2.9,15.558,15.558,0,0,1,.189,2.89A16.372,16.372,0,0,1,584.79,172.876Z" transform="translate(-534.701 -129.726)" fill="#263238"/>
      <path id="Path_5228" data-name="Path 5228" d="M633,241.91" transform="translate(-558.443 -166.407)" fill="#e8505b"/>
      <path id="Path_5229" data-name="Path 5229" d="M614.024,106.281l-1.381,19.549a6.117,6.117,0,0,1-6.076,5.663h0A6.117,6.117,0,0,1,600.485,125c.122-1.861.229-3.38.229-3.38s-4.73-.739-4.786-5.47c-.036-2.732.438-8.936.841-13.681a6.2,6.2,0,0,1,6.183-5.679h2.86a8.757,8.757,0,0,1,8.212,9.491Z" transform="translate(-540.267 -95.261)" fill="#ffbe9d"/>
      <path id="Path_5230" data-name="Path 5230" d="M605.3,143.674a10.99,10.99,0,0,0,6.168-1.754s-1.458,3.405-6.178,2.982Z" transform="translate(-544.858 -117.386)" fill="#eb996e"/>
      <path id="Path_5231" data-name="Path 5231" d="M599.47,119.065a.673.673,0,0,0,.648.683.642.642,0,0,0,.7-.607.678.678,0,0,0-.652-.683.642.642,0,0,0-.693.607Z" transform="translate(-542.004 -105.883)" fill="#263238"/>
      <path id="Path_5232" data-name="Path 5232" d="M599.17,116.548c.081.092.6-.291,1.32-.285s1.259.362,1.341.275-.046-.2-.28-.367a1.865,1.865,0,0,0-1.07-.331,1.753,1.753,0,0,0-1.055.342C599.206,116.35,599.129,116.513,599.17,116.548Z" transform="translate(-541.852 -104.6)" fill="#263238"/>
      <path id="Path_5233" data-name="Path 5233" d="M613.18,119.07a.673.673,0,0,0,.652.678.642.642,0,0,0,.693-.607.678.678,0,0,0-.647-.683.647.647,0,0,0-.7.612Z" transform="translate(-548.726 -105.883)" fill="#263238"/>
      <path id="Path_5234" data-name="Path 5234" d="M613.19,116.818c.081.087.6-.291,1.32-.291s1.259.367,1.341.28-.046-.2-.28-.372a1.83,1.83,0,0,0-1.07-.326,1.789,1.789,0,0,0-1.055.336C613.226,116.62,613.149,116.778,613.19,116.818Z" transform="translate(-548.726 -104.732)" fill="#263238"/>
      <path id="Path_5235" data-name="Path 5235" d="M606.394,121.9a4.843,4.843,0,0,0-1.177-.209c-.189,0-.362-.056-.393-.184a.907.907,0,0,1,.122-.551c.173-.449.357-.923.551-1.412a24.674,24.674,0,0,0,1.234-3.7,24.032,24.032,0,0,0-1.529,3.568c-.183.51-.362.974-.51,1.422a1.06,1.06,0,0,0-.1.729.479.479,0,0,0,.306.275,1.249,1.249,0,0,0,.316.041,4.333,4.333,0,0,0,1.178.02Z" transform="translate(-544.504 -104.6)" fill="#263238"/>
      <path id="Path_5236" data-name="Path 5236" d="M612.826,112.028c.071.2.8.107,1.652.209s1.529.336,1.657.158c.051-.087-.071-.27-.352-.464a2.885,2.885,0,0,0-2.518-.275C612.954,111.778,612.8,111.936,612.826,112.028Z" transform="translate(-548.551 -102.465)" fill="#263238"/>
      <path id="Path_5237" data-name="Path 5237" d="M599.172,113.718c.127.168.632,0,1.234,0s1.111.107,1.229-.066c.051-.082-.031-.245-.25-.4a1.784,1.784,0,0,0-1.983.061C599.188,113.468,599.116,113.642,599.172,113.718Z" transform="translate(-541.85 -103.197)" fill="#263238"/>
      <path id="Path_5238" data-name="Path 5238" d="M628.124,122.236c.082-.036,3.252-.963,3.15,2.273s-3.334,2.462-3.334,2.37S628.124,122.236,628.124,122.236Z" transform="translate(-555.962 -107.662)" fill="#ffbe9d"/>
      <path id="Path_5239" data-name="Path 5239" d="M629.987,126.684a1.041,1.041,0,0,0,.153.087.541.541,0,0,0,.418,0,1.392,1.392,0,0,0,.688-1.228,1.886,1.886,0,0,0-.133-.81.658.658,0,0,0-.413-.449.285.285,0,0,0-.336.143c-.046.092-.026.158-.046.163s-.066-.056-.036-.194a.352.352,0,0,1,.133-.194.433.433,0,0,1,.316-.076.8.8,0,0,1,.571.51,1.9,1.9,0,0,1,.168.912,1.463,1.463,0,0,1-.867,1.366.591.591,0,0,1-.51-.1C629.987,126.761,629.951,126.689,629.987,126.684Z" transform="translate(-556.959 -108.66)" fill="#eb996e"/>
      <path id="Path_5240" data-name="Path 5240" d="M617.534,109.081a1.7,1.7,0,0,0-1.555.8c-.214.464-.26.984-.469,1.448a1.142,1.142,0,0,1-1.177.765,1.02,1.02,0,0,1-.673-.739,2.672,2.672,0,0,1,0-1.045c.189-1.529.51-3.007.571-4.527a7.754,7.754,0,0,0-.958-4.4,4.241,4.241,0,0,0-3.782-2.131c-1.019.082-1.927.607-2.926.749a3.971,3.971,0,0,1-3.283-1.1,6.657,6.657,0,0,0-.612-.443,1.861,1.861,0,0,1,.336-1.019c1.983-1.835,5.551-2.345,8.156-1.687a9.44,9.44,0,0,1,6.193,4.96c1.127,2.452.8,5.867.173,8.344" transform="translate(-543.573 -94.619)" fill="#263238"/>
      <path id="Path_5241" data-name="Path 5241" d="M597.47,100.264s12.412-3.991,17.785,6.749a20.249,20.249,0,0,0,.8-4.129,9.212,9.212,0,0,0-6.469-8.5C609.586,94.407,600.7,91,597.47,100.264Z" transform="translate(-541.024 -93.79)" fill="#f07824"/>
      <path id="Path_5242" data-name="Path 5242" d="M608.7,104.871a2.7,2.7,0,0,1-4.3.392,1.6,1.6,0,0,1-3.013-.158,3.6,3.6,0,0,1-1.208.882,1.234,1.234,0,0,1-1.376-.291,1.2,1.2,0,0,1,.087-1.422,2.89,2.89,0,0,1,1.254-.846,9.1,9.1,0,0,1,4.685-.714,6.311,6.311,0,0,1,4.109,2.238" transform="translate(-541.583 -98.138)" fill="#263238"/>
      <g id="Group_56417" data-name="Group 56417" transform="translate(56.446)" opacity="0.4">
        <path id="Path_5243" data-name="Path 5243" d="M597.47,100.264a5.791,5.791,0,0,1,3.951-1.789,15.591,15.591,0,0,1,13.834,8.538,20.249,20.249,0,0,0,.8-4.129,9.212,9.212,0,0,0-6.469-8.5C609.586,94.407,600.7,91,597.47,100.264Z" transform="translate(-597.47 -93.79)"/>
      </g>
      <path id="Path_5244" data-name="Path 5244" d="M608.941,106.017a23.407,23.407,0,0,0-7.233-6.927,44.588,44.588,0,0,0-10.822-4.409,7.106,7.106,0,0,0-2.987-.311,2.707,2.707,0,0,0-2.217,1.83c-.306,1.223,1.866,3.115,2.89,3.859a33.16,33.16,0,0,0,3.1,1.835s-.026-2.273,3.614-2.742C600.24,98.5,608.941,106.017,608.941,106.017Z" transform="translate(-535.23 -94.053)" fill="#f07824"/>
      <path id="Path_5245" data-name="Path 5245" d="M607.938,97.324a11.725,11.725,0,0,0-3.568-1.218,4.752,4.752,0,0,1,.974-.586,9.237,9.237,0,0,1,2.793.943Z" transform="translate(-544.407 -94.638)" fill="#e0e0e0"/>
      <path id="Path_5246" data-name="Path 5246" d="M625.5,122.589a5.74,5.74,0,0,1-.673.51c-.51.377-1.05.765-1.626,1.193a16.911,16.911,0,0,1-2.381,1.6,14.458,14.458,0,0,1,2.223-1.81A7.756,7.756,0,0,1,625.5,122.589Z" transform="translate(-552.472 -107.903)" fill="#ebebeb"/>
      <path id="Path_5247" data-name="Path 5247" d="M626.422,131.858a9.864,9.864,0,0,1-4.343,3.68c-.036-.071,1.076-.7,2.273-1.723S626.361,131.807,626.422,131.858Z" transform="translate(-553.088 -112.452)" fill="#ebebeb"/>
      <path id="Path_5248" data-name="Path 5248" d="M595.3,128.675a10.427,10.427,0,0,0,1.616.347c2.345-.127,3.165-.918,6.994-.1a5.3,5.3,0,0,0,1.881.056,15.95,15.95,0,0,1,2.289-.163l.739,5.1s-4.542,3.971-8.63,3.527C594.9,136.877,594.279,130.709,595.3,128.675Z" transform="translate(-539.759 -110.834)" fill="#fafafa"/>
      <path id="Path_5249" data-name="Path 5249" d="M595.315,128.663s-.046.133-.138.372a5.415,5.415,0,0,0-.219,1.111,8.069,8.069,0,0,0,.739,4.078,5.78,5.78,0,0,0,1.81,2.192,5.862,5.862,0,0,0,3.089,1.019,8.564,8.564,0,0,0,3.568-.709,17.134,17.134,0,0,0,3.43-1.9c.418-.3.826-.6,1.2-.928v.051c-.26-1.794-.51-3.512-.734-5.1l.046.041a20.819,20.819,0,0,0-2.7.2,5.322,5.322,0,0,1-1.279-.066c-.408-.076-.8-.168-1.183-.224a12.351,12.351,0,0,0-2.182-.183,11.938,11.938,0,0,0-1.866.2c-.561.1-1.065.178-1.529.214a3.231,3.231,0,0,1-.622,0,2.15,2.15,0,0,1-.51-.1c-.607-.143-.923-.25-.923-.25a6.183,6.183,0,0,0,3.568.061,10.628,10.628,0,0,1,4.078-.041c.387.051.785.143,1.188.219a5.379,5.379,0,0,0,1.254.061,19.972,19.972,0,0,1,2.712-.209h.046v.041c.235,1.6.479,3.318.739,5.1h0c-.387.326-.8.632-1.213.933a17.488,17.488,0,0,1-3.456,1.912,8.635,8.635,0,0,1-3.6.709,5.607,5.607,0,0,1-4.975-3.262,8.024,8.024,0,0,1-.708-4.1,5.237,5.237,0,0,1,.239-1.116A2.339,2.339,0,0,1,595.315,128.663Z" transform="translate(-539.771 -110.822)" fill="#263238"/>
      <path id="Path_5250" data-name="Path 5250" d="M596.54,134.439a12.5,12.5,0,0,0,11.352-.209,8.283,8.283,0,0,1-2.416,2.182,7.945,7.945,0,0,1-3.68.6,6.555,6.555,0,0,1-2.931-.469,6.744,6.744,0,0,1-2.2-2.115" transform="translate(-540.568 -113.616)" fill="#e0e0e0"/>
      <path id="Path_5251" data-name="Path 5251" d="M607.9,132.11a6.672,6.672,0,0,1-1.468.382,23.213,23.213,0,0,1-3.634.418,23.961,23.961,0,0,1-3.655-.158,6.9,6.9,0,0,1-1.488-.28,11.817,11.817,0,0,1,1.529.092,31.473,31.473,0,0,0,7.238-.255A11.609,11.609,0,0,1,607.9,132.11Z" transform="translate(-541.112 -112.577)" fill="#e0e0e0"/>
      <path id="Path_5252" data-name="Path 5252" d="M610.9,136.278a4.029,4.029,0,0,1-1.019,1.019,8.594,8.594,0,0,1-6.515,1.8,4.246,4.246,0,0,1-1.381-.357c0-.041.54.1,1.407.168a9.374,9.374,0,0,0,6.372-1.764C610.488,136.645,610.865,136.248,610.9,136.278Z" transform="translate(-543.235 -114.619)" fill="#e0e0e0"/>
      <path id="Path_5253" data-name="Path 5253" d="M608.276,133.994a1.6,1.6,0,0,1-.408.265,8.993,8.993,0,0,1-1.2.556,12.06,12.06,0,0,1-1.886.556,13.181,13.181,0,0,1-2.386.265,13.617,13.617,0,0,1-2.4-.189,11.5,11.5,0,0,1-1.9-.51,8.621,8.621,0,0,1-1.218-.51,1.53,1.53,0,0,1-.413-.25c0-.041.637.265,1.687.586a13.977,13.977,0,0,0,1.881.438,13.3,13.3,0,0,0,6.565-.586C607.644,134.264,608.25,133.938,608.276,133.994Z" transform="translate(-540.534 -113.497)" fill="#263238"/>
      <path id="Path_5254" data-name="Path 5254" d="M606.37,133.745a13.208,13.208,0,0,1-6.03-.25c0-.076,1.351.148,3.013.209S606.365,133.658,606.37,133.745Z" transform="translate(-542.431 -113.248)" fill="#263238"/>
      <path id="Path_5255" data-name="Path 5255" d="M464.05,180.885V139.55h57.5v41.335l-30.472.255Z" transform="translate(-456.396 -96.844)" fill="#f07824"/>
      <g id="Group_56418" data-name="Group 56418" transform="translate(7.654 42.706)" opacity="0.4">
        <rect id="Rectangle_2612" data-name="Rectangle 2612" width="57.499" height="41.335"/>
      </g>
      <path id="Path_5256" data-name="Path 5256" d="M491.076,181.14l-27.026-.255V139.55h26.935Z" transform="translate(-456.396 -96.844)" fill="#f07824"/>
      <rect id="Rectangle_2613" data-name="Rectangle 2613" width="3.583" height="7.172" transform="translate(18.638 42.706)" fill="#263238"/>
      <rect id="Rectangle_2614" data-name="Rectangle 2614" width="7.136" height="7.136" transform="translate(9.57 74.917)" fill="#fafafa"/>
      <path id="Path_5257" data-name="Path 5257" d="M512.647,247.926H505.48V240.79h7.167Zm-7.136,0h7.111V240.79h-7.111Z" transform="translate(-495.925 -165.858)" fill="#263238"/>
      <path id="Path_5258" data-name="Path 5258" d="M624.923,195.048l1.188,9.619L608.27,215.254l2.773,6.117,20.278-8.192c2.457-1.249,4.557-3.094,4.384-5.857l-.974-13.462Z" transform="translate(-546.319 -142.85)" fill="#ffbe9d"/>
      <path id="Path_5259" data-name="Path 5259" d="M643.951,159.15a9.685,9.685,0,0,1,3.252,5.8c.683,3.726,3,14.145,3,14.145l-12.234,1.448v-2.865c0-.041-1.142-5.373-1.142-5.373l2.279-7.356Z" transform="translate(-560.321 -125.833)" fill="#f07824"/>
      <path id="Path_5260" data-name="Path 5260" d="M649.921,190.379a5.309,5.309,0,0,1-.836.148l-2.289.316c-1.932.255-4.588.591-7.565.943l-1.019.122h-.138v-.143c-.2-2.727-.428-5.148-.591-6.892-.082-.836-.148-1.529-.2-2.039a4.587,4.587,0,0,1-.046-.754,4.078,4.078,0,0,1,.143.744c.076.479.168,1.178.28,2.039.209,1.738.469,4.165.678,6.9l-.148-.122,1.019-.122c2.956-.357,5.607-.663,7.575-.867l2.3-.234a5.008,5.008,0,0,1,.836-.036Z" transform="translate(-560.521 -137.075)" fill="#263238"/>
      <path id="Path_5261" data-name="Path 5261" d="M643.53,160.47c0,.041-.443.229-1.121.647a9.767,9.767,0,0,0-3.935,4.659c-.3.739-.408,1.228-.454,1.218a4.037,4.037,0,0,1,.275-1.285,8.717,8.717,0,0,1,4.022-4.756,3.927,3.927,0,0,1,1.213-.484Z" transform="translate(-560.904 -126.48)" fill="#263238"/>
      <path id="Path_5262" data-name="Path 5262" d="M593.835,234.78l-2.62,1.2-1.121-.433-5.719-.357-3.568.79-.1.2c0,1.942,3.675,1.177,4.8,1.483s.1,2.707.1,2.707-5.057,6.591-5.938,8.156c-.438.79-.3,1.223-.041,1.463a.759.759,0,0,0,.953.031l1.866-1.32s5.138.3,5.49.127a5.4,5.4,0,0,0,1.249-1.325,39.06,39.06,0,0,1,8.12-5.984Z" transform="translate(-532.159 -162.912)" fill="#fafafa"/>
      <path id="Path_5263" data-name="Path 5263" d="M593.7,234.78s0,.031.066.1a2.115,2.115,0,0,1,.183.336l.7,1.315c.617,1.177,1.5,2.86,2.6,4.95l.036.076-.076.041a39.252,39.252,0,0,0-8.09,6.035h0a5.449,5.449,0,0,1-1.2,1.31.6.6,0,0,1-.255.092h-1.6c-1.228-.031-2.493-.087-3.787-.158l.082-.025-1.2.821-.612.438a.948.948,0,0,1-.826.168.841.841,0,0,1-.591-.622,1.387,1.387,0,0,1,.1-.831,8.359,8.359,0,0,1,.836-1.346c1.774-2.549,3.6-4.945,5.312-7.187v.025a6.44,6.44,0,0,0,.331-1.065,2.355,2.355,0,0,0,.041-1.045.591.591,0,0,0-.255-.367,1.223,1.223,0,0,0-.474-.112c-.352-.036-.714-.031-1.065-.036a10.6,10.6,0,0,1-2.095-.143,2.253,2.253,0,0,1-.958-.423,1.285,1.285,0,0,1-.423-.948h0v-.025l.1-.2v-.046h.051l3.568-.775h.031l5.714.387h0l1.121.443h-.041l1.973-.867.51-.219.163-.061-.173.092-.51.245-1.922.912h-.025l-1.127-.423h0l-5.719-.326h.025l-3.568.805.071-.056-.1.2v-.051a1.06,1.06,0,0,0,.352.775,1.937,1.937,0,0,0,.862.367,10.268,10.268,0,0,0,2.039.133c.357,0,.714,0,1.086.031a1.493,1.493,0,0,1,.581.143.857.857,0,0,1,.367.51,2.6,2.6,0,0,1-.031,1.172,6.826,6.826,0,0,1-.347,1.111h0c-1.7,2.248-3.527,4.634-5.3,7.182a8.67,8.67,0,0,0-.785,1.3,1.167,1.167,0,0,0-.092.673.6.6,0,0,0,.408.433.688.688,0,0,0,.6-.133l.617-.438,1.213-.856.036-.025h.046c1.29.071,2.549.133,3.777.168h1.565a.372.372,0,0,0,.158-.056,5.336,5.336,0,0,0,1.127-1.239h0a38.927,38.927,0,0,1,8.156-5.989l-.036.117-2.493-4.95c-.285-.576-.51-1.02-.673-1.351l-.173-.357Z" transform="translate(-532.025 -162.912)" fill="#263238"/>
      <path id="Path_5264" data-name="Path 5264" d="M590.213,253.41a26.957,26.957,0,0,1-2.36,2.284c-.668.617-1.279,1.167-1.723,1.56a4.074,4.074,0,0,1-.759.6,17.333,17.333,0,0,1,2.3-2.355A16.251,16.251,0,0,1,590.213,253.41Z" transform="translate(-535.092 -172.045)" fill="#263238"/>
      <path id="Path_5265" data-name="Path 5265" d="M594.8,255.91a7.488,7.488,0,0,1-1.483,1.794,8.8,8.8,0,0,1-1.759,1.529,12.079,12.079,0,0,1,1.57-1.713,15.827,15.827,0,0,1,1.672-1.611Z" transform="translate(-538.127 -173.271)" fill="#263238"/>
    </g>
    <g id="Plant" transform="translate(27.842 142.249)">
      <path id="Path_5266" data-name="Path 5266" d="M109.672,415.782c.428-1.657-.658-3.324-1.876-4.527s-2.676-2.279-3.308-3.869c-1.019-2.579.352-5.913-1.4-8.064-1.019-1.264-2.88-1.687-3.792-3.058a6.943,6.943,0,0,1-.826-2.411,24.468,24.468,0,0,0-6.117-11.413,21.3,21.3,0,0,0,2.391,11,13.855,13.855,0,0,1,1.82,4.175c.382,2.447-.989,4.97-.387,7.376.688,2.753,3.782,4.588,3.925,7.422.127,2.4-1.963,4.5-1.8,6.887a6.479,6.479,0,0,0,1.065,2.839c1.85,3.058,4.588,5.194,8.666,5.128l5.046.173Z" transform="translate(-92.32 -349.133)" fill="#f07824"/>
      <g id="Group_56419" data-name="Group 56419" transform="translate(0 33.306)" opacity="0.3">
        <path id="Path_5267" data-name="Path 5267" d="M109.672,415.782c.428-1.657-.658-3.324-1.876-4.527s-2.676-2.279-3.308-3.869c-1.019-2.579.352-5.913-1.4-8.064-1.019-1.264-2.88-1.687-3.792-3.058a6.943,6.943,0,0,1-.826-2.411,24.468,24.468,0,0,0-6.117-11.413,21.3,21.3,0,0,0,2.391,11,13.855,13.855,0,0,1,1.82,4.175c.382,2.447-.989,4.97-.387,7.376.688,2.753,3.782,4.588,3.925,7.422.127,2.4-1.963,4.5-1.8,6.887a6.479,6.479,0,0,0,1.065,2.839c1.85,3.058,4.588,5.194,8.666,5.128l5.046.173Z" transform="translate(-92.32 -382.44)"/>
      </g>
      <path id="Path_5268" data-name="Path 5268" d="M132.689,410.924a4.079,4.079,0,0,0,1.392,0,8.666,8.666,0,0,0,1.641-.413,7,7,0,0,0,2.039-1.111,2.8,2.8,0,0,0,.831-1.111,5.194,5.194,0,0,0,.24-1.529,13.958,13.958,0,0,1,.117-1.631,4.588,4.588,0,0,1,.617-1.626c.6-1.045,1.585-2.039,1.9-3.451a12.041,12.041,0,0,0-.138-4.425,9.417,9.417,0,0,1,.117-4.741c.576-1.575,1.652-3.007,2.2-4.786s.3-3.726.413-5.633a7.468,7.468,0,0,1,.658-2.8c.408-.892.974-1.738,1.417-2.676a19.68,19.68,0,0,0,1.3-6.168q.173-1.6.362-3.227a15.387,15.387,0,0,1,.561-3.227,27.59,27.59,0,0,1,1.208-3.125,10.478,10.478,0,0,0,.586-1.631,16.96,16.96,0,0,0,.163-1.738,20.547,20.547,0,0,0-.138-3.492c-.138-1.167-.347-2.319-.469-3.487v-.2l-.025-.229-.209.1a7.788,7.788,0,0,0-2.717,2.294,12.413,12.413,0,0,0-1.667,3.058,37.866,37.866,0,0,0-1.57,6.627,18.212,18.212,0,0,1-2.075,6.117c-.556.9-1.223,1.718-1.81,2.595a7.137,7.137,0,0,0-1.254,2.875c-.3,2.136.882,4.012.637,5.9a6.662,6.662,0,0,1-.923,2.62c-.459.805-1.019,1.529-1.529,2.3a14.9,14.9,0,0,0-1.356,2.329,7.325,7.325,0,0,0-.617,2.549c-.127,1.7.117,3.318,0,4.843a11.133,11.133,0,0,1-1.244,4.149c-.612,1.239-1.29,2.365-1.861,3.451-.285.545-.545,1.076-.765,1.611a8.31,8.31,0,0,0-.443,1.6,10.161,10.161,0,0,0-.036,2.88,7.315,7.315,0,0,0,1.443,3.675,3.969,3.969,0,0,0,.413.443,2.1,2.1,0,0,0,.331.28c.184.138.285.2.285.2a6.631,6.631,0,0,1-.979-.963,7.284,7.284,0,0,1-1.366-3.65,10.119,10.119,0,0,1,.061-2.839,8.008,8.008,0,0,1,.449-1.56,16.67,16.67,0,0,1,.77-1.585c.571-1.081,1.259-2.2,1.881-3.446a11.27,11.27,0,0,0,1.29-4.221c.133-1.56-.1-3.181.025-4.843a7.136,7.136,0,0,1,.612-2.442,13.917,13.917,0,0,1,1.341-2.284c.51-.749,1.055-1.5,1.529-2.319a6.821,6.821,0,0,0,.963-2.727c.245-2.013-.923-3.9-.622-5.887a6.886,6.886,0,0,1,1.213-2.753c.576-.861,1.249-1.682,1.815-2.6a18.279,18.279,0,0,0,2.126-6.2,37.58,37.58,0,0,1,1.56-6.555,12,12,0,0,1,1.626-2.992,7.478,7.478,0,0,1,2.6-2.2l-.229-.127v.2c.127,1.183.342,2.34.474,3.487a19.991,19.991,0,0,1,.1,3.425,16.2,16.2,0,0,1-.153,1.687,10.357,10.357,0,0,1-.566,1.57,28.653,28.653,0,0,0-1.218,3.16,15.991,15.991,0,0,0-.566,3.283c-.122,1.086-.24,2.161-.362,3.227a19.365,19.365,0,0,1-1.259,6.076c-.428.912-.994,1.759-1.412,2.681a7.8,7.8,0,0,0-.678,2.906c-.107,1.947.143,3.854-.382,5.577s-1.626,3.15-2.182,4.781a10.077,10.077,0,0,0-.107,4.858,10.937,10.937,0,0,1,.163,4.338,14.26,14.26,0,0,1-1.861,3.415,4.588,4.588,0,0,0-.622,1.687,13.383,13.383,0,0,0-.107,1.652,4.98,4.98,0,0,1-.219,1.468,2.691,2.691,0,0,1-.78,1.06,7,7,0,0,1-1.962,1.116,8.773,8.773,0,0,1-1.616.438,6.211,6.211,0,0,1-1.019.1Z" transform="translate(-110.873 -332.475)" fill="#263238"/>
      <path id="Path_5269" data-name="Path 5269" d="M151.115,354.38a.448.448,0,0,0-.051.153c-.031.117-.066.27-.112.454-.1.4-.214.994-.408,1.748s-.652,1.59-1.019,2.635-.821,2.233-1.2,3.568-.724,2.839-1.081,4.44a18.6,18.6,0,0,1-1.616,4.929c-.413.821-.882,1.652-1.249,2.549a11.769,11.769,0,0,0-.729,2.9,57.436,57.436,0,0,1-1.086,6.117c-1.019,4.139-1.978,8.074-2.855,11.663l-2.391,9.512c-.668,2.691-1.208,4.878-1.585,6.418l-.418,1.754c-.041.184-.071.331-.1.454a.776.776,0,0,0,0,.158.365.365,0,0,1,.056-.148,3.111,3.111,0,0,0,.133-.449c.112-.423.27-1.02.474-1.733.4-1.529.979-3.716,1.682-6.4s1.529-5.923,2.462-9.491,1.855-7.529,2.88-11.668a57.057,57.057,0,0,0,1.086-6.117,11.631,11.631,0,0,1,.7-2.824c.357-.887.816-1.713,1.228-2.549a18.616,18.616,0,0,0,1.611-5.006c.347-1.606.673-3.1,1.019-4.44a34.06,34.06,0,0,1,1.147-3.568c.387-1.019.816-1.891,1.019-2.666s.27-1.361.352-1.769c.031-.184.056-.336.082-.459a.622.622,0,0,0-.031-.163Z" transform="translate(-113.348 -335.377)" fill="#263238"/>
      <path id="Path_5270" data-name="Path 5270" d="M119.339,395.575c3.3-1.957,4.241-7.906,2.87-11.484s-3.787-6.851-4.154-10.669c-.285-2.936.673-5.944,0-8.813-.923-3.869-4.7-6.871-4.659-10.847,0-2.233,1.295-4.333,1.2-6.565-.127-2.732-2.228-4.9-3.527-7.315-1.988-3.685-2.121-8.049-2.8-12.183s-2.258-8.564-5.923-10.6c-.54,3.512-1.468,5.918-1.178,10.674.107,1.708,2.09,4.975,2.36,8.722.163,2.238.275,4.476.408,6.718a21.208,21.208,0,0,0,1.055,6.433c.6,1.565,1.565,2.982,2.008,4.588.836,3.033-.265,6.321.413,9.395.571,2.6,2.375,4.848,2.742,7.488.51,3.711-1.886,7.565-.658,11.107.612,1.754,2.039,3.165,2.467,4.98.316,1.407-.031,2.9.26,4.307.464,2.279,4.807,4.047,7.136,3.9" transform="translate(-96.631 -317.1)" fill="#f07824"/>
      <path id="Path_5271" data-name="Path 5271" d="M105.285,323.94a.979.979,0,0,0,0,.2,5.8,5.8,0,0,0,.071.576c.076.51.163,1.249.336,2.212s.683,2.039,1.081,3.375.836,2.824,1.208,4.516.693,3.568,1.019,5.577a22.744,22.744,0,0,0,1.692,6.305c.464,1.055.979,2.11,1.371,3.232a14.569,14.569,0,0,1,.693,3.568,73.072,73.072,0,0,0,.969,7.682c1.019,5.2,1.973,10.159,2.844,14.665s1.754,8.543,2.457,11.948,1.279,6.117,1.682,8.049c.2.933.357,1.667.469,2.187.056.234.1.423.133.566a.719.719,0,0,0,.056.189.8.8,0,0,0,0-.194c-.025-.148-.061-.336-.1-.576-.1-.51-.234-1.259-.413-2.2-.377-1.927-.918-4.679-1.58-8.069s-1.488-7.463-2.386-11.959l-2.819-14.665a72.477,72.477,0,0,1-.974-7.646,14.6,14.6,0,0,0-.719-3.629c-.4-1.152-.928-2.207-1.392-3.252a23.53,23.53,0,0,1-1.7-6.234c-.357-2.008-.668-3.889-1.06-5.582s-.821-3.211-1.259-4.521-.933-2.4-1.132-3.344-.3-1.7-.393-2.2c-.046-.24-.076-.428-.107-.571A.922.922,0,0,0,105.285,323.94Z" transform="translate(-98.674 -320.453)" fill="#263238"/>
    </g>
    <g id="Doorbell" transform="translate(206.44 51.622)">
      <rect id="Rectangle_2615" data-name="Rectangle 2615" width="16.383" height="22.964" fill="#455a64"/>
      <rect id="Rectangle_2616" data-name="Rectangle 2616" width="16.383" height="2.661" fill="#263238"/>
      <rect id="Rectangle_2617" data-name="Rectangle 2617" width="16.383" height="2.661" transform="translate(0 20.303)" fill="#263238"/>
      <rect id="Rectangle_2618" data-name="Rectangle 2618" width="9.955" height="5.189" transform="translate(3.196 4.297)" fill="#263238"/>
      <path id="Path_5272" data-name="Path 5272" d="M458.7,150.475c-.025,0-.025-.209-.122-.556a2.355,2.355,0,0,0-.861-1.228,2.226,2.226,0,1,0-.005,3.568,2.381,2.381,0,0,0,.856-1.223c.1-.352.1-.561.122-.561s0,.051,0,.153a1.718,1.718,0,0,1-.046.433,2.324,2.324,0,0,1-.841,1.346,2.406,2.406,0,0,1-2.309.377,2.446,2.446,0,1,1,2.309-4.241,2.32,2.32,0,0,1,.841,1.351,1.674,1.674,0,0,1,.046.433C458.716,150.424,458.711,150.475,458.7,150.475Z" transform="translate(-448.17 -143.584)" fill="#455a64"/>
      <path id="Path_5273" data-name="Path 5273" d="M450.465,161.467a.387.387,0,1,1-.387-.387.387.387,0,0,1,.387.387Z" transform="translate(-446.122 -149.983)" fill="#263238"/>
      <path id="Path_5274" data-name="Path 5274" d="M456.195,161.467a.387.387,0,1,1-.387-.387A.387.387,0,0,1,456.195,161.467Z" transform="translate(-448.931 -149.983)" fill="#263238"/>
      <path id="Path_5275" data-name="Path 5275" d="M461.925,161.463a.382.382,0,0,1-.382.382.387.387,0,1,1,.382-.382Z" transform="translate(-451.74 -149.978)" fill="#263238"/>
      <circle id="Ellipse_491" data-name="Ellipse 491" cx="0.387" cy="0.387" r="0.387" transform="translate(3.568 13.569)" fill="#263238"/>
      <path id="Path_5276" data-name="Path 5276" d="M456.195,166.317a.387.387,0,1,1-.387-.387A.387.387,0,0,1,456.195,166.317Z" transform="translate(-448.931 -152.361)" fill="#263238"/>
      <circle id="Ellipse_492" data-name="Ellipse 492" cx="0.387" cy="0.387" r="0.387" transform="translate(9.415 13.569)" fill="#263238"/>
      <circle id="Ellipse_493" data-name="Ellipse 493" cx="0.387" cy="0.387" r="0.387" transform="translate(3.568 16.047)" fill="#263238"/>
      <path id="Path_5277" data-name="Path 5277" d="M456.195,171.177a.387.387,0,1,1-.387-.387.387.387,0,0,1,.387.387Z" transform="translate(-448.931 -154.743)" fill="#263238"/>
      <circle id="Ellipse_494" data-name="Ellipse 494" cx="0.387" cy="0.387" r="0.387" transform="translate(9.415 16.047)" fill="#263238"/>
      <circle id="Ellipse_495" data-name="Ellipse 495" cx="1.402" cy="1.402" r="1.402" transform="translate(11.439 12.555)" fill="#f07824"/>
    </g>
    <g id="Door" transform="translate(89.464 -0.02)">
      <rect id="Rectangle_2619" data-name="Rectangle 2619" width="9.481" height="220.585" transform="translate(100.507 0.01)" fill="#263238"/>
      <rect id="Rectangle_2620" data-name="Rectangle 2620" width="94.409" height="211.283" transform="translate(6.092 9.318)" fill="#455a64"/>
      <rect id="Rectangle_2621" data-name="Rectangle 2621" width="8.737" height="220.585" transform="translate(0.006 0.01)" fill="#263238"/>
      <rect id="Rectangle_2622" data-name="Rectangle 2622" width="109.982" height="9.308" transform="translate(0.006 0.01)" fill="#263238"/>
      <path id="Path_5278" data-name="Path 5278" d="M420.132,38a3.362,3.362,0,0,1-.352.372l-1.02.938-3.4,3.058c-1.315,1.208-2.493,2.319-3.3,3.165a10.661,10.661,0,0,0-.9,1.019,2.856,2.856,0,0,0-.194.311c-.025.076-.041.122-.051.122s0-.046,0-.138a1.482,1.482,0,0,1,.158-.352,7.549,7.549,0,0,1,.851-1.111,45.5,45.5,0,0,1,3.257-3.237c1.325-1.208,2.549-2.268,3.456-3.018.449-.377.821-.673,1.081-.877a2.3,2.3,0,0,1,.413-.255Z" transform="translate(-310.134 -38)" fill="#455a64"/>
      <path id="Path_5279" data-name="Path 5279" d="M221.946,47.521c-.051.046-2.039-2.039-4.465-4.659s-4.323-4.792-4.272-4.843,2.039,2.039,4.465,4.659S222,47.47,221.946,47.521Z" transform="translate(-213.208 -38.009)" fill="#455a64"/>
      <rect id="Rectangle_2623" data-name="Rectangle 2623" width="6.351" height="28.219" rx="3.176" transform="translate(11.22 105.455)" fill="#263238"/>
      <path id="Path_5280" data-name="Path 5280" d="M241.931,285.584a1.076,1.076,0,1,0-1.529.953v1.269a.479.479,0,0,0,.479.479h0a.479.479,0,0,0,.484-.479v-1.244A1.076,1.076,0,0,0,241.931,285.584Z" transform="translate(-226.235 -158.842)" fill="#455a64"/>
      <rect id="Rectangle_2624" data-name="Rectangle 2624" width="17.489" height="3.374" rx="1.687" transform="translate(14.309 114.957)" fill="#263238"/>
      <path id="Path_5281" data-name="Path 5281" d="M247.3,266.828a2.231,2.231,0,0,1-.535.046l-1.448.061a12.869,12.869,0,0,1-2.161-.071,4.96,4.96,0,0,1-1.259-.316,2.258,2.258,0,0,1-1.1-.907,1.616,1.616,0,0,1-.066-1.432,1.167,1.167,0,0,1,.479-.51,2.972,2.972,0,0,1,.6-.25,6.691,6.691,0,0,1,2.161-.255c.612,0,1.106.031,1.448.051a2.374,2.374,0,0,1,.51.056,16.511,16.511,0,0,1-1.978.076,7.167,7.167,0,0,0-2.085.3,1.376,1.376,0,0,0-.918.658,1.351,1.351,0,0,0,.066,1.193,1.983,1.983,0,0,0,.953.816,4.543,4.543,0,0,0,1.188.311,14.949,14.949,0,0,0,2.126.133A11.138,11.138,0,0,1,247.3,266.828Z" transform="translate(-226.639 -148.399)" fill="#455a64"/>
      <path id="Path_5282" data-name="Path 5282" d="M285.6,115.713V113.18c0-1.641,0-4.032-.031-7.065,0-6.061-.036-14.67-.061-24.911l.117.117H257.587l.133-.133V115.7l-.112-.112,20.308.056,5.684.031h.02l-5.658.031-20.39.056h-.112V81.01h28.3v.117c0,10.271-.046,18.911-.061,24.977,0,3.018,0,5.4-.031,7.04v2.324A.9.9,0,0,1,285.6,115.713Z" transform="translate(-234.903 -59.086)" fill="#263238"/>
      <path id="Path_5283" data-name="Path 5283" d="M284.975,115.285a.739.739,0,0,1,0-.133v-1.815c0-1.264,0-3.094-.031-5.408,0-4.634-.036-11.214-.061-18.952l.122.117H265.7c-.031,0,.25-.25.133-.127h0v26.287l-.107-.112,14,.061h3.925l-3.879.031-14.074.056h-.112v-26.3h0l.138-.138h19.421v.122c-.025,7.794-.046,14.38-.061,19.034,0,2.3,0,4.119-.031,5.378v1.779C284.975,115.244,284.975,115.285,284.975,115.285Z" transform="translate(-238.889 -62.93)" fill="#263238"/>
      <path id="Path_5284" data-name="Path 5284" d="M285.6,229.82V225c0-3.13,0-7.682-.036-13.4,0-11.439-.036-27.526-.056-46.279l.122.127H257.6l.133-.133c0,25.125,0,47.916-.036,64.518l-.1-.092,20.471.051H283.7l-5.561.025-20.532.051h-.092v-.051c0-16.607,0-39.393-.041-64.518v-.133h28.275v.127c-.025,18.764-.046,34.9-.061,46.386,0,5.714-.025,10.256-.031,13.376v4.481A.525.525,0,0,1,285.6,229.82Z" transform="translate(-234.908 -100.346)" fill="#263238"/>
      <path id="Path_5285" data-name="Path 5285" d="M284.922,230.091v-4.312c0-2.788,0-6.836-.036-11.9,0-10.134-.036-24.361-.061-40.754l.133.127h-19.34l.133-.133c0,22.775-.036,43.216-.046,56.969l-.087-.087,14.161.046h3.843l-3.792.025-14.212.046h-.092v-.025c0-13.763-.025-34.193-.046-56.969V173h19.569v.127c-.025,16.429-.046,30.686-.061,40.84,0,5.057-.025,9.094-.036,11.872v3.986A.763.763,0,0,1,284.922,230.091Z" transform="translate(-238.835 -104.185)" fill="#263238"/>
      <path id="Path_5286" data-name="Path 5286" d="M285.6,390.056v-4.817c0-3.13,0-7.682-.036-13.4,0-11.439-.036-27.551-.056-46.279l.122.127H257.6l.133-.133c0,25.125,0,47.916-.036,64.518l-.1-.1,20.471.056H283.7l-5.561.025-20.532.051h-.092v-.1c0-16.607,0-39.393-.041-64.518v-.133h28.275v.127c-.025,18.764-.046,34.9-.061,46.386,0,5.714-.025,10.256-.031,13.376v4.481A.888.888,0,0,1,285.6,390.056Z" transform="translate(-234.908 -178.881)" fill="#263238"/>
      <path id="Path_5287" data-name="Path 5287" d="M284.922,390.292V385.98c0-2.788,0-6.836-.036-11.9,0-10.134-.036-24.361-.061-40.754l.133.127h-19.34l.133-.133c0,22.775-.036,43.216-.046,56.969l-.087-.087,14.161.046h3.843l-3.792.025-14.212.046h-.092v-.087c0-13.763-.025-34.193-.046-56.969v-.133h19.569v.127c-.025,16.429-.046,30.686-.061,40.84,0,5.057-.025,9.094-.036,11.872v3.986A1.775,1.775,0,0,1,284.922,390.292Z" transform="translate(-238.835 -182.69)" fill="#263238"/>
      <path id="Path_5288" data-name="Path 5288" d="M261.874,140.68a18.817,18.817,0,0,1-2.4,2.126,19.721,19.721,0,0,1-2.549,1.912,40.068,40.068,0,0,1,4.945-4.037Z" transform="translate(-234.643 -88.34)" fill="#263238"/>
      <path id="Path_5289" data-name="Path 5289" d="M308.588,144.494a11.286,11.286,0,0,1-2.457-1.667,11.837,11.837,0,0,1-2.131-2.07c.056-.056,1.019.836,2.3,1.861S308.618,144.448,308.588,144.494Z" transform="translate(-257.72 -88.377)" fill="#263238"/>
      <path id="Path_5290" data-name="Path 5290" d="M307.629,83a13.889,13.889,0,0,1-2.115,1.7,13.7,13.7,0,0,1-2.273,1.488,13.936,13.936,0,0,1,2.115-1.7A14.11,14.11,0,0,1,307.629,83Z" transform="translate(-257.347 -60.062)" fill="#263238"/>
      <path id="Path_5291" data-name="Path 5291" d="M261.708,85.347a9.731,9.731,0,0,1-2.319-1.3,9.522,9.522,0,0,1-2.039-1.7,23.379,23.379,0,0,1,2.2,1.483,22.263,22.263,0,0,1,2.161,1.524Z" transform="translate(-234.849 -59.738)" fill="#263238"/>
      <path id="Path_5292" data-name="Path 5292" d="M261.731,169.055a9.415,9.415,0,0,1-3.971-4.486c.071-.036.714,1.157,1.82,2.391S261.777,168.989,261.731,169.055Z" transform="translate(-235.05 -100.051)" fill="#263238"/>
      <path id="Path_5293" data-name="Path 5293" d="M308.009,165.35a28.98,28.98,0,0,1-4.149,3.645,14.743,14.743,0,0,1,1.988-1.922A14.236,14.236,0,0,1,308.009,165.35Z" transform="translate(-257.651 -100.434)" fill="#263238"/>
      <path id="Path_5294" data-name="Path 5294" d="M261.833,285.54c.041.066-.887.739-1.942,1.677s-1.845,1.779-1.9,1.728a7.681,7.681,0,0,1,1.723-1.927A8.116,8.116,0,0,1,261.833,285.54Z" transform="translate(-235.163 -159.359)" fill="#263238"/>
      <path id="Path_5295" data-name="Path 5295" d="M307.551,288.565a23.315,23.315,0,0,1-3.711-3.425,12.44,12.44,0,0,1,1.947,1.616A12.284,12.284,0,0,1,307.551,288.565Z" transform="translate(-257.641 -159.163)" fill="#263238"/>
      <path id="Path_5296" data-name="Path 5296" d="M262.116,330.48a20.192,20.192,0,0,1-2.355-2.258,20.8,20.8,0,0,1-2.161-2.442,20.2,20.2,0,0,1,2.355,2.258A19.279,19.279,0,0,1,262.116,330.48Z" transform="translate(-234.972 -179.087)" fill="#263238"/>
      <path id="Path_5297" data-name="Path 5297" d="M308.176,325.37a19.059,19.059,0,0,1-2.146,2.248,18.041,18.041,0,0,1-2.33,2.039,36.7,36.7,0,0,1,4.476-4.307Z" transform="translate(-257.573 -178.876)" fill="#263238"/>
      <path id="Path_5298" data-name="Path 5298" d="M261.272,444.62a25.418,25.418,0,0,1-3.492,3.859,25.417,25.417,0,0,1,3.492-3.859Z" transform="translate(-235.06 -237.349)" fill="#263238"/>
      <path id="Path_5299" data-name="Path 5299" d="M307.877,448.672a10.581,10.581,0,0,1-2.177-1.713,10.8,10.8,0,0,1-1.85-2.039,23.3,23.3,0,0,1,2.039,1.866A22.779,22.779,0,0,1,307.877,448.672Z" transform="translate(-257.646 -237.496)" fill="#263238"/>
      <path id="Path_5300" data-name="Path 5300" d="M358.8,115.713V113.18c0-1.641,0-4.032-.031-7.065,0-6.061-.036-14.67-.061-24.911l.117.117h-28.01l.133-.133V115.7l-.112-.112,20.313.056,5.679.031h.046l-5.658.031-20.39.056h-.112V81.01h28.27v.117c-.025,10.271-.046,18.911-.061,24.977,0,3.018-.025,5.4-.031,7.04v2.324a.9.9,0,0,1-.092.245Z" transform="translate(-270.814 -59.086)" fill="#263238"/>
      <path id="Path_5301" data-name="Path 5301" d="M358.125,115.285a.739.739,0,0,1,0-.133v-1.815c0-1.264,0-3.094-.031-5.408,0-4.634-.036-11.214-.061-18.952l.122.117h-19.3c-.031,0,.25-.25.133-.127h0v26.287l-.107-.112,14,.061h3.925l-3.879.031-14.074.056h-.112v-26.3h0l.138-.138h19.365v.122c-.025,7.794-.046,14.38-.061,19.034,0,2.3,0,4.119-.031,5.378v1.779A.465.465,0,0,0,358.125,115.285Z" transform="translate(-274.751 -62.93)" fill="#263238"/>
      <path id="Path_5302" data-name="Path 5302" d="M358.718,229.82V225c0-3.13,0-7.682-.036-13.4,0-11.439-.036-27.526-.056-46.279l.122.127H330.713l.133-.133c0,25.125-.025,47.916-.036,64.518l-.1-.092,20.471.051h7.09l-1.5.026-5.561.025-20.532.051h-.092v-.076c0-16.607-.026-39.393-.041-64.518v-.133h28.275v.127c-.025,18.764-.046,34.9-.061,46.386,0,5.714-.025,10.256-.031,13.376v4.481A1.6,1.6,0,0,1,358.718,229.82Z" transform="translate(-270.736 -100.346)" fill="#263238"/>
      <path id="Path_5303" data-name="Path 5303" d="M358.072,230.091v-4.312c0-2.788,0-6.836-.036-11.9,0-10.134-.036-24.361-.061-40.754l.133.127h-19.34l.133-.133c0,22.775-.036,43.216-.046,56.969l-.087-.087,14.161.046h3.843l-3.787.025-14.217.046h-.092v-.025c0-13.763-.026-34.193-.046-56.969V173h19.559v.127c0,16.429-.046,30.686-.061,40.84,0,5.057,0,9.094-.036,11.872v3.986A1.12,1.12,0,0,1,358.072,230.091Z" transform="translate(-274.697 -104.185)" fill="#263238"/>
      <path id="Path_5304" data-name="Path 5304" d="M358.777,390.056v-4.817c0-3.13,0-7.682-.036-13.4,0-11.439-.036-27.551-.056-46.279l.122.127H330.772l.133-.133c0,25.125-.025,47.916-.036,64.518l-.1-.1,20.471.056H356.9l-5.561.025-20.532.051h-.092v-.1c0-16.607-.025-39.393-.041-64.518v-.133h28.275v.127c-.025,18.764-.046,34.9-.061,46.386,0,5.714-.025,10.256-.031,13.376v4.481A.636.636,0,0,1,358.777,390.056Z" transform="translate(-270.795 -178.881)" fill="#263238"/>
      <path id="Path_5305" data-name="Path 5305" d="M358.072,390.292V385.98c0-2.788,0-6.836-.036-11.9,0-10.134-.036-24.361-.061-40.754l.133.127h-19.34l.133-.133c0,22.775-.036,43.216-.046,56.969l-.087-.087,14.161.046h3.843l-3.787.025-14.217.046h-.092v-.087c0-13.763-.026-34.193-.046-56.969v-.133h19.559v.127c0,16.429-.046,30.686-.061,40.84,0,5.057,0,9.094-.036,11.872v3.986A2.637,2.637,0,0,1,358.072,390.292Z" transform="translate(-274.697 -182.69)" fill="#263238"/>
      <path id="Path_5306" data-name="Path 5306" d="M335.024,140.68a18.818,18.818,0,0,1-2.4,2.126,19.72,19.72,0,0,1-2.549,1.912,40.07,40.07,0,0,1,4.945-4.037Z" transform="translate(-270.505 -88.34)" fill="#263238"/>
      <path id="Path_5307" data-name="Path 5307" d="M381.718,144.494a11.286,11.286,0,0,1-2.457-1.667,11.836,11.836,0,0,1-2.131-2.07c.056-.056,1.019.836,2.3,1.861S381.758,144.448,381.718,144.494Z" transform="translate(-293.572 -88.377)" fill="#263238"/>
      <path id="Path_5308" data-name="Path 5308" d="M380.779,83a13.891,13.891,0,0,1-2.115,1.7,13.7,13.7,0,0,1-2.273,1.488,14.277,14.277,0,0,1,2.115-1.7A14.109,14.109,0,0,1,380.779,83Z" transform="translate(-293.209 -60.062)" fill="#263238"/>
      <path id="Path_5309" data-name="Path 5309" d="M334.858,85.347a9.731,9.731,0,0,1-2.319-1.3,9.522,9.522,0,0,1-2.039-1.7,23.375,23.375,0,0,1,2.2,1.483,22.26,22.26,0,0,1,2.161,1.524Z" transform="translate(-270.711 -59.738)" fill="#263238"/>
      <path id="Path_5310" data-name="Path 5310" d="M334.881,169.055a9.415,9.415,0,0,1-3.971-4.486c.071-.036.714,1.157,1.82,2.391S334.927,168.989,334.881,169.055Z" transform="translate(-270.912 -100.051)" fill="#263238"/>
      <path id="Path_5311" data-name="Path 5311" d="M381.144,165.35A29.3,29.3,0,0,1,377,168.995a14.744,14.744,0,0,1,1.988-1.922,14.241,14.241,0,0,1,2.156-1.723Z" transform="translate(-293.508 -100.434)" fill="#263238"/>
      <path id="Path_5312" data-name="Path 5312" d="M334.983,285.54c.041.066-.887.739-1.942,1.677s-1.845,1.779-1.9,1.728a7.682,7.682,0,0,1,1.723-1.927,8.115,8.115,0,0,1,2.12-1.478Z" transform="translate(-271.025 -159.359)" fill="#263238"/>
      <path id="Path_5313" data-name="Path 5313" d="M380.7,288.565a23.314,23.314,0,0,1-3.711-3.425,12.44,12.44,0,0,1,1.947,1.616A12.284,12.284,0,0,1,380.7,288.565Z" transform="translate(-293.504 -159.163)" fill="#263238"/>
      <path id="Path_5314" data-name="Path 5314" d="M335.266,330.48a20.193,20.193,0,0,1-2.355-2.258,20.786,20.786,0,0,1-2.161-2.442,19.739,19.739,0,0,1,2.355,2.258,19.279,19.279,0,0,1,2.161,2.442Z" transform="translate(-270.834 -179.087)" fill="#263238"/>
      <path id="Path_5315" data-name="Path 5315" d="M381.326,325.37a18.566,18.566,0,0,1-2.146,2.248,18.043,18.043,0,0,1-2.329,2.039,36.7,36.7,0,0,1,4.475-4.307Z" transform="translate(-293.435 -178.876)" fill="#263238"/>
      <path id="Path_5316" data-name="Path 5316" d="M334.422,444.62a25.417,25.417,0,0,1-3.492,3.859,12.658,12.658,0,0,1,1.647-2.039,13.2,13.2,0,0,1,1.845-1.82Z" transform="translate(-270.922 -237.349)" fill="#263238"/>
      <path id="Path_5317" data-name="Path 5317" d="M381.027,448.672a10.581,10.581,0,0,1-2.177-1.713A10.8,10.8,0,0,1,377,444.92a23.3,23.3,0,0,1,2.039,1.866A22.788,22.788,0,0,1,381.027,448.672Z" transform="translate(-293.508 -237.496)" fill="#263238"/>
    </g>
    <g id="Box" transform="translate(169.902 175.627)">
      <rect id="Rectangle_2625" data-name="Rectangle 2625" width="62.525" height="44.949" transform="translate(0 0.005)" fill="#f07824"/>
      <path id="Path_5318" data-name="Path 5318" d="M399.458,382.59c.087,0,0,9.491,0,9.491H394.83V382.59Z" transform="translate(-382.688 -382.585)" fill="#263238"/>
      <g id="Group_56420" data-name="Group 56420" transform="translate(31.262 0)" opacity="0.4">
        <rect id="Rectangle_2626" data-name="Rectangle 2626" width="31.262" height="44.949" transform="translate(31.262 44.949) rotate(180)"/>
      </g>
      <rect id="Rectangle_2627" data-name="Rectangle 2627" width="8.37" height="5.923" transform="translate(1.906 36.151)" fill="#fafafa"/>
      <path id="Path_5319" data-name="Path 5319" d="M383.115,459.429h-8.4V453.48h8.4Zm-8.37,0h8.344v-5.923h-8.344Z" transform="translate(-372.829 -417.339)" fill="#263238"/>
      <rect id="Rectangle_2628" data-name="Rectangle 2628" width="4.185" height="5.923" transform="translate(11.821 36.151)" fill="#fafafa"/>
      <path id="Path_5320" data-name="Path 5320" d="M398.38,459.429h-4.21V453.48h4.21Zm-4.18,0h4.154v-5.923H394.2Z" transform="translate(-382.364 -417.339)" fill="#263238"/>
    </g>
  </g>
</svg>
